<?xml version="1.0" encoding="UTF-8"?>
<svg id="Capa_1" data-name="Capa 1" xmlns="http://www.w3.org/2000/svg" viewBox="0 0 510.13 510.13">
  <defs>
    <style>
      .cls-1 {
        fill: #fff;
        stroke-width: 0px;
      }
    </style>
  </defs>
  <path class="cls-1" d="m378.4,231.93c2.25-1.5,4.36-3.22,6.28-5.21,7.06-7.3,10.87-16.91,10.71-27.08-.33-20.93-17.7-37.56-38.5-37.43-.02,0-.04,0-.06,0h-111.94c-6.5,0-12.29,3.87-14.78,9.87l-22.82,55.01c-1.07,2.58-.05,5.54,2.37,6.92,2.42,1.37,5.5.72,7.16-1.5l1.78-2.4c5.13-6.42,12.02-10.95,19.7-13.24-.26,1.91-.42,3.84-.39,5.79.33,20.77,17.33,37.44,38.03,37.44.21,0,.41,0,.61,0,4.5-.07,8.78-.97,12.77-2.47-2.09,32.94-29.47,59.11-62.93,59.11-24.62,0-46.78-14.22-57.16-36.4l43.33-95.58c2.25-4.96,1.83-10.65-1.12-15.23-2.95-4.58-7.97-7.31-13.41-7.31h-36.14c-3.05,0-5.52,2.47-5.52,5.52s2.47,5.52,5.52,5.52h36.14c2.42,0,3.69,1.58,4.13,2.25.43.68,1.34,2.48.34,4.68l-41.7,92.01c-5.62-2.88-11.81-4.44-18.21-4.44-22.1,0-40.08,17.98-40.08,40.08s17.98,40.08,40.08,40.08h137.77c3.05,0,5.52-2.47,5.52-5.52s-2.47-5.52-5.52-5.52h-137.77c-16.01,0-29.03-13.02-29.03-29.03s13.02-29.03,29.03-29.03c4.81,0,9.46,1.23,13.64,3.47l-1.97,4.35-10.6,24.27c-1.22,2.8.06,6.05,2.85,7.27.72.31,1.47.46,2.2.46,2.13,0,4.16-1.24,5.07-3.31l9.76-22.35c13.42,21.45,36.99,34.81,62.86,34.81,40.66,0,73.76-32.9,74.14-73.47,0-.06.03-.11.03-.16,0-.06,0-.12-.01-.19,0-.11.02-.23.02-.35h-.04c-.02-.82-.1-1.62-.16-2.42,8.48-7.12,13.81-17.84,13.62-29.74-.16-10.16-4.27-19.65-11.57-26.72-7.3-7.07-17.01-10.9-27.07-10.71-10.17.16-19.66,4.27-26.73,11.57-2.66,2.75-4.85,5.83-6.55,9.14-5.47.83-10.74,2.49-15.62,5.01l13.86-33.41c.77-1.86,2.57-3.06,4.58-3.06h111.94s.02,0,.03,0c.02,0,.04,0,.06.01,14.87-.36,27.19,11.68,27.43,26.57.11,7.21-2.59,14.04-7.6,19.22-5.01,5.18-11.75,8.1-18.96,8.21-15.12.32-27.2-11.68-27.43-26.57-.06-3.05-2.81-5.39-5.61-5.43-3.05.05-5.48,2.56-5.44,5.61.21,12.99,6.93,24.36,16.99,31.07-17.22,7.99-29.21,25.39-29.21,45.58,0,27.71,22.55,50.26,50.26,50.26s50.26-22.55,50.26-50.26c0-20.19-12-37.6-29.21-45.58h0Zm-102.01,17.11c-15.04.23-27.19-11.68-27.43-26.57-.04-2.52.38-4.95,1-7.32,10.47-.09,20.02,4,27.45,11.19,5.56,5.39,9.33,12.12,11.04,19.49-3.63,1.92-7.69,3.13-12.07,3.2h0Zm-.86-53.99c.15,0,.3,0,.44,0,7.05,0,13.7,2.7,18.77,7.6,5.18,5.02,8.1,11.75,8.21,18.97.1,6.13-1.94,11.75-5.33,16.35-2.59-7.31-6.8-13.99-12.53-19.54-8.15-7.89-18.42-12.59-29.54-13.9.35-.41.62-.87,1-1.26,5.01-5.18,11.75-8.1,18.96-8.21h0Zm81.83,121.68c-21.63,0-39.22-17.59-39.22-39.22s17.57-39.2,39.18-39.22h.08c21.6.02,39.17,17.6,39.17,39.22s-17.59,39.22-39.22,39.22h0Z"/>
</svg>