<?xml version="1.0" encoding="UTF-8"?>
<svg id="Capa_1" data-name="Capa 1" xmlns="http://www.w3.org/2000/svg" viewBox="0 0 510.13 510.13">
  <defs>
    <style>
      .cls-1 {
        fill: #fff;
        stroke-width: 0px;
      }
    </style>
  </defs>
  <polygon class="cls-1" points="147.7 240.21 132.86 240.21 132.86 284.74 147.7 284.74 147.7 277.32 155.12 277.32 155.12 247.63 147.7 247.63 147.7 240.21"/>
  <polygon class="cls-1" points="251.59 284.74 273.86 284.74 273.86 269.89 273.86 255.05 273.86 240.21 251.59 240.21 251.59 284.74"/>
  <rect class="cls-1" x="222.27" y="178.97" width="12.76" height="8.51"/>
  <rect class="cls-1" x="273.31" y="178.97" width="12.76" height="8.51"/>
  <path class="cls-1" d="m428.76,276.78v-25.43h1.01v-.31h1.02v-.31h1.02v-.31h1.02v-.31h1.02v-.31h1.02v-.31h1.02v-.31h1.02v-.31h1.02v-.31h1.02v-.31h1.02v-.31h1.02v-.31h1.02v-.31h1.02v-.31h1.02v-.31h1.02v-.31h1.02v-.31h1.02v-.31h1.02v-.31h1.02v-.31h1.02v-.31h1.02v-.31h1.02v-.31h1.02v-.31h1.02v-.31h1.02v-.31h1.02v-.31h1.02v-.31h1.02v-46.09h-29.78v-34.03H101.1v.43h-.45v.43h-.45v.43h-.45v.43h-.45v.43h-.45v.43h-.45v.43h-.45v.43h-.45v.43h-.45v.37h-.17v.06h-.28v.37h-.17v.06h-.29v.36h-.16v.07h-.29v.35h-.15v.08h-.3v.35h-.15v.08h-.31v.34h-.14v.09h-.31v.34h-.13v.1h-.32v.33h-.13v.1h-.33v.32h-.12v.11h-.33v.32h-.12v.11h-.34v.31h-.11v.12h-.34v.3h-.1v.13h-.35v.3h-.1v.13h-.36v.29h-.09v.14h-.36v.28h-.08v.15h-.37v.28h-.08v.15h-.38v.27h-.07v.16h-.38v.27h-.06v.17h-.39v.26h-.06v.17h-.4v.25h-.05v.18h-.4v.25h-.05v.18h-.41v.24h-.04v.19h-.41v.23h-.03v.2h-.42v.23h-.03v.2h-.43v.22h-.02v.21h-.43v.21h-.01v.22h-.44v.21h0v.22h-.45v.2h0v.23h-.45v.43h-.45v.43h-.45v.43h-.45v.43h-.45v.43h-.45v.43h-.45v.43h-.45v.43h-.45v.43h-.45v.43h-.45v.43h-.45v.43h-.45v.43h-.45v.43h-.45v.43h-.45v.43h-.45v.43h-.45v.43h-.45v.43h-.45v.43h-.45v.43h-.45v.43h-.45v.43h-.45v.43h-.45v.43h-.45v.43h-.45v.43h-.45v.43h-.45v.43h-.45v.43h-.45v.43h-.25s-.2,0-.2,0v.42h-.24s-.21,0-.21,0v.42h-.24s-.21.01-.21.01v.41h-.23v.02h-.22v.4h-.23v.03h-.23v.4h-.22v.03h-.23v.39h-.21v.04h-.24v.39h-.21v.05h-.25v.38h-.2v.05h-.25v.37h-.19v.06h-.26v.37h-.19v.06h-.27v.36h-.18v.07h-.27v.35h-.18v.08h-.28v.35h-.17v.08h-.28v.34h-.16v.09h-.29v.33h-.16v.1h-.3v.33h-.15v.1h-.3v.32h-.14v.11h-.31v.32h-.14v.12h-.32v.31h-.13v.12h-.32v.3h-.12v.13h-.33v.3h-.12v.13h-.34v.29h-.11v.14h-.34v.28h-.11v.15h-.35v.28h-.1v.15h-.35v.27h-.09v.16h-.36v.26h-.09v.17h-.37v.26h-.08v.17h-.37v.25h-.07v.18h-.38v.25h-.07v.19h-.39v.24h-.06v.19h-.39v.23h-.05v.2h-.4v.23h-.05v.2h-.41v.22h-.04v.21h-.41v.21h-.04v.42h-.45v.42h-.45v.42h-.45v.42h-.45v.42h-.45v.42h-.45v.42h-.45v.42h-.45v137.95h303.34v-.18h1.02v-.18h1.02v-.18h1.02v-.18h1.02v-.18h1.02v-.18h1.02v-.18h1.02v-.18h1.02v-.18h1.02v-.18h1.02v-.18h1.02v-.18h1.02v-.18h1.02v-.18h1.02v-.18h1.02v-.18h1.02v-.18h1.02v-.18h1.02v-.18h1.02v-.18h1.02v-.18h1.02v-.18h1.02v-.18h1.02v-.18h1.02v-.18h1.02v-.18h1.02v-.18h1.02v-.18h1.02v-.18h1.02v-.18h1.02v-.18h1.02v-.18h1.02v-.18h1.02v-.18h1.02v-.18h1.02v-.18h1.02v-.18h1.02v-.18h1.02v-.18h1.02v-.18h1.02v-.18h1.02v-.18h1.02v-.18h1.02v-.18h1.02v-.18h1.02v-.18h1.02v-.18h1.02v-.18h1.02v-.18h1.02v-.18h1.02v-.18h1.02v-.18h1.02v-.18h1.02v-.18h1.02v-.18h1.02v-.18h1.02v-.18h1.02v-.18h1.02v-.18h1.02v-.18h1.02v-.18h1.02v-.18h1.02v-.18h1.02v-.18h1.02v-.18h1.02v-.18h1.02v-.18h1.02v-.18h1.02v-.18h1.02v-.18h1.02v-.18h1.02v-.18h1.02v-.18h1.02v-.18h1.02v-.18h1.02v-.18h1.02v-.18h1.02v-.18h1.02v-.18h1.02v-.18h1.02v-.18h1.02v-.18h1.02v-.18h1.02v-.18h1.02v-.18h1.02v-.18h1.02v-.18h1.02v-.18h1.02v-.18h1.02v-.18h1.02v-.18h1.02v-.18h1.02v-.18h1.02v-.18h1.02v-.18h1.02v-.18h1.02v-.18h1.02v-.18h1.02v-.18h1.02v-.18h1.02v-.18h1.02v-52.43h-29.68Zm-172.46-106.31h42.54v4.25h4.25v12.76h-4.25v8.51h4.25v17.01h-17.01v-17.01h-12.76v17.01h-17.01v-42.54Zm-51.04,4.25h4.25v-4.25h38.28v4.25h4.25v38.28h-17.01v-17.01h-12.76v17.01h-17.01v-38.28Zm-51.04-4.25h17.01v34.03h12.76v-34.03h17.01v38.28h-4.25v4.25h-38.28v-4.25h-4.25v-38.28Zm-51.04,4.25h4.25v-4.25h38.28v4.25h4.25v12.76h-17.01v-8.51h-12.76v25.52h12.76v-8.51h17.01v12.76h-4.25v4.25h-38.28v-4.25h-4.25v-34.03Zm81.63,110.01h-7.42v7.42h-7.42v7.42h-66.79v-74.21h66.79v7.42h7.42v7.42h7.42v44.53Zm29.68,14.84h-22.26v-14.84h22.26v14.84Zm89.05-7.42h-7.42v7.42h-66.79v-7.42h-7.42v-59.37h7.42v-7.42h66.79v7.42h7.42v59.37Zm50.59-117.44h4.25v-4.25h42.54v8.51h-29.78v8.51h12.76v8.51h-12.76v8.51h29.78v8.51h-42.54v-4.25h-4.25v-34.03Zm-20.9,124.86h-22.26v-14.84h22.26v14.84Zm3.89-86.57h-17.01v-34.03h-12.76v-8.51h42.54v8.51h-12.76v34.03Zm85.16,27.2h-51.95v14.84h44.53v7.42h7.42v29.68h-7.42v7.42h-74.21v-14.84h51.95v-14.84h-44.53v-7.42h-7.42v-29.68h7.42v-7.42h74.21v14.84Zm-17.11-27.2v-42.54h17.01v34.03h29.78v8.51h-46.79Zm46.79,86.57h-22.26v-14.84h22.26v14.84Z"/>
</svg>