<?xml version="1.0" encoding="UTF-8"?>
<svg id="Capa_1" data-name="Capa 1" xmlns="http://www.w3.org/2000/svg" viewBox="0 0 510.13 510.13">
  <defs>
    <style>
      .cls-1 {
        isolation: isolate;
      }

      .cls-2 {
        fill: none;
      }

      .cls-2, .cls-3 {
        stroke-width: 0px;
      }

      .cls-3 {
        fill: #fff;
      }
    </style>
  </defs>
  <g>
    <path class="cls-3" d="m104.02,297c.26-.15.52-.26.72,0h0c-.21-.31-.46-.26-.72,0Z"/>
    <path class="cls-3" d="m103.66,297.1c.05,0,.1.05.15.05s.05,0,.05-.05c-.05.05-.1.05-.21,0h0Z"/>
    <path class="cls-3" d="m134.52,281.15s0,.05.05.1c-.05-.05-.05-.1-.05-.1Z"/>
    <path class="cls-3" d="m101.49,218.7c.05,0,.1.05.15.1-.05-.05-.1-.1-.15-.1Z"/>
    <path class="cls-3" d="m101.18,296.59c-.05.05-.1.1-.1.21.05-.1.05-.15.1-.21Z"/>
    <path class="cls-3" d="m124.67,224.59h0c-.05.05-.05.1-.1.15.1-.05.1-.1.1-.15h0Z"/>
    <path class="cls-3" d="m123.74,225.15c.1,0,.21-.05.31-.05-.05,0-.21.05-.31.05.05,0,0,0,0,0h0Z"/>
    <path class="cls-3" d="m128.9,226.45c-.15.05-.31.1-.41.15.15,0,.26-.1.41-.15Z"/>
    <path class="cls-3" d="m124.82,224.48l-.05.05s.05,0,.05-.05Z"/>
    <path class="cls-3" d="m105.16,297.1c.15,0,.31,0,.46.05-.1-.05-.31-.05-.46-.05Z"/>
    <path class="cls-3" d="m80.9,223.97c.05.05.05.1.05.15.1-.1.26-.1.41,0,.21.1.46.15.72.21-.15-.15-.57-.1-.46-.52-.21.21-.46.21-.72.15h0Z"/>
    <path class="cls-3" d="m77.91,226.5c0-.05.05-.1.1-.15-.1.05-.1.1-.1.15Z"/>
    <path class="cls-3" d="m143.3,255.4c.15-.05.26-.05.41-.05-.15,0-.26.05-.41.05Z"/>
    <path class="cls-3" d="m69.13,277.8c.15.1.26.31.36.36-.15-.05-.21-.26-.36-.36Z"/>
    <path class="cls-3" d="m124.92,224.48c.05,0,.15-.05.21,0,0-.05,0-.1.05-.21h0s0,.05-.05.05c-.05.05-.15.1-.21.15Z"/>
    <path class="cls-3" d="m139.69,237.28h0q.05.05,0,0h0Z"/>
    <path class="cls-3" d="m59.22,242.03c.21.1.1.15.05.26-.05.15-.1.31-.15.46-.15.21,0,.36.1.46.1.1.26,0,.41-.15.1-.15.31-.21,0-.41-.1-.05-.1-.26-.05-.36,0-.05.15-.05.21-.05.21,0,.15.15.15.26,0,.26.21.46.31.41.31-.1.41-.52.83-.57,0,0,0-.26.05-.41.05-.21-.1-.57.1-.57.36-.05.31-.31.41-.46.21.05.15.21.15.31-.05.26.15.41.26.52.15.15.15-.1.26-.15.21-.15.05-.31-.05-.52-.41-.67-.36-.83.21-.98-.26-.26-.31-.26-.46-.05-.21.21-.21-.21-.36-.05-.1.05-.15,0-.15-.1-.05-.31-.31-.36-.57-.21-.15.1-.31.31-.46.31-.77.1-1.14.67-1.5,1.29-.1.26-.1.57.26.77h0Z"/>
    <path class="cls-3" d="m151.5,250.81c-.1-.1-.21-.21-.36-.26.36-.21-.1-.72.36-.93.15-.05.21-.26,0-.31-.26-.05-.52-.21-.83-.1-.1,0-.26-.05-.26.1,0,.1-.05.21.1.31.31.26.46.52.15.93-.15.21-.36.46-.26.83-.15-.05-.21-.15-.21-.26.1-.46-.21-.41-.52-.46-.26,0-.36.31-.62.26v.52c-.36,0-.62.31-1.03.26-.05,0-.31.15-.26.41,0,.1.05.21.21.21.36-.05.57.26.93.31-.46.05-.52.26-.46.62,0,.21.1.21.26.26.41.05.57-.26.67-.46.26-.31-.31-.21-.41-.52.31.1.46-.21.72-.26.62-.05,1.08-.46,1.24-1.08.05-.31.15-.36.41-.15.1.1.21.1.31,0,0-.05-.05-.15-.15-.21h0Z"/>
    <path class="cls-3" d="m146.96,237.18c-.21-.26-.31-.26-.52,0-.1.1-.21.21-.26.31-.1.21-.26.21-.41.15-.26-.1,0-.21,0-.26.21-.62-.05-1.03-.67-1.08-.15,0-.26,0-.26-.21-.05-.36-.26-.26-.41-.1-.36.26-.15.62-.21.98,0,.15,0,.26.26.31.21.05.52,0,.57.1.15.31.46.41.72.52.41.21.83.46.52,1.08-.1.21-.15.52.05.72.1.1.36.05.52,0,.26-.15.41-.72.15-.88-.41-.31-.1-.57,0-.88,0,.26.21.41.31.57.21-.21.36-.46.46-.77-.46-.15-.46-.1-.83-.57h0Z"/>
    <path class="cls-3" d="m149.75,249.62c.21-.1.41-.93.21-1.24-.21-.26-.41-.67-.93-.36-.1.05-.41.15-.41-.21,0-.31-.31-.26-.36-.15-.21.36-.36,0-.41-.05-.31-.41-.52.1-.52.15.1.46-.21.67-.57.83.72.41,1.14.31,1.34-.21.05.26.05.31.05.41.1.67.98,1.19,1.6.83h0Z"/>
    <path class="cls-3" d="m62.53,264.9c.05,0,.05-.26,0-.31-.36-.41.1-.36.21-.52.1-.1.15-.15.21-.26v-.46c-.05-.26-.36-.15-.36-.1-.05.36-.36.46-.46.72-.21.41-.57.46-.88.1h0c0-.26,0-.46-.36-.52.1-.21.41-.1.36-.41-.05-.15-.1-.21-.21-.21-.41,0-.77-.05-1.29.1.72.26.1.83.52,1.08-.15.21-.46-.1-.62.26-.1.26.15.36.26.41.41.26.67-.05.88-.31.21.1.1.26.15.41,0,.1,0,.26.1.26.52-.05.93.46,1.5.15-.05-.05-.36-.21,0-.41h0Zm-1.24-.77h0Z"/>
    <path class="cls-3" d="m98.91,298.03h1.14c.26,0,.1-.41.36-.52-.05.46.36.31.62.41.15.05.26.31.41.05.21-.26-.15-.31-.15-.46.15.1.26.05.41,0,.05-.15.05-.31-.1-.41s-.21.05-.31.15c-.15.15-.41.05-.46,0-.21-.52-.57-.15-.88-.15-.52,0-.41.31-.26.62-.26-.05-.57-.05-.83-.1-.15.1-.31.36.05.41h0Z"/>
    <path class="cls-3" d="m57.73,262.68c.41-.26.72-.1.88.31.05.05.05.15.1.15.15.1.31.1.52,0,.05,0,.1-.1.15-.15-.21-.05-.05-.41-.36-.36-.31.05-.36-.15-.31-.36.05-.36-.05-.67-.52-.72-.15,0-.1-.15-.15-.26-.05-.21-.21-.46-.36-.31-.15.1-.57.36-.26.67.21.21.1.36,0,.52-.1.1-.31.26-.15.41.1.21.36.15.46.1h0Z"/>
    <path class="cls-3" d="m55.61,257c.31,0,.46-.26.52-.77.15.62.52.52.83.46.26,0,.36-.1.15-.46-.15-.36-.52-.46-.77-.77-.05.26.05.67-.36.31-.1-.05-.46-.21-.67.05-.31.31,0,.57.05.88-.1.21.05.31.26.31h0Z"/>
    <path class="cls-3" d="m146.65,267.94c-.26-.1-.52-.15-.83-.05-.46.21-.77-.1-1.08-.31-.15-.1-.26-.36-.46-.21-.05.05-.52.21-.1.46.05.05-.05.1-.1.15-.15.15-.1.31-.05.46.1.21.26,0,.41.05.21.05.36-.05.52-.15.21-.1.52-.15.57,0,.31.57.57.15.83,0,.15-.1.36.05.41-.15.05-.15,0-.21-.1-.26h0Z"/>
    <path class="cls-3" d="m64.13,256.95c-.26-.31-.62-.31-.93-.21-.36.1.05.31-.05.46-.05.15-.05.31-.21.36-.26.05-.21-.15-.21-.31-.05-.15-.1-.21-.31-.31.1.26.31.52,0,.77-.05.05-.05.21.05.21.31,0,.57.46.93.05.21-.26.46-.46.72-.67.1-.1.1-.26,0-.36h0Z"/>
    <path class="cls-3" d="m151.81,246.88c-.21-.1-.26.05-.31.1-.15.1-.31,1.19-.15,1.34.21.26.46.1.72.1,0-.72.52-1.24.67-1.86-.36.21-.62.46-.93.31h0Z"/>
    <path class="cls-3" d="m139.48,234.5s0,.05,0,0c0,.05.05.05,0,0h0Z"/>
    <path class="cls-3" d="m138.65,235.37c.41-.1.77-.21,1.19,0,.1.05.21.05.31-.1.1-.15.41-.1.52-.31.05-.1.1.26.21,0,.05-.1.05-.21-.1-.26-.31-.05-.26-.1,0-.21.26-.1.15-.31.1-.46-.05-.15-.26-.1-.36-.05-.21.05-.1.26-.1.41,0,.46-.52.21-.72.46-.05.05-.1-.21-.15-.36-.15.21-.36.31-.57.26-.41,0-.62.15-.57.57.05.05.15.05.26.05Z"/>
    <path class="cls-3" d="m150.63,244.72c-.41-.21-.36-.62-.46-1.03-.1.05-.15.1-.21.1-.15.05-.21.36-.41.15-.21-.21,0-.36.1-.46.1-.1.26-.21.31-.41-.36,0-.57.15-.57.52v1.03c0,.15,0,.26.21.26.1.1-.31.26,0,.36.05.05,0,.26.1.26.31-.05.36-.52.83-.46.21.1.15-.26.1-.31h0Z"/>
    <path class="cls-3" d="m143.04,234.24c0-.05-.15.05-.21.15-.1.26.05.36.31.46-.31.05-.36.26-.36.52,0,.31.21.26.36.26.21,0,.15.15.21.26.1.15.21.46.36.31.21-.15.67-.36.41-.72-.15-.21-.36-.41-.46-.67-.05-.31-.52-.26-.62-.57h0Z"/>
    <path class="cls-3" d="m146.76,250.08c-.21.05-.31.21-.36.36-.05.21.1.21.26.26.31.1.15.31,0,.52-.26.31,0,.52.26.57.1.05.26-.15.41-.15.21,0,.36-.21.41-.41.05-.26-.1-.41-.21-.46-.36-.1-.36-.26-.21-.52.05-.05,0-.1,0-.21-.21.05-.41,0-.57.05Z"/>
    <path class="cls-3" d="m145.72,240.74c.46.1.31-.36.52-.52.15-.1.05-.31-.26-.36-.62-.05-1.29.62-1.29,1.29,0,.26.21.52.31.31.15-.31.98.05.67-.62-.05-.05,0-.1.05-.1h0Z"/>
    <path class="cls-3" d="m138.76,233.52s.1-.05.05-.1c-.05-.52.26-1.03-.26-1.5-.1-.1-.21-.26-.36-.21-.21.05-.1.26-.1.36.05.57-.15,1.08-.46,1.7.52-.05.77-.31,1.14-.26h0Z"/>
    <path class="cls-3" d="m63.66,246.57c-.15.26-.15.15-.26-.05-.1-.26-.31-.52-.67-.46s-.52.31-.46.72c0,.1-.05.26,0,.36.1.1.1.36.41.26.36-.1.62-.52,1.08-.46.21,0,.1-.15.1-.26,0-.15-.15-.15-.21-.1h0Z"/>
    <path class="cls-3" d="m70.58,226.5c0-.21.1-.31-.1-.46-.15-.1-.05-.26.05-.21.36.26.62.1.83-.21,0-.05.21.05.31.05.21,0,.41-.05.31-.26-.1-.15-.1-.46-.36-.52-.31-.05-.62-.15-.88.21-.05.1-.15.15,0,.21.21.1.15.31.05.41-.1.1-.26-.05-.36-.15-.05-.1-.1-.15-.21-.1-.05.36-.1.77.36,1.03h0Z"/>
    <path class="cls-3" d="m143.61,238.68c.15-.36.46-.36.77-.46.15-.05.41-.26.21-.57-.26,0-.21.52-.62.26-.26-.15-.67-.15-.21-.57,0,0,0-.1-.05-.1-.15-.1-.26-.36-.57-.15-.41.26-.41.57-.26.93.05.21.31.1.46-.05.05-.05.1,0,.21.05-.21.15-.21.36-.15.57,0,.1.15.15.21.1h0Z"/>
    <path class="cls-3" d="m57.62,260.2c-.15,0-.41-.05-.31-.1.26-.26,0-.62.15-.88.05-.1.26-.05.46-.1-.26-.46-.57-.26-.83-.1-.21.15-.31.46-.57.62-.1.05-.21.57.15.57.46,0,.57.21.67.62-.1-.31.36-.31.26-.62h0Z"/>
    <path class="cls-3" d="m132.41,225.72c.15.1.15.26.1.36-.1.26-.15,0-.26-.05h-.1s-.05.05,0,.1c.1.21.36.21.57.26.1.05.26.05.31-.1.05-.26.1-.46.41-.62.15-.05.05-.31-.05-.46-.15-.15-.36-.26-.67-.21-.21-.05-.41.05-.52.26-.21.26.1.36.21.46h0Z"/>
    <path class="cls-3" d="m153.21,249.88c-.21,0-.26-.1-.31-.31,0-.15-.21-.41-.36-.31-.26.15-.46.41-.67.67-.05.05-.1.26.1.31.41.1.88,0,1.24.31.05,0,.21-.1.31-.15-.36-.05.05-.52-.31-.52h0Z"/>
    <path class="cls-3" d="m140.41,236.2c-.1,1.24,0,1.39.72,1.45,0-.21.1-.15.26-.21.31-.1.67.05,1.03-.1-.46,0-.77-.36-1.24-.31-.1,0-.26,0-.26-.1.15-.57-.36-.46-.52-.72h0Z"/>
    <path class="cls-3" d="m147.07,247.19c.15,0,.36-.1.26-.21-.26-.26-.26-.41,0-.62-.1-.1-.15-.31-.26-.31-.26,0-.52.1-.83.15-.1,0-.15.15-.1.21.31.36-.1.46-.26.77.46-.21.83,0,1.19,0h0Z"/>
    <path class="cls-3" d="m147.89,244.46c.1,0,.26,0,.36-.1.31-.46.57-.93.62-1.45-.21-.05-.21.15-.36.21-.62.1-.77.52-.67,1.08-.05.1-.15.26.05.26h0Z"/>
    <path class="cls-3" d="m128.49,221.28c-.41.21-.67.41-.88.62-.1.15-.26.31-.46.1-.05-.05-.31-.1-.36.1-.05.15-.15.46.1.52.52.05.26.41.26.62.31.15.57-.05.62-.31.15-.52-.52-.1-.57-.46.41-.41,1.14-.41,1.29-1.19h0Z"/>
    <path class="cls-3" d="m80.9,223.97c.26.1.52.1.72-.15,0,0,.05-.05.05-.1h0c-.05-.36.31-.77-.21-1.14-.15-.1-.31-.26-.46-.15-.15.1-.1.31,0,.46.05.05.15.1.05.26-.52,0-.62.26-.36.67.1.05.15.1.21.15h0Z"/>
    <path class="cls-3" d="m58.35,260.66c.1.21.36.46.62.31.21-.1.1-.41.1-.62,0-.15-.36-.05-.31-.31-.26-.1-.46-.21-.72-.36-.26-.15-.36-.1-.36.21v.36c.31-.05.52.05.67.41h0Z"/>
    <path class="cls-3" d="m60.31,238.68c.21,0,.31.15.26.31-.21.52.1.41.41.36.67.31.57-.36.83-.67.1-.1,0-.26-.15-.36-.1-.05-.15-.05-.21.05-.41.46-.52.46-.98.1-.1-.05-.15-.05-.26-.05,0,.1.05.26.1.26Z"/>
    <path class="cls-3" d="m68.05,224.95c-.1.1-.15.26-.1.41.05.15.26.05.36.15.52.05.72-.52,1.24-.41,0,0,.1-.26.05-.31-.05-.1-.15-.05-.26.05-.05.15-.1.05-.21,0-.41-.41-.72-.31-1.08.1h0Z"/>
    <path class="cls-3" d="m78.84,220.72c.21,0,.41.05.52-.15s0-.36-.21-.46c-.31-.15-.05-.31-.05-.57-.21.21-.36.21-.52.05-.05-.05-.21-.05-.26.05-.21.31.1,1.03.52,1.08h0Z"/>
    <path class="cls-3" d="m141.08,237.9c-.72,0-.72.36-.41.83,0,.05-.05.1-.05.21,0,.15,0,.36.15.41.15.05.21-.1.26-.26.15-.46.26-.93.57-1.29v-.1h-.46c0,.05,0,.21-.05.21h0Z"/>
    <path class="cls-3" d="m61.34,267.53c.52,0,.41-.31.41-.62-.05-.21.21-.62-.36-.57-.15,0-.31-.05-.41.15s.15.52-.15.62c.15.1.15.41.52.41Z"/>
    <path class="cls-3" d="m118.68,219.84c.31-.05.46-.36.77-.1.1.1.36,0,.57,0,.1,0,.21-.05.21-.21-.05-.36-.57-.88-.98-.93.15.57-.41.77-.57,1.24h0Z"/>
    <path class="cls-3" d="m144.43,264.95c-.31,0-.67.15-.83.41-.15.26.21.41.31.72.05-.21-.1-.36.15-.41.72-.05.88-.67,1.19-1.14-.31.1-.46.41-.83.41h0Z"/>
    <path class="cls-3" d="m65,252.04c-.41-.1-.72,0-.77.31-.05.21-.1.21-.26.26-.26.1-.36.36-.31.67.05.26.26.15.41.15.26,0,.46-.21.46-.46-.05-.36.1-.67.46-.93h0Z"/>
    <path class="cls-3" d="m97.78,217.46c-.05.15-.05.36-.21.46-.1.05-.1.15,0,.21.05.05.15.1.15.1.26-.26.72-.26.98-.52.21-.15.21-.26-.05-.46-.36-.36-.62-.21-.88.21h0Z"/>
    <path class="cls-3" d="m142.73,269.75c0-.15.05-.21.21-.21.21,0,.21-.1.21-.26,0-.31,0-.67-.41-.67s-.57.26-.52.62c.05.1.05.26.1.36.21-.1.21.26.41.15h0Z"/>
    <path class="cls-3" d="m56.44,255.3c.21,0,.46-.05.57.05.26.26.46.21.67.05.31-.15-.05-.36,0-.52-.41-.05-.83.21-1.24-.05-.05,0-.36-.05-.36.26-.05.31.21.21.36.21h0Z"/>
    <path class="cls-3" d="m144.9,239.19c.05.1.21.41.36.26.21-.21.57-.36.52-.77-.05-.05.1-.31-.1-.36-.21-.05-.57-.05-.52.05.05.31-.46.52-.26.83Z"/>
    <path class="cls-3" d="m128.28,216.54c.26-.05.67-.1.72-.46.05-.36-.36-.05-.46-.26.05-.26.31-.1.41-.26-.15,0-.36-.36-.46-.1s-.36.31-.52.41c-.15.1-.15.15-.15.26.05.26.21.46.46.41h0Z"/>
    <path class="cls-3" d="m110.11,218.45c.26.1.46,0,.57-.26.21.15.15.36.26.52.05.1.1.31.26.26.1,0,.26-.21.31-.31,0-.1-.1-.41-.15-.41-.31,0-.41-.26-.62-.36-.26-.1-.52-.21-.62.15-.1.1-.15.31,0,.41h0Z"/>
    <path class="cls-3" d="m130.34,225.67c.21.31.41-.21.72-.26-.46.05-.52-.26-.52-.57,0-.26-.31-.26-.41-.15-.21.36-.31-.1-.41,0-.41.72.41.67.62.98h0Z"/>
    <path class="cls-3" d="m125.65,220.97c.21-.36.62-.52.77-.88.05-.15.05-.36,0-.41-.72,0-.77,0-.83.57,0,.21-.1.31-.15.46,0,.05,0,.15.05.21-.05.1.1.1.15.05h0Z"/>
    <path class="cls-3" d="m58.96,255.71c.1,0,.31-.15.41-.26.15-.15.26-.41-.1-.46-.26,0-.26-.15-.31-.31-.05-.1-.05-.26-.21-.26-.21,0-.1.21-.15.31v.31c0,.26-.31.83.36.67h0Z"/>
    <path class="cls-3" d="m147.12,254.11v.05c.05.15.21.26.31.36.1-.15.36-.21.31-.46-.05-.21,0-.36.15-.57-.1,0-.15-.05-.26,0-.26.05-.62-.15-.83.1-.21.31.36.26.31.52h0Z"/>
    <path class="cls-3" d="m146.65,247.45c-.77-.1-.77-.05-1.03.15s-.1.46-.1.72c0,.1.1.15.15.15.26,0,.36-.21.46-.41.15-.21.26-.41.52-.62h0Z"/>
    <path class="cls-3" d="m110.78,212.35c.21.05.31.26.52.21.21-.1.46-.31.41-.57,0-.1.15-.41-.15-.46s-.15.26-.31.31c-.15-.05-.15-.31-.31-.31-.26.21-.1.52-.15.83h0Z"/>
    <path class="cls-3" d="m123.17,219.68c.1.1.26.1.36-.05.31-.26.62-.1.93.05.05-.57-.15-.77-.67-.62-.1.05-.15.05-.31,0-.26-.1-.15.31-.36.26,0,.15,0,.31.05.36h0Z"/>
    <path class="cls-3" d="m122.14,219.43v.26c-.05.26.15.36.31.52s.26-.1.36-.21c.21-.15.15-.31,0-.52-.05-.05-.1-.1-.1-.1,0-.26-.05-.36-.31-.31-.36-.05-.21.21-.26.36h0Z"/>
    <path class="cls-3" d="m62.84,265c-.05.1-.05.26.15.31.26,0,.26-.15.26-.31s0-.36.05-.41c.26-.05.36-.21.21-.41-.1-.15-.26-.36-.46-.31-.1.1-.15.15-.21.26-.05.26.21.52,0,.88h0Z"/>
    <path class="cls-3" d="m144.23,269.7c.15-.15.31-.26.52-.36.1-.05.21-.05.15-.21-.05-.1-.15-.05-.21,0-.21.05-.46.05-.62-.21,0,.31.05.52-.26.67-.36.21-.15.41.05.62.1.1.21.1.26,0,.05-.05.05-.21,0-.26-.31-.1.05-.21.1-.26h0Z"/>
    <path class="cls-3" d="m147.79,254.78c-.26,0-.62.15-.62.46,0,.15.1.52.46.52.41,0,.31-.26.31-.52-.05-.1.21-.46-.15-.46h0Z"/>
    <path class="cls-3" d="m148.72,236.87c0,.15.15.1.26.15.21,0,.36,0,.52-.1.36-.21.77-.41,1.34-.31-.26-.1-.31-.26-.46-.21-.41.15-.88.05-1.29.1-.05,0-.1.05-.21.1-.15,0-.15.1-.15.26h0Z"/>
    <path class="cls-3" d="m60.46,261.85c.15.1.31.31.46.15.21-.26.83-.26.57-.83-.26.1-.52.26-.83.21-.1,0-.21-.05-.26.1s-.1.26.05.36h0Z"/>
    <path class="cls-3" d="m149.54,240.95c.1-.05.41.15.31-.15-.05-.26-.05-.62-.46-.62-.26,0-.52.15-.52.41.05.31.36.41.67.36h0Z"/>
    <path class="cls-3" d="m136.49,280.59c-.36.05-.21.41-.26.62-.05.31.26.46.52.46s.26-.31.26-.41c-.05-.31-.15-.62-.52-.67h0Z"/>
    <path class="cls-3" d="m123.84,217.15c.26-.05.57-.1.62-.57.05-.21-.21-.31-.36-.31-.26,0-.46.26-.57.52-.05.15.05.41.31.36h0Z"/>
    <path class="cls-3" d="m69.39,230.83c-.05,0-.15.31.05.36.1.05.15.05.21.15s.21.26.26.21c.1-.1.31-.15.26-.41-.05-.21-.05-.41-.05-.62-.26-.05-.41.31-.72.31h0Z"/>
    <path class="cls-3" d="m111.35,217.46c.31-.05.52-.31.62-.57.05-.15-.15-.36-.31-.31-.21.05-.67-.05-.46.57,0,0-.26.36.15.31h0Z"/>
    <path class="cls-3" d="m97.73,218.81c-.05.21.05.31.26.26.31-.05.57-.1.57-.52,0-.21.05-.36-.26-.36-.31.05-.52.26-.57.62h0Z"/>
    <path class="cls-3" d="m119.3,294.73c-.52.05-.72.41-.67.98.15-.05.46.05.46-.21,0-.52.31-.26.46-.26.05-.26.21-.57-.26-.52h0Z"/>
    <path class="cls-3" d="m60.56,256.17c0,.21.1.31.36.31.31-.05.67,0,.72-.46.05-.52-.41.05-.46-.21-.15.26-.62-.05-.62.36h0Z"/>
    <path class="cls-3" d="m103.51,298.08c-.21-.1-.31,0-.31.26,0,.57.36.26.57.26.57.05.62-.05.36-.57-.21,0-.41.15-.62.05h0Z"/>
    <path class="cls-3" d="m113.98,215.86c.26,0,.52-.15.57-.46.05-.26-.26-.26-.41-.36-.31.05-.52.26-.52.52-.05.21.26.31.36.31h0Z"/>
    <path class="cls-3" d="m62.27,245.13c.26-.36.62-.67.05-1.08-.05-.05,0-.21-.05-.31-.21-.21-.26,0-.31.15-.05.26.1.31.31.31.1,0,.15.05.1.15-.21.26-.1.67-.62.83.26.05.36.15.52-.05h0Z"/>
    <path class="cls-3" d="m117.7,215.86c.21-.05.52-.15.57-.41s-.31-.31-.46-.31-.46,0-.46.36c0,.21.05.36.36.36h0Z"/>
    <path class="cls-3" d="m63.25,269.18c.1-.26-.1-.46-.31-.57-.05,0-.36.15-.31.36.05.26.1.57.36.67.31.1.21-.21.26-.46h0Z"/>
    <path class="cls-3" d="m115.12,296.9c-.1.05-.21.21-.31.05-.1-.15-.21-.05-.31.05-.05.1-.15.26-.1.31.05.1.21.15.31.21.21-.1.36-.21.57-.21.1,0,.26.15.31-.1.05-.1,0-.15-.05-.21-.15-.1-.26-.15-.41-.1h0Z"/>
    <path class="cls-3" d="m148.2,255.24c0,.31.41.26.57.46,0-.21.31-.26.26-.52s-.26-.36-.46-.46c-.15.15-.41.26-.36.52h0Z"/>
    <path class="cls-3" d="m149.65,253.49c-.15.36-.41.15-.67.21-.15,0-.15.1-.15.21,0,.21.21.31.36.41.1.05.36.05.36-.05-.05-.31.36-.41.21-.72,0,0-.05,0-.1-.05h0Z"/>
    <path class="cls-3" d="m132.46,223.04c.26-.05.52-.1.62-.36,0-.26-.1-.41-.31-.36-.31,0-.52.21-.62.46-.1.21.21.26.31.26h0Z"/>
    <path class="cls-3" d="m142.68,271.55c-.1.05-.21.05-.15-.1,0-.36-.21-.31-.41-.26-.15,0-.15.15-.1.26.1.15.36.41.41.41.31-.21.62,0,.98.1q-.31-.57-.72-.41h0Z"/>
    <path class="cls-3" d="m144.9,242.39c-.05.05-.1.26.05.36.1.05.21.15.36.1.15-.1.05-.26.1-.36,0-.1-.15-.21-.05-.36,0-.21-.05-.36-.21-.41-.1-.05-.21-.05-.26,0-.05.1-.1.26,0,.41s.1.15,0,.26h0Z"/>
    <path class="cls-3" d="m149.03,238.32c-.41-.05-.26.36-.36.62-.05.15-.1.21.1.21.1,0,.15.05.1.15-.05.15-.21.31.1.36.26,0,.1-.21.15-.36v-.36c-.1-.15.15-.57-.1-.62h0Z"/>
    <path class="cls-3" d="m68.51,279.66c-.05-.26-.21-.31-.36-.21-.46.31.31.41.15.77-.05.15.05.31.26.31.15,0,.26-.1.26-.31.05-.31-.31-.36-.31-.57h0Z"/>
    <path class="cls-3" d="m62.63,242.96c.05.05.15-.05.21-.1.1-.21.15-.41-.05-.57-.15.21-.41-.31-.57.1-.05.1-.21.21-.31.31.15.26.52,0,.72.26Z"/>
    <path class="cls-3" d="m105.98,213.75c.36,0,.46-.21.62-.41.05-.26-.21-.36-.31-.31-.21.05-.57,0-.57.41.05.15,0,.31.26.31h0Z"/>
    <path class="cls-3" d="m135.35,232.12c.15.1.21-.05.31-.1.21-.15,0-.52.31-.62.05,0-.05-.21-.21-.15-.21.1-.52.15-.62.46-.1.21.05.31.21.41h0Z"/>
    <path class="cls-3" d="m84.36,221.18c.21-.1.46-.21.72-.31-.31-.21-.67-.05-.93-.36,0,0-.1,0-.15.05-.05.1-.31.15-.15.31.21.1.15.46.52.31Z"/>
    <path class="cls-3" d="m127.92,288.84c-.15,0-.26,0-.31.21,0,.26.41.41.15.72.05,0,.1.05.15.05.21-.1.41-.26.52-.52-.21-.15-.21-.46-.52-.46h0Z"/>
    <path class="cls-3" d="m63.35,248.17c-.26-.05-.57-.1-.88.05-.05.05-.15.15-.15.21,0,.1.15.1.21.1.31.21.62-.05.88,0,.05-.1.15-.36-.05-.36h0Z"/>
    <path class="cls-3" d="m143.71,267.27c.21-.31.46-.15.72-.21.15,0,.15-.15.15-.26.05-.1-.1-.15-.21-.15h-.67c-.21.05-.21.21-.15.41.05.1.1.31.15.21h0Z"/>
    <path class="cls-3" d="m146.09,256.02c-.05-.21.05-.52-.31-.57-.21.1-.36.26-.31.52.05.15-.1.46.21.41.31,0,.46-.21.41-.36h0Z"/>
    <path class="cls-3" d="m61.6,248.48c.05-.31-.15-.52-.41-.57-.31-.05-.21.21-.26.41-.1.36.21.36.46.41.26.05.21-.1.21-.26Z"/>
    <path class="cls-3" d="m112.38,214.94c.21-.05.41-.15.36-.31-.05-.15.1-.52-.26-.41-.21.05-.52.1-.52.41s.36.1.41.31h0Z"/>
    <path class="cls-3" d="m145.31,259.27c0-.36-.36-.41-.57-.46s-.26.15-.26.36c0,.62.62,0,.72.36.1-.05.05-.21.1-.26h0Z"/>
    <path class="cls-3" d="m138.6,278.57s-.31.15-.26.31c.1.21-.05.62.41.62.26,0,.21-.21.21-.31.05-.31-.21-.46-.36-.62h0Z"/>
    <path class="cls-3" d="m101.7,216.28c.31-.26.62-.31.67-.72,0-.15,0-.26-.05-.31-.1-.1-.15.1-.21.1-.62.1-.36.52-.41.93h0Z"/>
    <path class="cls-3" d="m63.45,262.06c.21,0,.31-.05.31-.31s-.1-.41-.41-.31c-.05,0-.31-.15-.31.21,0,.26.15.36.41.41h0Z"/>
    <path class="cls-3" d="m58.76,270.01h0c0-.05-.05-.05,0,0h0Z"/>
    <path class="cls-3" d="m58.6,269.23c-.21.36.1.52.15.72.46-.1.57-.21.57-.72-.26.1-.52.36-.72,0Z"/>
    <path class="cls-3" d="m141.9,274.5c-.21,0-.15.15-.15.26-.05.31-.05.62.26.93,0-.31-.15-.62.26-.77.1,0,.05-.26,0-.41-.05-.05-.21,0-.36,0Z"/>
    <path class="cls-3" d="m61.34,242.81c-.36.15-.41.46-.31.83.15-.1.26-.21.41-.21.36-.1.15-.36.15-.52,0-.21-.21-.15-.26-.1h0Z"/>
    <path class="cls-3" d="m68.36,226.29c-.15-.05-.21.05-.21.21s.1.21.21.21h.72c.15-.72-.41-.36-.72-.41h0Z"/>
    <path class="cls-3" d="m81.98,222.42c.15.05.26-.05.21-.21,0-.26-.21-.41-.41-.46-.1,0-.36,0-.36.26.05.31.31.36.57.41h0Z"/>
    <path class="cls-3" d="m148.2,249.83c0-.21-.1-.21-.26-.21h-.77c-.05.26.26.26.21.41h.57c.1.05.26.05.26-.21h0Z"/>
    <path class="cls-3" d="m113.47,217.72c.15,0,.31,0,.41-.05.1-.1-.05-.21-.1-.31-.15-.15-.21-.41-.36-.57-.05,0-.1,0-.1.05v.67c-.05.05-.05.21.15.21h0Z"/>
    <path class="cls-3" d="m119.81,220.82c0,.21.1.36.36.31.21,0,.41,0,.46-.26,0-.26-.21-.26-.41-.26-.15,0-.41-.05-.41.21h0Z"/>
    <path class="cls-3" d="m68.93,278.57h0c-.15-.36-.41-.05-.57-.05-.1,0-.21.26-.15.41.1.31.41.15.62.21h0c.1-.21-.05-.41.1-.57h0Z"/>
    <path class="cls-3" d="m128.33,222.63c.21,0,.46,0,.41-.26,0-.21-.15-.36-.36-.31s-.46.1-.46.36c.05.15.26.26.41.21h0Z"/>
    <path class="cls-3" d="m97.11,217.77c.26-.05.46-.15.67-.36-.21-.21-.52-.21-.77-.15-.21,0-.21.21-.21.36,0,.26.21.21.31.15h0Z"/>
    <path class="cls-3" d="m133.44,283.58c-.21.1-.52.15-.57.46-.05.21.1.26.31.26.26-.05.36-.31.41-.57.05-.05,0-.21-.15-.15h0Z"/>
    <path class="cls-3" d="m149.03,241.46c-.05-.1-.15-.26-.31-.15-.26.21-.31.52-.52.77-.05.05,0,.1.1.1.15.05.77-.62.72-.72h0Z"/>
    <path class="cls-3" d="m143.3,230.42c-.62.1-.41-.31-.52-.57-.26.21-.57.36-.36.67.21.41.52.15.88-.1h0Z"/>
    <path class="cls-3" d="m61.49,257.67c.05-.05-.05-.26-.15-.31-.1-.05-.26-.05-.36.05-.15.15-.36.26-.62.41h.77c.15.05.31,0,.36-.15h0Z"/>
    <path class="cls-3" d="m62.68,260.25c.15,0,.41-.05.36-.21-.1-.21-.36-.36-.57-.46-.15-.1-.21.05-.15.15.05.21-.05.57.36.52h0Z"/>
    <path class="cls-3" d="m73.93,228.51c-.26,0-.46,0-.52.26-.05.21.21.21.31.36.1-.26.52-.05.57-.41,0-.26-.21-.15-.36-.21h0Z"/>
    <path class="cls-3" d="m151.04,241.88c-.15-.21-.21-.41-.46-.46-.26,0-.36.21-.31.41s.21.36.46.36c.21-.05.1-.31.31-.31h0Z"/>
    <path class="cls-3" d="m67.64,277.23c0-.21-.05-.31-.15-.26-.26.1-.46.26-.57.46-.05.15.1.26.26.26.26-.05.41-.26.46-.46h0Z"/>
    <path class="cls-3" d="m127.09,290.13c-.1-.05-.31-.26-.52-.1,0,.26.21.31.31.46.1.15.26.26.46.31l.05-.1c-.05-.21-.15-.41-.31-.57h0Z"/>
    <path class="cls-3" d="m93.6,218.6c.1,0,.26-.15.26-.41-.1-.21-.31-.31-.52-.36-.05,0-.26.05-.21.15.1.31.21.62.46.62h0Z"/>
    <path class="cls-3" d="m55.82,261.02c.26.57.41.62.98.26-.26-.31-.62-.36-.98-.26Z"/>
    <path class="cls-3" d="m121.78,293.28c-.21.05-.26.26-.1.41.15.21.36.36.67.31,0-.26-.21-.31-.21-.52,0-.36-.21-.26-.36-.21h0Z"/>
    <path class="cls-3" d="m76,224.23c-.1-.15-.36.05-.36.05-.21.26-.05.52,0,.77.46-.52.52-.62.36-.83h0Z"/>
    <path class="cls-3" d="m142.42,236.77c.1-.05.41.1.41-.15-.05-.26-.41-.21-.62-.36-.15-.1-.21.05-.21.26-.05.36.21.26.41.26h0Z"/>
    <path class="cls-3" d="m104.38,298.39c0,.21.1.31.31.26.15-.05.31-.05.31-.26s-.05-.36-.26-.36h-.36c0,.15,0,.26,0,.36Z"/>
    <path class="cls-3" d="m150.63,246.16c-.05-.1-.21-.26-.26-.36-.1.1-.26.21-.31.31-.05.21,0,.41,0,.67.26-.05.15-.36.41-.41,0,0,.26-.05.15-.21h0Z"/>
    <path class="cls-3" d="m145.31,236.04c.1,0,.31.05.31-.15-.05-.31.26-.21.46-.31-.31-.26-.52-.15-.77.05-.15.1-.21.15-.21.31,0,.05.1.1.21.1h0Z"/>
    <path class="cls-3" d="m147.38,235.27c.1-.05.1-.21,0-.26-.1-.1-.15,0-.21.05-.31.15-.52.41-.67.72.36-.1.62-.26.88-.52h0Z"/>
    <path class="cls-3" d="m121.52,216.74c.21-.05.31-.21.41-.36-.05-.21-.15-.31-.36-.26-.26,0-.31.15-.31.41.05.15.1.21.26.21h0Z"/>
    <path class="cls-3" d="m79.87,223.97h0c.1-.1.36-.21.26-.46-.05-.1-.05-.15-.15-.1-.31.1-.57.21-.62.57.21.1.36.05.52,0h0Z"/>
    <path class="cls-3" d="m151.56,242.65c.41.26.62.05.83-.21.05-.1,0-.26-.15-.31-.57-.15-.31.52-.67.52Z"/>
    <path class="cls-3" d="m85.03,220.41c.15-.1.21-.36.46-.31.05-.1.05-.26-.15-.21-.21.05-.41.1-.57.21-.1.05-.31.15-.21.36.1.1.31.05.46-.05Z"/>
    <path class="cls-3" d="m67.94,222.16c-.05-.36,0-.62.57-.67-.52-.31-.77-.1-.93.1-.1.15.05.46.36.57h0Z"/>
    <path class="cls-3" d="m60.87,271.19c-.05.1.05.21.15.26.05,0,.15-.05.15-.1.05-.36.36-.62.15-1.08-.31.31-.36.62-.46.93h0Z"/>
    <path class="cls-3" d="m111.92,215.71c.1.05.26.15.31-.1,0-.21-.05-.21-.21-.26-.41-.1-.57.21-.93.46.36-.05.57-.21.83-.1h0Z"/>
    <path class="cls-3" d="m127.2,219.12c0,.1.05.15.15.15.05,0,.1,0,.15-.1.31-.52.21-.67-.52-.77.31.26.15.52.21.72h0Z"/>
    <path class="cls-3" d="m142.73,234.24v-.15c-.05-.1-.1,0-.15,0-.31.1-.62.26-.93.36.31.21.88.1,1.08-.21h0Z"/>
    <path class="cls-3" d="m96.28,297.88c-.26,0-.26.21-.31.41-.05.21.05.21.21.26.21,0,.31-.05.36-.31,0-.21-.05-.36-.26-.36Z"/>
    <path class="cls-3" d="m63.4,255.55c-.21.05-.46.1-.46.41,0,.15.1.36.21.31.21-.1.31-.31.46-.46-.05-.21-.05-.31-.21-.26Z"/>
    <path class="cls-3" d="m144.38,231.5c.21-.15.52-.15.57-.46,0-.1-.15-.21-.31-.15-.21.05-.41.15-.46.41,0,.1.05.26.21.21h0Z"/>
    <path class="cls-3" d="m150.21,242.03c-.31.26-.77.21-1.08.57.72.1,1.03-.1,1.08-.57Z"/>
    <path class="cls-3" d="m148.72,250.55c.05,0,.15,0,.21-.05.15-.1.1-.26.05-.36s-.26-.1-.31,0c-.1.26-.1.57,0,.83.05.21.26-.1.41-.05.05-.26-.31-.15-.36-.36h0Z"/>
    <path class="cls-3" d="m141.08,273.41c0,.1.26.15.46.21.05-.31.15-.57-.05-.83-.31.15-.46.36-.41.62h0Z"/>
    <path class="cls-3" d="m63.25,244.97c.05.31-.15.62.1.88.05.05.21.05.26-.1.1-.26,0-.52-.36-.77Z"/>
    <path class="cls-3" d="m55.82,257.88c0-.05-.21-.21-.31-.26-.1.15-.36.21-.31.46,0,.15,0,.31.15.36.1-.26.41-.36.46-.57h0Z"/>
    <path class="cls-3" d="m146.96,252.1c-.21-.05-.26.21-.36.31.31.05.05.46.31.46.31,0,.1-.26.21-.41-.05-.05.1-.31-.15-.36h0Z"/>
    <path class="cls-3" d="m151.3,255.86c.05-.36-.15-.57-.36-.93-.31.62-.21.83.36.93Z"/>
    <path class="cls-3" d="m63.45,248.59c.05.15-.1.36.15.41.26.05.31-.21.46-.31.05-.05.05-.21.05-.36-.31-.1-.46.21-.67.26h0Z"/>
    <path class="cls-3" d="m150.11,257.41c0-.1-.05-.15-.15-.15s-.1.05-.15.15c-.15.41.05.57.41.83-.05-.31-.05-.57-.1-.83Z"/>
    <path class="cls-3" d="m149.8,256.23c-.52.15-.26-.31-.41-.46.05.26-.41.05-.31.36.05.15.15.36.26.41.26.15.31-.15.46-.31h0Z"/>
    <path class="cls-3" d="m86.06,220.41c.15-.1.15-.31.05-.41-.21-.15-.41-.05-.62.05.1.26.15.67.57.36h0Z"/>
    <path class="cls-3" d="m138.34,227.94c.15-.26.21-.52,0-.77-.21.21-.46.31-.31.67.05.15.26.21.31.1h0Z"/>
    <path class="cls-3" d="m69.13,226.7c.05.15-.1.36.15.41.26.05.31-.21.46-.31.05-.05.05-.21.05-.36-.31-.05-.46.26-.67.26h0Z"/>
    <path class="cls-3" d="m59.84,243.79c.36-.05.52-.36.83-.57-.52,0-1.03-.21-.83.57Z"/>
    <path class="cls-3" d="m122.09,221.59c-.1.46.46.31.52.72.15-.46.05-.67-.21-.88-.1-.05-.26.05-.31.15Z"/>
    <path class="cls-3" d="m57.98,254.88c.15,0,.36.05.31-.21,0-.15.05-.36-.05-.41-.15-.05-.31.05-.41.26-.05.1-.21.21-.15.36.1,0,.21,0,.31,0h0Z"/>
    <path class="cls-3" d="m120.8,220.82c.26-.1.57-.05.52-.46-.05-.26-.26-.21-.36-.15-.36.1-.15.36-.15.62Z"/>
    <path class="cls-3" d="m151.3,236.46c.15,0,.36.05.52-.05-.1-.21-.36-.05-.41-.21-.05-.1,0-.36-.26-.15-.1.05-.26.05-.26.26.1.21.26.15.41.15h0Z"/>
    <path class="cls-3" d="m139.74,238.47h0c.15.1.36.21.52,0,.1-.1.1-.26,0-.41-.15-.21-.31-.1-.52,0h0c-.1.15-.1.31,0,.41h0Z"/>
    <path class="cls-3" d="m71.76,283.53c-.15.1-.21.26-.15.41.05.15.1.21.26.21.21,0,.26-.15.26-.31v-.21c-.05-.05-.1-.1-.1-.1-.1-.05-.21-.05-.26,0h0Z"/>
    <path class="cls-3" d="m121.21,294.16c.1.21.21.41.46.46.21.05.15-.21.26-.26-.21-.1-.36-.26-.52-.36-.15,0-.26.05-.21.15Z"/>
    <path class="cls-3" d="m150.52,239.35c-.26-.05-.52-.21-.72.21-.1.21.21.15.1.31.36-.05.41-.36.62-.52Z"/>
    <path class="cls-3" d="m146.4,233c.1-.05.1-.31,0-.41-.31-.36-.46.26-.72.15.26.15.46.41.72.26h0Z"/>
    <path class="cls-3" d="m61.96,253.59c-.05-.15-.15-.26-.31-.21-.1.05-.36.05-.31.26.05.1.05.36.26.31.15,0,.26-.15.36-.36Z"/>
    <path class="cls-3" d="m65.36,245.44c.31-.31-.1-.46-.15-.72-.26.21-.31.46-.1.72.1.15.21.05.26,0Z"/>
    <path class="cls-3" d="m145.98,263.71c-.21.36-.67.36-.72.77.41-.05.88-.05.72-.77Z"/>
    <path class="cls-3" d="m147.69,236.1c.05,0,.1-.1.05-.15-.05-.15-.15-.31-.31-.31-.21.05-.41.15-.46.36.05.05.1.1.15.21.1-.31.36-.15.57-.1h0Z"/>
    <path class="cls-3" d="m63.04,259.37c.21,0,.21-.15.21-.31s.05-.31-.21-.36c-.26,0-.21.15-.21.26-.05.26-.05.41.21.41h0Z"/>
    <path class="cls-3" d="m61.96,267.94c-.26,0-.26.21-.41.31.1.1.21.31.31.31.15-.05.31-.15.36-.46-.05-.05-.1-.15-.26-.15h0Z"/>
    <path class="cls-3" d="m139.69,275.94c0-.05-.1,0-.15.05-.05.15-.05.31.1.36.26.05.1.41.41.41v-.52c0-.26-.31-.1-.36-.31h0Z"/>
    <path class="cls-3" d="m110.73,219.01c-.21-.05-.31.15-.31.26-.1.41.36.15.46.31-.05-.21.21-.52-.15-.57Z"/>
    <path class="cls-3" d="m104.85,217.15c.15-.05.36-.21.36-.36s0-.26-.15-.26c-.21.05-.36.21-.41.41,0,0,.05.26.21.21Z"/>
    <path class="cls-3" d="m63.87,249.52c-.26,0-.21.21-.21.36s-.05.31.21.31.21-.15.21-.36c0-.15.05-.31-.21-.31h0Z"/>
    <path class="cls-3" d="m144.8,272.48c-.26,0-.36.26-.41.46.26.21.52-.36.77,0-.1-.21-.1-.46-.36-.46h0Z"/>
    <path class="cls-3" d="m69.18,224.02c.21,0,.1-.21.1-.31.1-.26-.15-.31-.26-.46-.1.1-.21.21-.15.36.05.15.05.41.31.41Z"/>
    <path class="cls-3" d="m148.72,228.72c.21,0,.26-.15.26-.31s-.05-.26-.26-.31c-.15.1-.31.21-.31.41,0,.15.1.26.31.21h0Z"/>
    <path class="cls-3" d="m126.01,221.8c-.21,0-.21.15-.21.31s-.05.31.21.36c.26,0,.21-.15.21-.31,0-.26.05-.41-.21-.36h0Z"/>
    <path class="cls-3" d="m102.22,298.03c.15.21.05.57.46.57.15,0,.15-.1.15-.21,0-.46-.36-.26-.62-.36h0Z"/>
    <path class="cls-3" d="m95.4,297.62c-.15,0-.26.1-.26.26.05.15.05.31.26.36.26,0,.1-.31.26-.36,0-.15-.1-.26-.26-.26Z"/>
    <path class="cls-3" d="m106.55,297.88s-.21.05-.15.21c.05.15.15.26.36.31.21,0,.26-.21.26-.36s-.15-.21-.46-.15h0Z"/>
    <path class="cls-3" d="m147.69,229.7c.15,0,.36,0,.31-.15-.05-.1-.15-.31-.41-.26-.15,0-.26.05-.26.26,0,.26.21.1.36.15h0Z"/>
    <path class="cls-3" d="m68.41,233.26c.36,0,.62.1.83-.26.05-.1-.05-.1-.1-.1-.31-.21-.52,0-.72.36h0Z"/>
    <path class="cls-3" d="m118.06,296.12c-.21,0-.41-.05-.46.21,0,.15.21.15.21.15.15-.15.52.1.57-.21.05-.21-.21-.1-.31-.15h0Z"/>
    <path class="cls-3" d="m94.11,218.45c.15,0,.31-.1.26-.26-.1-.15.05-.46-.21-.46-.26-.05-.15.21-.21.36.05.1-.05.31.15.36Z"/>
    <path class="cls-3" d="m61.96,251.63c-.05-.05.1-.21-.1-.21-.36-.05-.26.41-.57.41.1.05.21.15.31.15.21-.05.41-.1.36-.36h0Z"/>
    <path class="cls-3" d="m150.32,252.97c-.21-.1.05-.46-.31-.46-.15,0-.21.05-.21.21,0,.26.21.31.36.41.1.05.15,0,.15-.15h0Z"/>
    <path class="cls-3" d="m155.84,251.84s0-.05-.05-.1c.05-.15.41,0,.26-.36-.15.1-.31.15-.41.31-.15.15-.05.36.1.41.1.05.21.21.31.05.15-.26-.05-.26-.21-.31h0Z"/>
    <path class="cls-3" d="m80.95,224.12c0-.05,0-.1-.05-.15-.05-.05-.1-.1-.21-.15h0c-.36-.05-.36.21-.31.41.05.31.26.21.41.1h0c.1-.05.1-.15.15-.21h0Z"/>
    <path class="cls-3" d="m79.61,224.23c-.1.1-.15.26,0,.36s.36.05.41-.05c.05-.15.15-.41-.15-.52h0c-.05.05-.15.1-.26.21h0Z"/>
    <path class="cls-3" d="m114.45,218.03c-.15.05-.36-.05-.31.15,0,.21.21.31.36.36.21.05.26-.15.26-.26-.05-.15-.15-.31-.31-.26h0Z"/>
    <path class="cls-3" d="m115.32,296.43h-.1c-.05.36.21.36.46.41.05,0,.21-.21.15-.36-.15-.21-.36-.15-.52-.05h0Z"/>
    <path class="cls-3" d="m118.06,295.6c-.1.05-.1.1-.05.21.1.1.21.26.41.21.1-.05.21-.15.21-.26-.05-.05-.15-.1-.21-.15-.1-.21-.26-.05-.36,0h0Z"/>
    <path class="cls-3" d="m73.98,288.33c.1.1.1.31.31.21.15-.1.1-.26.05-.41,0-.05-.05-.15-.1-.21-.05,0-.1,0-.15.05-.1.05-.31.1-.1.36h0Z"/>
    <path class="cls-3" d="m126.37,221.08c.26-.26.46-.52.72-.77,0,0-.05-.1-.05-.15-.1-.1-.15,0-.21.05-.1.31-.31.52-.57.77.05,0,.05.05.1.1h0Z"/>
    <path class="cls-3" d="m64.95,275.22c-.26-.05-.41.1-.57.52.31-.15.52.05.67-.21,0-.05.05-.26-.1-.31h0Z"/>
    <path class="cls-3" d="m142.11,270.73c.21-.05.26-.21.36-.31,0-.26-.15-.15-.26-.21-.21,0-.31.05-.26.26.05.1,0,.31.15.26h0Z"/>
    <path class="cls-3" d="m118.01,218.81c-.15,0-.26.1-.26.26s.1.26.26.26.26-.1.26-.31c0-.1-.05-.21-.26-.21h0Z"/>
    <path class="cls-3" d="m153.16,248.53c.05.1.31.1.41,0,.1-.05-.05-.15-.05-.26-.26,0-.52.05-.41-.41-.1.1-.1.15-.15.21-.15.21.15.31.21.46h0Z"/>
    <path class="cls-3" d="m133.85,229.9c0,.15.1.26.31.26.15,0,.26-.1.26-.31-.05-.1-.1-.21-.31-.21-.21-.05-.31.05-.26.26h0Z"/>
    <path class="cls-3" d="m140.15,236.97c0-.15-.05-.21-.21-.21-.31,0-.21.26-.21.41v.15h.1c.21,0,.36-.1.31-.36Z"/>
    <path class="cls-3" d="m134.94,231.09c.21,0,.21-.1.21-.26.05-.15-.05-.31-.21-.31s-.21.1-.21.21c-.05.21,0,.31.21.36h0Z"/>
    <path class="cls-3" d="m57.98,271.5c-.26.15-.41.36-.31.72.26-.21.41-.36.46-.67.05-.05-.1-.1-.15-.05Z"/>
    <path class="cls-3" d="m67.22,238.68c.15-.05.36-.05.36-.26,0-.15-.15-.15-.36-.15-.15-.05-.26,0-.26.21,0,.15.21.21.26.21h0Z"/>
    <path class="cls-3" d="m127.09,289.36c-.15.05-.26.1-.21.26.05.21.21.36.41.41.1,0,.21,0,.15-.1-.05-.26-.31-.36-.36-.57h0Z"/>
    <path class="cls-3" d="m119.56,217.98c-.62-.05-.62,0-.31.62,0-.26.36-.36.31-.62Z"/>
    <path class="cls-3" d="m119.61,295.24c-.05.15-.15.26-.21.41-.05.1-.05.26.15.26.21-.05.26-.31.31-.46.1-.21-.15-.15-.26-.21Z"/>
    <path class="cls-3" d="m121.72,218.14c0,.1.1.26.26.26.15-.05.26-.1.26-.31s-.15-.26-.26-.26c-.1.05-.26.15-.26.31h0Z"/>
    <path class="cls-3" d="m139.94,234.19c0-.15-.05-.21-.21-.21-.31,0-.21.26-.21.41v.15h.1c.21,0,.31-.1.31-.36Z"/>
    <path class="cls-3" d="m60.93,260.77c.1,0,.31.1.36-.1,0-.26-.26-.31-.52-.46.05.26-.15.46.15.57h0Z"/>
    <path class="cls-3" d="m100.51,217.31c-.26-.15-.41,0-.52.21-.05.15.1.31.21.31.36,0,.1-.36.31-.52h0Z"/>
    <path class="cls-3" d="m116.46,219.94c.15-.21.36-.15.62-.26-.1-.1-.15-.26-.26-.26-.21,0-.41,0-.41.26-.05.1,0,.26.05.26h0Z"/>
    <path class="cls-3" d="m145.41,247.35c.05-.05-.15-.05-.26-.1-.15-.1-.26.05-.26.21s.05.26.1.26c.36.05.26-.26.41-.36Z"/>
    <path class="cls-3" d="m153.41,249.15c0,.05.26.05.31.05.26-.15.05-.41.15-.77-.26.31-.41.46-.46.72h0Z"/>
    <path class="cls-3" d="m100,216.79c0,.15,0,.26.21.26s.21-.1.31-.26c0-.21-.21-.21-.31-.26-.26-.05-.21.15-.21.26h0Z"/>
    <path class="cls-3" d="m123.01,292.92h0c-.05.05,0,0,0,0h0Z"/>
    <path class="cls-3" d="m123.22,293.23c.21-.05.36-.21.41-.57-.26.1-.46.21-.67.31.05.1.1.26.26.26h0Z"/>
    <path class="cls-3" d="m68,239.66c-.1.1-.05.26-.05.36.05.1.15.1.21.05.31,0,.15-.26.21-.41-.1,0-.21-.21-.36,0h0Z"/>
    <path class="cls-3" d="m140.46,230.16c.15.05.31.15.36-.1,0-.1.05-.15,0-.21-.26-.21-.21.15-.31.21h-.1c-.05.05-.26-.21-.26.05.05.26.21.05.31.05h0Z"/>
    <path class="cls-3" d="m148.98,269.8c-.15,0-.26,0-.26.21,0,.1.05.21.21.21.15-.05.31-.05.36-.21-.05-.26-.21-.21-.31-.21h0Z"/>
    <path class="cls-3" d="m100.51,214.94c0,.1-.05.26.15.26s.21-.21.26-.31c0-.15-.05-.21-.15-.21-.21,0-.26.05-.26.26h0Z"/>
    <path class="cls-3" d="m83.17,222.63c.15,0,.1-.15.05-.26-.05-.1-.15-.15-.26-.05-.1.15-.36.26-.36.52.26.05.36-.26.57-.21h0Z"/>
    <path class="cls-3" d="m152.07,244.56c-.41-.21-.57.05-.77.31.41.1.57-.1.77-.31Z"/>
    <path class="cls-3" d="m94.58,298.08c-.15,0-.26.1-.26.21,0,.15.15.21.31.21.1,0,.21,0,.21-.21,0-.15-.1-.26-.26-.21h0Z"/>
    <path class="cls-3" d="m144.74,274.96c.1.31-.1.57.15.72.15-.21.41-.41-.15-.72Z"/>
    <path class="cls-3" d="m69.7,236.3c.1-.05.15-.1.21-.21.05-.05-.05-.1-.05-.15-.15-.1-.26-.26-.46-.41-.05.31.26.36.21.62-.05.05.1.15.1.15h0Z"/>
    <path class="cls-3" d="m102.37,297.62c-.15-.57-.41-.36-.72-.21.21.52.57-.15.72.21Z"/>
    <path class="cls-3" d="m65.73,240.59c0,.15.1.26.21.26.15,0,.21-.15.21-.31,0-.1-.05-.21-.21-.21s-.26.1-.21.26h0Z"/>
    <path class="cls-3" d="m132.77,285.02c-.26.15-.05.41-.1.62.05-.15.21-.21.31-.31.15-.15-.05-.41-.21-.31h0Z"/>
    <path class="cls-3" d="m73.67,226.86c.26-.05.36-.26.46-.52-.31,0-.46.15-.67.26.1.15.15.31.21.26h0Z"/>
    <path class="cls-3" d="m142.52,231.24c-.05-.05-.15-.1-.21-.1-.26.1-.36.26-.31.67.21-.21.36-.41.52-.57Z"/>
    <path class="cls-3" d="m73.57,287.61c0,.05.15.21.26.21.26,0,.21-.21.21-.41-.05-.05-.1-.1-.1-.1-.21.05-.36.15-.36.31h0Z"/>
    <path class="cls-3" d="m138.86,231.4c.05-.05,0-.26-.05-.26-.26-.1-.36.1-.52.41.21-.1.41.1.57-.15h0Z"/>
    <path class="cls-3" d="m61.7,250.86c-.05-.15-.1-.26-.31-.26-.15,0-.21.1-.21.26s.1.21.26.21c.1-.05.21-.1.26-.21h0Z"/>
    <path class="cls-3" d="m68,278.16c-.15,0-.21.21-.26.36-.05.1.05.15.21.26.05-.1.15-.26.21-.36s-.05-.26-.15-.26h0Z"/>
    <path class="cls-3" d="m135.56,280.22c.1.05.21.15.31.1s.15-.15.1-.26c-.05-.1-.21-.21-.31-.1-.05,0-.1.05-.21.05,0,.05,0,.15.1.21h0Z"/>
    <path class="cls-3" d="m109.7,296.79c-.15,0-.21.1-.21.26s.1.21.21.21c.15,0,.21-.1.21-.26.05-.21-.05-.21-.21-.21h0Z"/>
    <path class="cls-3" d="m73.11,229.8c.05.15.21.21.31.15.21,0,.26-.15.26-.36h-.31c-.21,0-.31.05-.26.21h0Z"/>
    <path class="cls-3" d="m133.03,229.9c-.15,0-.26.1-.26.26s.1.15.21.15.26-.05.26-.15c0-.05,0-.26-.21-.26Z"/>
    <path class="cls-3" d="m144.74,234.5c0-.26.46-.36.26-.72-.26.15-.46.36-.26.72Z"/>
    <path class="cls-3" d="m59.79,237.75c.15,0,.21-.05.21-.21s-.05-.26-.21-.21c-.15,0-.21.05-.21.21,0,.1.05.21.21.21Z"/>
    <path class="cls-3" d="m150.06,247.76c.05.05.15.31.26.21.15-.15.05-.36,0-.57-.05.15-.36.15-.26.36h0Z"/>
    <path class="cls-3" d="m144.69,251.12c-.15,0-.26.1-.26.26,0,.1.05.26.15.21.1,0,.31-.05.26-.26,0-.1,0-.21-.15-.21h0Z"/>
    <path class="cls-3" d="m71.14,228.77c0,.15.1.21.21.21.15,0,.21-.1.21-.21,0-.15-.1-.21-.21-.21-.15-.05-.21.05-.21.21Z"/>
    <path class="cls-3" d="m125.13,291.63c-.15.1-.31.21-.15.36.05.05.26,0,.31-.05.05-.1.36-.31,0-.41-.05,0-.1.05-.15.1h0Z"/>
    <path class="cls-3" d="m60.67,244.82c0,.21.1.21.21.21s.26.05.31-.15c0-.21-.1-.21-.26-.21-.1.05-.26,0-.26.15h0Z"/>
    <path class="cls-3" d="m108.56,297.51c-.05,0-.1.05-.15.1.21.21.41.21.62.15.05,0,.15-.05.05-.15-.1-.21-.31-.1-.52-.1h0Z"/>
    <path class="cls-3" d="m114.91,296.12c-.21.05-.15.26-.1.31.15.21.26,0,.41-.05,0-.15-.05-.31-.31-.26h0Z"/>
    <path class="cls-3" d="m97.52,296.9c0-.15-.1-.15-.21-.15-.15,0-.21.05-.21.21,0,.1,0,.21.26.21.05,0,.15-.05.15-.26h0Z"/>
    <path class="cls-3" d="m57.88,271.19c.05-.05.15-.21.15-.21-.15-.21-.36-.1-.57-.05.21,0,.1.41.41.26Z"/>
    <path class="cls-3" d="m72.07,228.1c0,.05.21.36.52.21-.05-.05-.1-.15-.15-.26-.15-.26-.31-.26-.36.05Z"/>
    <path class="cls-3" d="m64.95,249.98c-.21,0-.15.26-.15.31.05.31.21.05.36.05-.05-.1.1-.36-.21-.36h0Z"/>
    <path class="cls-3" d="m145.05,252.1c.15,0,.26,0,.26-.21,0-.1,0-.21-.15-.21-.21,0-.21.21-.26.31s.05.1.15.1h0Z"/>
    <path class="cls-3" d="m146.34,249.57c.05.31.21.36.52.21-.21-.15-.26-.41-.57-.31-.1,0,.05.05.05.1h0Z"/>
    <path class="cls-3" d="m62.68,254.99c.15.05.36.21.52,0,.05-.05-.1-.21,0-.26-.26-.1-.31.21-.52.26h0Z"/>
    <path class="cls-3" d="m131.79,286.37c-.15,0-.26.05-.21.21,0,.1.05.21.21.15.1-.05.31-.05.31-.21-.05-.15-.21-.15-.31-.15Z"/>
    <path class="cls-3" d="m152.12,249c.15-.21.26-.36.36-.57h-.46c.05.21,0,.41.1.57Z"/>
    <path class="cls-3" d="m142.06,232.64c.05-.05-.05-.26-.1-.26-.26-.1-.21.21-.41.26.21.05.36.15.52,0Z"/>
    <path class="cls-3" d="m124.67,221.54c.15-.05,0-.31.21-.36-.05-.05-.15-.15-.21-.15-.15,0-.21.15-.26.26.1.05.05.26.26.26h0Z"/>
    <path class="cls-3" d="m62.89,266.08c.05.1.26.05.41-.1-.41,0-.31-.26-.31-.62-.26.31-.21.57-.1.72h0Z"/>
    <path class="cls-3" d="m74.96,289.46c.1,0,.21-.05.21-.15-.05-.1-.05-.31-.21-.31-.1,0-.15.1-.15.21s-.05.26.15.26Z"/>
    <path class="cls-3" d="m55.51,263.92c.15-.21.46-.31.31-.67-.21.21-.52.31-.31.67Z"/>
    <path class="cls-3" d="m129.11,223.86c-.31-.15-.36.31-.77.21.52.31.57-.05.77-.21Z"/>
    <path class="cls-3" d="m128.8,288.64c-.1,0-.26,0-.21.15,0,.1.1.15.21.15.15,0,.21-.05.26-.21,0-.15-.15-.1-.26-.1h0Z"/>
    <path class="cls-3" d="m139.94,237.44c-.15,0-.15.21-.21.31,0,.1.1.1.21.1s.21,0,.21-.15-.1-.26-.21-.26h0Z"/>
    <path class="cls-3" d="m141.23,239.14c-.1,0-.15.1-.15.21,0,.15.1.26.31.26.1,0,.15-.1.1-.15-.05-.15-.05-.36-.26-.31Z"/>
    <path class="cls-3" d="m117.85,217.41s0-.15-.05-.15c-.26-.15-.36.05-.46.21.15-.05.36.1.52-.05h0Z"/>
    <path class="cls-3" d="m70.16,230.52c.36.1.31-.21.41-.41-.26,0-.41.1-.41.41Z"/>
    <path class="cls-3" d="m73.52,225.83c-.05.21-.31.21-.46.36q.52.1.46-.36Z"/>
    <path class="cls-3" d="m62.63,240.43c.26.15.52,0,.72.21-.15-.26-.36-.31-.72-.21Z"/>
    <path class="cls-3" d="m99.17,298.19c-.1.05-.1.15-.05.15.15.1.31.15.57.1-.15-.15-.26-.36-.52-.26h0Z"/>
    <path class="cls-3" d="m100.67,213.75c.05,0,.1.05.15-.05.05-.21-.05-.36-.31-.52.05.26-.1.52.15.57Z"/>
    <path class="cls-3" d="m110.78,211.17c-.21,0-.26.1-.36.31h.46c0-.1.1-.26-.1-.31h0Z"/>
    <path class="cls-3" d="m100.72,298.19c-.1,0-.21,0-.21.15s.1.15.21.15.21,0,.21-.15-.1-.15-.21-.15Z"/>
    <path class="cls-3" d="m69.34,232.79c.26.05.26-.26.52-.31-.36-.21-.46-.05-.52.15-.05.05-.1.15,0,.15h0Z"/>
    <path class="cls-3" d="m59.02,262.21c.31.05.41-.1.31-.46,0,.26-.15.31-.31.46Z"/>
    <path class="cls-3" d="m100.87,217.88c-.05,0-.05.15,0,.26.15.21.26.1.41,0-.05-.26-.21-.31-.41-.26h0Z"/>
    <path class="cls-3" d="m109.23,218.14c.1,0,.21-.05.21-.21s-.1-.1-.21-.15c-.1,0-.21.05-.21.21s.1.15.21.15Z"/>
    <path class="cls-3" d="m67.64,278.31c0-.15-.05-.21-.15-.15-.1,0-.21,0-.21.15s.05.21.15.15c.05-.05.15,0,.21-.15Z"/>
    <path class="cls-3" d="m96.8,297.41c-.15,0-.15.1-.15.21s0,.21.15.21.15-.1.15-.21,0-.21-.15-.21Z"/>
    <path class="cls-3" d="m66.55,276.2c-.1,0-.21,0-.21.15s.1.15.21.15.21,0,.21-.15c0-.1-.05-.15-.21-.15Z"/>
    <path class="cls-3" d="m60.31,265.88s0,.05,0,0h0q.05,0,0,0h0Z"/>
    <path class="cls-3" d="m60.51,265.52c-.15-.05-.31-.1-.36.05s-.05.31.21.31c-.1-.15.21-.15.15-.36h0Z"/>
    <path class="cls-3" d="m73.42,286.83c-.1-.05-.15-.05-.21.05-.1.21.21.26.15.46.21-.21.21-.36.05-.52h0Z"/>
    <path class="cls-3" d="m65.73,239.14c.1,0,.21,0,.21-.15s-.1-.15-.21-.15-.21.05-.21.15c0,.15.1.1.21.15h0Z"/>
    <path class="cls-3" d="m152.33,255.04c.15-.15.26-.31.36-.41-.26-.05-.41.1-.36.41Z"/>
    <path class="cls-3" d="m144.74,249.15c.36.05.57.1.72-.05-.21-.1-.36-.15-.72.05Z"/>
    <path class="cls-3" d="m70.58,283.89c.05.05.1.15.21.1.21-.15.1-.26,0-.41-.15.05-.31.1-.21.31h0Z"/>
    <path class="cls-3" d="m61.7,258.5c.21-.21-.05-.31-.05-.46-.15.15-.21.31-.1.46.05,0,.1.05.15,0Z"/>
    <path class="cls-3" d="m121.62,219.94h.15c-.05-.15-.05-.36-.26-.57.05.21-.1.41.1.57h0Z"/>
    <path class="cls-3" d="m116.25,218.55c.1,0,.21-.05.21-.21,0-.1-.1-.21-.21-.21-.15,0-.15.15-.21.26,0,.05.1.15.21.15h0Z"/>
    <path class="cls-3" d="m125.39,290.55c-.1,0-.21.1-.21.21s.05.15.15.15c.05-.1.21-.05.21-.15s-.05-.15-.15-.21h0Z"/>
    <path class="cls-3" d="m137.1,278.73c-.26.05-.15.21-.1.41,0-.21.36,0,.31-.31-.05-.05-.05-.15-.21-.1h0Z"/>
    <path class="cls-3" d="m125.39,223.66c.1,0,.05-.1.1-.21,0-.1-.05-.21-.15-.21s-.15.05-.15.15c0,.21.05.31.21.26h0Z"/>
    <path class="cls-3" d="m54.06,255.5c0,.15-.05.36-.05.52h.15c.1-.15.1-.31-.1-.52h0Z"/>
    <path class="cls-3" d="m128.12,287.76s-.05-.05-.1-.05c-.26,0-.21.21-.31.41.26-.1.41-.21.41-.36h0Z"/>
    <path class="cls-3" d="m154.96,251.37l.36.36q-.05-.52-.36-.36Z"/>
    <path class="cls-3" d="m109.08,297.05c-.1,0-.21,0-.21.15,0,.1,0,.15.15.15s.21-.05.15-.21c-.05,0,.05-.15-.1-.1h0Z"/>
    <path class="cls-3" d="m106.09,298.6c-.05-.15-.15-.15-.26-.05-.05.05-.1.05-.05.1.15.15.31.1.52.1-.05-.05-.15-.1-.21-.15h0Z"/>
    <path class="cls-3" d="m118.42,216.48c.1,0,.21-.1.21-.21-.05-.1-.1-.21-.21-.21s-.1.1-.1.21-.05.26.1.21h0Z"/>
    <path class="cls-3" d="m58.35,270.06c0,.05,0,.21.15.21.26,0,.15-.15.21-.31-.1.05-.26-.05-.36.1h0Z"/>
    <path class="cls-3" d="m59.22,259.89c-.15,0-.41-.26-.52.1.21,0,.36.05.52-.1Z"/>
    <path class="cls-3" d="m58.71,259.99h0q.05.05,0,0h0Z"/>
    <path class="cls-3" d="m75.64,225.88c.1.15.21.26.31.26.05,0,.1-.15.1-.21-.05-.15-.21-.05-.41-.05h0Z"/>
    <path class="cls-3" d="m154.03,248.12c-.21,0-.41-.26-.52.1.21,0,.36.05.52-.1Z"/>
    <path class="cls-3" d="m148.25,236.97c-.15.15-.31.26-.41.52.26-.1.52-.1.41-.52Z"/>
    <path class="cls-3" d="m56.02,262.73c0-.1-.05-.15-.15-.26.05.21-.15.15-.21.26,0,.05.1.15.21.15.1.05.21,0,.15-.15h0Z"/>
    <path class="cls-3" d="m128.64,289.15c-.1,0-.21,0-.15.1,0,.1.1.15.21.21.1-.05.21-.1.15-.21,0-.1-.1-.1-.21-.1Z"/>
    <path class="cls-3" d="m56.28,264.84c0-.1-.05-.1-.1-.1-.1.05-.21.15-.15.26,0,.1.05.15.1.1.05,0,.15-.1.15-.26Z"/>
    <path class="cls-3" d="m77.7,222.42c.21.05.21-.21.41-.26-.1-.05-.15-.1-.21-.15-.15,0-.15.1-.21.26-.05.05-.1.1,0,.15Z"/>
    <path class="cls-3" d="m59.33,265.93c-.05.15-.15.36.1.57.05-.21.1-.41-.1-.57Z"/>
    <path class="cls-3" d="m60.36,265.93c0,.21-.1.52.52.36-.41,0-.21-.41-.52-.36Z"/>
    <path class="cls-3" d="m150.27,258.44c-.26.1-.1.31-.1.52.1-.1.05-.26.26-.36.1-.1-.1-.21-.15-.15Z"/>
    <path class="cls-3" d="m142.16,273.21h.72c-.36-.15-.57-.31-.72,0Z"/>
    <path class="cls-3" d="m69.44,228.1c.05,0,.15,0,.15-.05,0-.15-.1-.26-.26-.26.05.05-.1.26.1.31h0Z"/>
    <path class="cls-3" d="m100.1,213.39c-.15-.05-.21-.21-.36-.1-.05.05-.1.15-.05.21.1.05.26.1.41-.1h0Z"/>
    <path class="cls-3" d="m61.6,249.21c-.15.21-.41.15-.41.41.05-.21.46.05.41-.41Z"/>
    <path class="cls-3" d="m139.22,278.93c-.05.1-.1.26.1.41,0-.1.26-.15.1-.36-.05-.1-.15-.1-.21-.05Z"/>
    <path class="cls-3" d="m109.44,297.31c-.1,0-.15.05-.15.15,0,.21.21.15.31.15,0-.1.1-.31-.15-.31h0Z"/>
    <path class="cls-3" d="m68.82,230.16c.15.21.26.36.52.41-.05-.26-.15-.41-.52-.41Z"/>
    <path class="cls-3" d="m128.54,290.13c.1-.15.21-.26.31-.41-.36-.05-.46.05-.31.41Z"/>
    <path class="cls-3" d="m133.9,228.3c0-.05,0-.15-.05-.15-.15,0-.21.1-.31.26.15-.05.31.1.36-.1h0Z"/>
    <path class="cls-3" d="m62.47,255.81c0-.1-.1-.1-.15-.05-.21.05-.1.21-.1.41.1-.15.26-.21.26-.36Z"/>
    <path class="cls-3" d="m148.3,263.81c.21.26.41.26.62,0h-.62Z"/>
    <path class="cls-3" d="m119.87,219.94c-.1.15-.1.31.05.46.1-.21.15-.36-.05-.46Z"/>
    <path class="cls-3" d="m122.45,220.61c0-.05.05-.15-.1-.21-.1,0-.1.05-.1.15s-.05.21.05.21c.15.05.15-.05.15-.15h0Z"/>
    <path class="cls-3" d="m123.38,221.18s.1.05.1,0c.1-.1.05-.26-.05-.46-.1.21-.1.31-.05.46h0Z"/>
    <path class="cls-3" d="m153.93,250.08c.21,0,.05.31.26.26.05,0,.05-.1.05-.21,0-.15-.15-.05-.31-.05h0Z"/>
    <path class="cls-3" d="m145.78,252.72c-.05.15-.1.31.15.52-.05-.21.1-.41-.15-.52Z"/>
    <path class="cls-3" d="m62.53,249.72c-.05.15-.1.31.05.52.1-.26.15-.41-.05-.52Z"/>
    <path class="cls-3" d="m145.05,249.83c.1,0,.15-.05.21-.1-.05-.05-.1-.1-.21-.15-.1-.05-.15.05-.15.1-.05.15.05.15.15.15Z"/>
    <path class="cls-3" d="m62.63,248.79c-.1,0-.1.05-.1.15s-.05.21.1.21c.1,0,.1-.05.1-.15-.05-.05,0-.15-.1-.21h0Z"/>
    <path class="cls-3" d="m64.28,247.81c-.26.21-.21.36-.21.52.41-.05.15-.26.21-.52Z"/>
    <path class="cls-3" d="m151.09,247.5c-.1-.21-.26-.15-.36-.1,0,0-.05.1,0,.1.1.1.21.1.36,0h0Z"/>
    <path class="cls-3" d="m149.49,246.42s-.1,0-.1.05c-.05.15.05.31.21.41-.05-.15.05-.31-.1-.46h0Z"/>
    <path class="cls-3" d="m56.85,256.95c-.1.05-.05.15-.05.26,0,.05.05.15.1.1.1-.05.1-.15.1-.26,0-.05-.05-.1-.15-.1h0Z"/>
    <path class="cls-3" d="m146.91,257.26c.05.21.1.36.36.46-.05-.26-.1-.46-.36-.46Z"/>
    <path class="cls-3" d="m59.58,258.75c-.1,0-.1.15-.1.21s0,.21.1.15c.1,0,.05-.15.1-.21,0-.05,0-.15-.1-.15Z"/>
    <path class="cls-3" d="m62.16,245.64c-.1.21-.1.31,0,.52.15-.21.1-.36,0-.52Z"/>
    <path class="cls-3" d="m60.67,259.84c.15-.15.15-.31,0-.52-.1.21-.15.36,0,.52Z"/>
    <path class="cls-3" d="m63.56,244.25c-.15.15-.15.31-.05.52.21-.21.15-.36.05-.52Z"/>
    <path class="cls-3" d="m153.67,241.57c.05,0,.15-.1.21-.1,0-.1,0-.15-.1-.15s-.21,0-.21.1c0,.05,0,.15.1.15h0Z"/>
    <path class="cls-3" d="m58.76,263.76c-.21-.1-.36-.1-.46.05.15.1.31.1.46-.05Z"/>
    <path class="cls-3" d="m56.49,264.74c-.05.15-.05.31.05.52.21-.15.26-.31-.05-.52Z"/>
    <path class="cls-3" d="m143.5,239.71c.05-.15.1-.31-.05-.52-.1.21-.15.36.05.52Z"/>
    <path class="cls-3" d="m144.49,234.96c-.1.15-.1.31.15.52-.05-.26.1-.41-.15-.52Z"/>
    <path class="cls-3" d="m67.69,279.4c-.05,0-.15,0-.15.1s.1.21.15.21c.1,0,.1-.05.1-.15.05-.1,0-.15-.1-.15h0Z"/>
    <path class="cls-3" d="m132.41,229.85c-.05.05-.15.1-.15.21s.1.1.15.1c.1,0,.15-.05.15-.15-.05-.15-.05-.21-.15-.15Z"/>
    <path class="cls-3" d="m68.31,226.96c-.1,0-.1.05-.1.15s-.05.21.1.21c.1,0,.1-.05.1-.15-.05-.1,0-.21-.1-.21h0Z"/>
    <path class="cls-3" d="m69.91,226.08c-.15.1-.1.26-.1.41.36-.05.15-.26.1-.41Z"/>
    <path class="cls-3" d="m113.72,216.64c.05,0,.05-.1.05-.15,0-.1-.05-.15-.15-.15-.05,0-.15,0-.1.1.05.05.05.15.21.21h0Z"/>
    <path class="cls-3" d="m134.63,231.61c.05,0,.15,0,.15-.1,0-.05-.1-.15-.15-.21-.05.1-.1.15-.15.21,0,.15.1.1.15.1h0Z"/>
    <path class="cls-3" d="m107.17,298.39c0,.1.05.1.15.1.05,0,.15,0,.15-.1,0-.05-.1-.15-.15-.21-.05.05-.15.1-.15.21h0Z"/>
    <path class="cls-3" d="m58.04,241.36c.1.05.26,0,.31-.15-.15-.05-.26-.05-.36.05,0,0,.05.1.05.1Z"/>
    <path class="cls-3" d="m69.29,280.07c-.05,0-.15,0-.15.1,0,.05.1.15.15.21.05-.1.1-.15.15-.21,0-.1-.1-.1-.15-.1h0Z"/>
    <path class="cls-3" d="m66.04,245.9c-.05-.05,0-.15-.1-.15s-.15.1-.21.15c.05.05.1.1.21.15.1.05.05-.05.1-.15h0Z"/>
    <path class="cls-3" d="m150.01,257c0-.1-.05-.26-.1-.52-.1.26-.15.41.1.52Z"/>
    <path class="cls-3" d="m56.49,263.3c0,.05,0,.1.05.15.15-.05.26-.1.41-.15-.21-.05-.36-.1-.46,0Z"/>
    <path class="cls-3" d="m147.94,249.26c-.1-.05-.26-.1-.46.05.21.05.31.05.46.05v-.1h0Z"/>
    <path class="cls-3" d="m148.15,263.4c.05.1-.31.31.1.36v-.36h-.1Z"/>
    <path class="cls-3" d="m119.87,294.88s-.05,0,0,.1c.05.05,0,.21.15.21.1,0,.1-.1.1-.15,0-.15-.05-.21-.26-.15Z"/>
    <path class="cls-3" d="m64.23,251.58c-.05.21.05.26.26.26-.05-.15-.1-.26-.15-.41-.05.1-.1.15-.1.15Z"/>
    <path class="cls-3" d="m64.28,269.64s.1,0,.1-.05c.1-.15.05-.26-.15-.36,0,.15-.1.31.05.41h0Z"/>
    <path class="cls-3" d="m145.78,249.93c.05,0,.05-.1.05-.1-.1-.1-.21-.05-.36-.05.05.15.15.21.31.15h0Z"/>
    <path class="cls-3" d="m147.38,239.4c.15,0,.26.1.36-.05,0,0,0-.05-.05-.1-.15-.05-.26,0-.31.15Z"/>
    <path class="cls-3" d="m61.39,253.23c.05-.15.05-.26-.05-.36,0,0-.1,0-.1.05-.05.1-.05.26.15.31Z"/>
    <path class="cls-3" d="m59.79,267.53c-.1.1-.1.26,0,.36.15-.05.15-.15.15-.31-.05,0-.15-.05-.15-.05h0Z"/>
    <path class="cls-3" d="m104.95,298.75s-.05.05-.05.1c.1.15.26.1.36.05-.05-.21-.15-.26-.31-.15h0Z"/>
    <path class="cls-3" d="m109.6,297.62c0,.15.05.26.15.26.05,0,.15-.1.15-.15-.05-.15-.21-.1-.31-.1h0Z"/>
    <path class="cls-3" d="m70.16,283.63c-.1,0-.1.05-.05.15.05.05.05.1.05.15.15-.1.21-.15.15-.21,0-.05-.1-.1-.15-.1h0Z"/>
    <path class="cls-3" d="m72.95,286.01c0-.05,0-.15-.1-.15s-.1.05-.1.1,0,.15.1.15c.1.05.1-.05.1-.1h0Z"/>
    <path class="cls-3" d="m132.15,286.21s0,.1.05.1c.15.05.21-.05.31-.15-.15,0-.26-.05-.36.05h0Z"/>
    <path class="cls-3" d="m53.7,257.83l-.05.05c0,.15.15.21.46.15-.31,0-.26-.21-.41-.21h0Z"/>
    <path class="cls-3" d="m140.05,232.9c.1,0,.1-.1.1-.15s-.05-.15-.1-.1c-.1,0-.1.1-.05.15-.05.05,0,.1.05.1h0Z"/>
    <path class="cls-3" d="m142.89,270.11c-.15-.1.15-.36-.21-.36.05.15,0,.31.21.36Z"/>
    <path class="cls-3" d="m143.71,233.57c.05-.1.1-.26-.05-.21-.15.05-.05.21-.05.36.05-.05.1-.1.1-.15Z"/>
    <path class="cls-3" d="m151.66,251.48c-.05,0-.15.05-.1.1,0,.1.1.1.15.05.05,0,.1-.05.1-.1-.05-.1-.1-.1-.15-.05h0Z"/>
    <path class="cls-3" d="m144.85,239.66c-.15-.21-.31-.1-.41-.1.1.15.26.1.41.1Z"/>
    <path class="cls-3" d="m137.26,278.42c0-.05,0-.15-.1-.15s-.1.05-.1.1,0,.15.1.15c.1.05.1-.05.1-.1h0Z"/>
    <path class="cls-3" d="m144.74,266.7c0,.05,0,.15.1.15s.1-.05.1-.1,0-.15-.1-.15c-.05-.05-.05.05-.1.1h0Z"/>
    <path class="cls-3" d="m58.29,240.74c.1,0,.1-.1.1-.15s0-.15-.1-.15-.1.1-.1.15c0,.05.05.15.1.15h0Z"/>
    <path class="cls-3" d="m66.04,227.63h.41c-.15-.21-.26-.26-.41,0Z"/>
    <path class="cls-3" d="m125.13,224.43c0,.05.1.1.21.1h.05c.05-.15.1-.36-.21-.31-.05.1-.1.15-.05.21h0Z"/>
    <path class="cls-3" d="m54.58,255.92c.05-.26.1-.41,0-.57-.05.21-.05.31,0,.57Z"/>
    <path class="cls-3" d="m150.68,254.68c-.05-.21-.1-.31-.15-.46-.1.15-.15.31.15.46Z"/>
    <path class="cls-3" d="m65.16,251.89s.05.1.1.1c.15.05.21-.05.21-.21-.1,0-.26-.05-.31.1Z"/>
    <path class="cls-3" d="m127.09,223.66q.05.05.05,0c.15-.1-.05-.26,0-.36v-.05c-.15.1-.15.26-.05.41h0Z"/>
    <path class="cls-3" d="m92.62,218.24c.05,0,.15,0,.15-.1s-.05-.1-.15-.1-.15,0-.15.1c.05.1.1.1.15.1h0Z"/>
    <path class="cls-3" d="m74.76,226.45c.05,0,.1-.05.15-.1,0-.15-.05-.21-.1-.21s-.1.1-.15.1c0,.1.05.21.1.21h0Z"/>
    <path class="cls-3" d="m112.54,217.62l.1.05c.1-.1.05-.21.05-.31-.1.05-.21.15-.15.26h0Z"/>
    <path class="cls-3" d="m102.94,217.21s0-.1-.05-.1c-.15-.05-.21.05-.36.15.26,0,.36.05.41-.05Z"/>
    <path class="cls-3" d="m115.32,217.15c.1-.05.1-.1.1-.15s-.05-.15-.1-.1c-.1,0-.1.1-.05.15-.05.05-.05.1.05.1h0Z"/>
    <path class="cls-3" d="m129.78,214.78c.05,0,.15.05.1-.1-.05-.05-.1-.1-.15-.15-.1-.05-.1.05-.1.1,0,.1.05.21.15.15h0Z"/>
    <path class="cls-3" d="m102.16,298.86c.1.1.21-.05.31-.15h-.21c-.1,0-.21.1-.1.15h0Z"/>
    <path class="cls-3" d="m146.5,264.07c0,.05.05.1.05.1.1,0,.15-.05.21-.1l-.05-.05c-.15,0-.21,0-.21.05h0Z"/>
    <path class="cls-3" d="m68.2,227.94c-.1.05-.05.21,0,.31.05-.05.05-.1.1-.15.1-.05,0-.21-.1-.15Z"/>
    <path class="cls-3" d="m144.23,263.3c0-.05,0-.1-.05-.1-.05.05-.15.1-.15.15s.05.1.1.1c.1,0,.1-.05.1-.15h0Z"/>
    <path class="cls-3" d="m56.49,262.57c0,.05,0,.15.1.1.05,0,.05-.05.1-.1-.05-.05-.1-.1-.15-.15-.1,0-.05.1-.05.15h0Z"/>
    <path class="cls-3" d="m72.13,227.63c.1,0,.1-.05.1-.1s-.05-.1-.15-.15c-.05.05-.05.1-.05.15s0,.1.1.1h0Z"/>
    <path class="cls-3" d="m125.8,224.02s-.1.05-.05.05c.05.05.1.15.21.1.05,0,.05-.05.05-.1-.05-.05-.1-.05-.21-.05h0Z"/>
    <path class="cls-3" d="m61.03,238.47c.05,0,.15,0,.15-.1l-.05-.1c-.05,0-.1.05-.15.1-.1.1,0,.1.05.1Z"/>
    <path class="cls-3" d="m139.22,275.32c.15-.05.1.15.26.21.05-.26,0-.36-.26-.21Z"/>
    <path class="cls-3" d="m118.32,220.1c.05.05.05.15.15.15.05,0,.1-.05.1-.1,0-.1-.05-.1-.15-.1,0,0-.05.05-.1.05h0Z"/>
    <path class="cls-3" d="m88.95,220.15c.1,0,.15-.05.15-.15-.05,0-.1-.05-.1-.05-.05,0-.15,0-.15.1,0,.05.05.1.1.1h0Z"/>
    <path class="cls-3" d="m56.13,271.19c-.1,0-.05.1-.05.15,0,.1.05.1.15.1.05,0,.05-.05.1-.1-.1-.05-.15-.15-.21-.15Z"/>
    <path class="cls-3" d="m89.83,219.17s.05-.05.05-.1c-.05-.1-.1-.1-.15-.1s-.15,0-.05.1c0,.1.1.1.15.1h0Z"/>
    <path class="cls-3" d="m154.19,245.9c.05-.05.05-.1.1-.15l-.05-.05c-.1,0-.1.1-.1.15-.05.05-.05.1.05.05Z"/>
    <path class="cls-3" d="m59.07,257.36c.05.15.1.21.26.26.05-.15-.05-.26-.26-.26Z"/>
    <path class="cls-3" d="m80.44,222.88c.05,0,0-.21.05-.41-.1.15-.1.21-.15.26-.05.15,0,.21.1.15h0Z"/>
    <path class="cls-3" d="m145,239.71c.05.05.05.15.15.15.05,0,.05-.05.1-.05,0-.1-.05-.1-.1-.1-.05-.05-.1,0-.15,0h0Z"/>
    <path class="cls-3" d="m110.16,214.37c.05,0,.1-.05.15-.15-.05,0-.1-.05-.15-.05s-.15,0-.15.1c.05.1.1.1.15.1Z"/>
    <path class="cls-3" d="m147.12,229.9c0-.05,0-.15-.1-.15l-.1.05c0,.05.05.1.1.15.1.05.1,0,.1-.05h0Z"/>
    <g>
      <path class="cls-2" d="m128.74,226.55c.05,0,.1-.05.15-.05-.15.05-.26.1-.41.15.05,0,.1,0,.15-.05,0-.05.05-.05.1-.05Z"/>
      <path class="cls-2" d="m105.21,297.1s-.05,0,0,0c.15,0,.31,0,.46.05h0c-.21-.05-.31-.05-.46-.05Z"/>
      <path class="cls-2" d="m104.43,296.79c.1,0,.26.05.36.15l-.05-.05c-.1-.05-.21-.1-.31-.1Z"/>
      <path class="cls-2" d="m124.67,224.59h0c0,.05-.05.1-.05.15,0-.05.05-.1.05-.15h0Z"/>
      <path class="cls-2" d="m123.74,225.15h0s.05,0,0,0c.1,0,.21-.05.26-.05h.05c-.1,0-.21.05-.31.05.05,0,0,0,0,0Z"/>
      <path class="cls-2" d="m101.49,218.7c.05,0,.1.05.15.1h0c-.05-.05-.1-.1-.15-.1Z"/>
      <path class="cls-2" d="m69.13,277.8c.15.1.26.31.41.36-.15-.05-.26-.21-.41-.36Z"/>
      <path class="cls-2" d="m69.13,277.8c.15.1.26.31.41.36-.21,0-.26-.21-.41-.36Z"/>
      <path class="cls-2" d="m104.02,297c0-.05.05-.05,0,0,.15-.15.26-.21.36-.21-.1,0-.21.05-.36.21Z"/>
      <path class="cls-2" d="m133.8,257.93h0c-.05,0-.1.05-.21.05.1,0,.15,0,.21-.05Z"/>
      <path class="cls-2" d="m132.87,257.62c.1-.26.26-.46.57-.57.1-.05.15-.1.26-.1.72-.36,1.45-.67,2.12-1.14.36-.26.72-.57.93-.98.31-.57.62-1.14.88-1.7.36-.67.46-1.34.41-2.12-.05-.72-.15-1.45-.21-2.17-.05-.57-.21-1.08-.46-1.6-.36-.77-.83-1.5-1.34-2.17-.36-.52-.77-.98-1.24-1.34-.88-.67-1.91-1.03-3.05-1.03-.72,0-1.45.1-2.17.21-.31.05-.62.1-.98.21.31-.05.62-.15.93-.21.72-.1,1.45-.21,2.17-.21,1.14,0,2.12.36,3.05,1.03.52.36.88.88,1.24,1.34.52.67.98,1.39,1.34,2.17.26.52.41,1.03.46,1.6.1.72.15,1.45.21,2.17.05.72-.1,1.45-.41,2.12-.31.57-.57,1.14-.88,1.7-.21.41-.57.72-.93.98-.67.46-1.39.77-2.06,1.14-.1.05-.15.1-.26.1-.31.15-.52.36-.57.57-.15.26-.05.46.26.46.1,0,.26-.05.36-.05-.1,0-.21.05-.36.05-.26,0-.36-.21-.26-.46Z"/>
      <path class="cls-2" d="m134.83,253.59c.52-.67.77-1.45.83-2.32.05-1.14-.21-2.22-.72-3.25-.41-.77-.93-1.45-1.55-2.06s-1.39-.93-2.27-.98h-1.45c-.36,0-.77.05-1.14.15-.15.05-.31.1-.46.15.15-.05.31-.1.46-.1.36-.05.77-.1,1.14-.15h1.45c.88.05,1.65.36,2.27.98.62.62,1.19,1.29,1.55,2.06.52,1.03.77,2.06.72,3.25-.05.83-.36,1.6-.83,2.27-.62.88-1.39,1.55-2.32,2.01-.31.15-.62.31-.98.41.36-.1.67-.26.98-.41.93-.46,1.7-1.19,2.32-2.01Z"/>
      <path class="cls-2" d="m128.59,251.37c-.52-.1-.83-.41-.98-.88-.15-.52-.1-1.03.1-1.55.21-.62.62-1.03,1.19-1.29-.57.21-.98.67-1.19,1.29-.21.52-.26,1.03-.1,1.55.1.52.41.83.98.88h.26-.26Z"/>
      <path class="cls-2" d="m132.46,253.23c.77-.88,1.19-1.91,1.08-3.1-.05-.88-.31-1.65-.88-2.37-.77-.98-1.81-1.29-2.99-1.08-.21.05-.46.1-.67.15.21-.05.41-.1.62-.15,1.19-.21,2.22.1,2.99,1.08.57.67.83,1.5.88,2.37.15,1.24-.26,2.22-1.03,3.1-.36.36-.77.62-1.19.88-.15.1-.36.15-.57.26.21-.05.41-.15.57-.26.46-.26.88-.52,1.19-.88Z"/>
      <path class="cls-2" d="m131.22,250.13c0-.31-.1-.57-.31-.77-.41-.46-.93-.62-1.55-.52-.1,0-.15.05-.26.05.05-.05.15-.05.21-.05.62-.05,1.14.05,1.55.52.21.26.31.52.36.77,0,.98-.41,1.86-1.5,2.27h.05c1.03-.41,1.45-1.29,1.45-2.27Z"/>
      <path class="cls-2" d="m130.19,254.52c.05,0,.15-.05.21-.05-.05,0-.15,0-.21.05Z"/>
      <path class="cls-2" d="m126.99,255.3c-.77-.31-1.45-.83-2.06-1.5-.52-.62-.93-1.29-1.19-2.01-.36-1.08-.36-2.22-.1-3.35.21-.93.62-1.75,1.24-2.48.57-.57,1.19-1.03,1.91-1.39.46-.26.93-.46,1.45-.62-.52.15-.98.36-1.45.62-.72.36-1.34.83-1.91,1.39-.67.72-1.03,1.55-1.24,2.48-.26,1.14-.21,2.22.1,3.35.26.77.67,1.45,1.19,2.01.57.67,1.24,1.19,2.06,1.5.72.31,1.5.41,2.32.31.36-.05.77-.15,1.08-.26-.36.1-.72.21-1.08.26-.83.1-1.6,0-2.32-.31Z"/>
      <path class="cls-2" d="m127.4,257.83c-1.03-.1-1.91-.52-2.74-1.19-.88-.72-1.55-1.65-2.12-2.68-.88-1.7-1.14-3.51-.88-5.42.15-1.03.46-1.96.98-2.84.72-1.19,1.65-2.17,2.89-2.89.77-.41,1.6-.72,2.48-.93-.88.21-1.7.52-2.53.98-1.24.67-2.17,1.65-2.89,2.89-.52.88-.83,1.81-.98,2.84-.26,1.91,0,3.72.88,5.42.52,1.03,1.19,1.96,2.12,2.68.83.62,1.7,1.03,2.79,1.14.62.1,1.24.05,1.91-.05,1.19-.21,2.37-.57,3.46-1.03-1.08.52-2.22.83-3.41,1.03-.67.1-1.34.1-1.96.05Z"/>
      <path class="cls-2" d="m128.18,253.7c-.21-.1-.41-.15-.57-.26-.67-.36-1.19-.88-1.55-1.55-.21-.46-.36-.98-.41-1.5-.05-.88.1-1.75.62-2.48.31-.52.72-.93,1.24-1.24.52-.36,1.03-.62,1.65-.77-.57.15-1.14.41-1.65.83-.46.36-.88.77-1.24,1.24-.52.77-.67,1.6-.62,2.48.05.52.15,1.03.41,1.5.36.67.88,1.19,1.55,1.55.15.05.36.15.57.21.26.15.52.1.83,0h0c-.31.1-.57.15-.83,0Z"/>
      <path class="cls-3" d="m104.74,296.95c-.1-.1-.21-.15-.31-.15s-.21.1-.36.21c.1-.05.21-.15.36-.15.1-.05.21,0,.31.1Z"/>
      <path class="cls-3" d="m69.13,277.8c.15.1.26.31.41.36-.21-.05-.26-.26-.41-.36Z"/>
      <path class="cls-3" d="m101.6,218.81c0-.05-.05-.05-.05-.1,0,0-.05-.05-.1-.05.1.05.15.1.15.15Z"/>
      <path class="cls-3" d="m105.21,297.1c.15,0,.31,0,.46.05-.21-.05-.31-.05-.46-.05Z"/>
      <path class="cls-3" d="m128.74,226.55c-.05,0-.1.05-.1.05,0-.05.05-.05.1-.05Z"/>
      <path class="cls-3" d="m123.74,225.15c.1,0,.15-.05.26-.05-.05,0-.15.05-.26.05.05,0,0,0,0,0Z"/>
      <path class="cls-3" d="m149.03,246.26h0c-.36-.15-.36-.57-.72-.67-.15-.05-.36-.26,0-.46.21-.15.52-.15.67-.41.1-.15.15-.36,0-.46-.1-.1-.31-.1-.36.15-.1.36-.62.31-.77.72-.26-.36-.72,0-1.03-.26.15-.15.31-.1.41-.1.31,0,.46-.31.31-.57-.36-.62-.26-.77.36-1.03.1-.05.21-.21.41-.36-.26-.05-.57-.05-.31-.41.05-.05.05-.26-.05-.26-.1-.05-.26,0-.36.05-.36.15-.05.57-.31.77-.15-.15,0-.41-.1-.46-.62-.36-.41-.77-.1-1.24.15-.26.15-.36.41-.1.1.15.88-.1.93-.26.1-.36-.26-.26-.41-.36-.05-.21.15-.15.15-.26s.05-.15.15-.26c.21-.15,0-.26-.1-.36s-.15-.26-.26,0c-.05.1-.26.15-.36.15-.36.05-.46.26-.36.62.05.21-.05.21-.21.26-.21.05-.52.26-.46.36.31.41-.05.46-.26.62-.31.26-.31.67.05.93.21.15.21.21.05.36-.15.15-.31.31-.31.52,0,.1-.1.1-.15.1-.21-.36-.67-.05-.88-.41-.26,1.03-.26,1.24.15,1.7-.41.05-.67.26-.67.72,0,.41-.31.52-.72.46.1-.21.36-.46-.15-.41-.46.05-.52-.26-.41-.52.1-.31.31-.57.21-.93-.05-.15.21-.15.26-.1.26.15.41-.05.62-.1-.1-.21.31-.46,0-.72-.1-.05-.1-.21.05-.31.36-.26.26-.62.26-1.03-.26.21-.1.46-.26.62-.1-.1-.46-.05-.15-.36.05-.05.05-.21.05-.31,0-.15.05-.31-.21-.31-.21,0-.26.1-.26.26,0,.1.05.26-.1.36-.15-.36-.67-.62-.98-.36-.41.36-.46.05-.62-.21-.15-.26-.36-.46-.72-.31.36-.62.77-.62,1.29-.15.1.1.21.21.36.15.1,0,.26.05.26-.1v-.31c-.26-.1-.26-.41-.36-.57-.21-.26,0-.57-.05-.62-.57-.41,0-.52.21-.67.31-.21.26-.41.05-.52-.15-.1-.31-.41-.62-.1-.26.26-.26.52-.15.83,0,.05.21.1.1.21-.26.31-.62.88-.88.83-.77-.05-.15.36-.21.46-.31.05-.57,0-.67-.36-.05-.1-.05-.21-.21-.1-.1.05-.21.21-.1.31.41.41.77.83,1.24,1.24.36.26.46.41.46.88,0,.1.1.1.15.1.1.21.26.41.62.52-.26.05-.36-.1-.52.05.31.57.88-.05,1.24.26-.21.46-.72.26-1.03.52-.05-.15-.41.05-.31-.1.1-.15.1-.21-.05-.26-.21-.1-.36-.26-.05-.41v-.21c-.05-.05-.21-.1-.26,0-.1.52-.36.05-.67.15.36-.46.31-.72-.21-.67-.15,0-.26-.05-.36-.15-.21-.26-.41-.15-.67,0,.1-.36.31-.67.57-.41s.41.31.72.26c.15-.05.46.21.46-.15,0-.31-.26-.36-.46-.36-.15,0-.26-.05-.41-.1.26-.46-.26-.46-.36-.72-.05-.21-.21-.31-.41-.26-.1,0-.21.05-.21.21,0,.26.05.46.36.46-.1.15-.36,0-.36.26,0,.1-.05.15-.15.15-.21-.05-.05-.21-.05-.21.21-.31.1-.67.15-1.03.05-.36.15-.57.52-.72.26-.1.26-.52-.05-.62-.46-.1-.41-.46-.41-.77h0c-.1-.15-.1-.26,0-.41h0c-.31-.26-.05-.52,0-.77-.31-.15-.41-.41-.36-.72,0-.15,0-.26-.15-.36-.31-.21-.31-.77-.83-.77v-.05c-.21-.1-.26.41-.41.1-.1-.1.15-.26.21-.41,0-.1.05-.21,0-.31-.36.26-1.14.15-.88,1.03-.1-.31-.31-.62-.21-.83.21-.41.67-.46,1.14-.52-.36,0-.52-.62-.77-.46-.46.36-.83-.15-1.24-.05-.15.05-.15-.1-.15-.26,0-.21.15-.05.21-.05.1,0,.31-.15.36.1.15-.05.31-.1.46-.15,0,0,.1-.1,0-.1-.36-.05-.21-.46-.41-.67.31.21.41-.05.57-.21-.31-.15-.57-.36-.83.05-.05.1-.21.21-.36.1-.15-.15,0-.26.05-.36,0-.05.1-.1.21-.15.26-.31.41-.62.26-1.14-.15.21-.41.31-.36.57.05.31-.15.46-.36.62-.31.21-.41.62-.52.98,0,.05.26.15,0,.21-.1,0-.26.05-.26-.1,0-.26-.21-.31-.41-.41.21-.1.52.05.57-.31.05-.46-.36-.52-.52-.88-.21.21,0,.46-.31.62.15-.41.21-.77-.26-.88-.41-.1-.21.36-.41.57,0-.41-.21-.52-.52-.57-.05,0-.21-.05-.21-.15,0-.05.05-.1.05-.1.15-.1.21.05.26.1.15.15.36.21.52,0s.31-.46.46-.72c.05-.1.1-.26-.1-.31-.1,0-.15.1-.21.21-.15.36-.46.46-.77.15-.15-.15-.31-.21-.52-.31-.26-.1-.57.05-.72-.1-.52-.41-.46-.41-.77.15-.05.1-.05.15-.15.15s-.15-.05-.21-.15-.05-.21.05-.26c.21-.05.15-.26.15-.41,0-.1-.15-.21,0-.26.1-.05.21-.05.31.05.21.15.46.31.52-.15,0-.15-.05-.36.21-.41.26-.05.26.21.31.31.1.26.36.21.46.15.15-.1.15-.46,0-.52-.46-.15-.36-.62-.57-.93-.05-.1,0-.21-.15-.26-.21,0-.15.15-.21.26-.15.21,0,.52-.26.77.05-.52-.31-.67-.52-.93-.26-.26-.57-.15-.88-.05-.21.05-.21.21-.15.36.1.36.46.26.67.26.41-.05.15.31.36.41-.46-.15-.77-.15-.67.46,0,.05-.05.1-.05.15-.1-.57-.83-.46-1.03-.93q.41-.1.57-.52c.1-.15.15-.46.46-.41.26,0,.31-.26.52-.36.05-.05.15-.15.05-.21-.05-.05-.15-.1-.31-.05-.31.1-.72-.05-1.03.21-.05.05-.15,0-.15-.1,0-.26-.26-.15-.36-.26.05-.21.41-.1.31-.36-.05-.1-.21-.36-.41-.1.05-.36,0-.72-.41-.88-.26-.1-.52-.1-.46-.52,0-.05-.15-.26-.41-.05-.26.26-.1.46-.21.67-.15-.26-.41-.1-.67-.1.31-.36.05-1.03-.36-1.14-.21,0-.52-.21-.62.21-.21-.1-.41-.31-.62-.1h-.05c-.1,0-.15-.05-.21-.1h-.21c.1-.05.15-.05.21-.15v-.05c0-.41-.36.05-.36-.15,0-.31-.41-.72.1-.98.05-.05.15-.1.1-.21-.31,0-.72-.26-.72.36,0,0-.05.05-.1.05-.21.05-.41.1-.41.36s.26.26.41.31c.1.05.26.15.26.26s-.15.21-.26.26c-.15.05-.21-.05-.26-.15-.1-.15-.21-.31-.41-.21q-.31.15-.52,0c.1-.21.52.05.46-.41,0-.41-.36-.31-.67-.46.41-.05.62-.26.93-.21.21.05.26-.1.26-.31,0-.15-.05-.26-.21-.21-.26.1-.52.05-.72.1-.15,0-.26.05-.21.21.05.52-.57.26-.67.62-.05,0-.1-.05-.1-.1-.05-.05,0-.1,0-.15.05-.1.26-.05.21-.21-.41-.1-.46-.15-.36-.36.1-.15.26-.26.1-.46-.15-.15-.36-.05-.57-.1-.15,0-.21.21-.36.15.05-.1,0-.26.21-.31s.15-.21.05-.31c-.31-.41-.77-.41-1.14-.05-.1.1-.31.21-.36.21-.41-.26-.57-.1-.67.26-.05.15-.31-.1-.36.15l-.05-.05c0-.15.05-.15.15-.21.31-.1,0-.31.05-.52h.36c.15,0,.41.1.41-.21-.05-.26-.15-.52-.46-.57-.1,0-.15,0-.21.1,0,.1.21.1.1.21-.1.05-.15-.05-.21-.1-.31-.31-.98-.21-1.08.21-.46-.05-.67-.52-1.14-.62-.21-.05-.77-.26-.67-.83-.15.21-.36.36-.57.21-.1-.26.46-.05.21-.31-.1-.15-.21-.26-.26-.41-.15-.26-.41-.31-.62,0-.1.15-.21.31-.36.36-.46.05-.98,0-1.45,0,.1-.21.21-.41.46-.26.05.05.26.1.21-.05-.05-.36.15-.41.41-.46-.1-.15-.46.05-.41-.31,0-.05-.36-.1-.57-.15,0,.36-.52.52-.31,1.03-.15-.1-.21-.15-.21-.21-.1-.1.05-.41-.26-.36-.15.05-.52.05-.31.41,0,.05,0,.21-.05.15-.31-.31-.46.46-.83.1-.05-.05-.1.15-.05.21.1.15.05.41.26.57-.36,0-.67.21-.93.46.1-.26.05-.46-.26-.57-.1-.05-.26.26-.26-.05,0-.15.05-.21.21-.21.36,0,.15-.31.21-.52.05-.21-.05-.26-.26-.21-.15.05-.31-.1-.41-.15-.36-.21-.93-.05-1.14-.62-.05-.15-.41-.15-.62-.26-.21.62-.52.31-.83.1-.05-.05-.15,0-.21-.05-.1,0-.26.05-.26.15s.1.15.21.15c.26,0,.46,0,.57.31-.21,0-.41.1-.52-.1-.21-.36-.15.21-.31.05-.05,0-.05-.05-.05-.05-.05-.41-.36-.15-.41-.1-.1.1-.26.21-.36.31s-.26.15-.31,0c-.05-.1-.21-.31,0-.41.26-.1.21-.41.57-.52-.31-.05-.52.21-.67,0-.05-.26.31-.1.21-.26-.05-.15-.26-.15-.41-.1-.26.1-.52.15-.72.41-.15.21-.46.21-.62,0-.36-.46-.67-.05-.88.1-.26.21-.15.52.21.72-.26.05-.41.05-.52-.15-.05-.15.21-.26,0-.46-.21-.26-.26.1-.31.05-.31-.21-.72-.46-.72-.88-.05-.52-.52-.15-.67-.41,0-.05-.1.1-.05.21.05.41.21.72.62.88.31.1,0,.36.15.46-.1.1-.15-.05-.26-.05-.15.26.26.36.15.57-.26-.1-.62.15-.77-.31-.05-.15-.31,0-.41.21-.21.26-.52.21-.72.1-.05,0-.21-.41.15-.52.1-.05.1-.31-.05-.46-.1-.1-.15-.05-.26,0-.15.1-.31.15-.26.41,0,.05.21.15.05.15-.46,0-.31.36-.26.52,0,.26.31.05.41.15-.05.21-.41-.1-.41.26-.1.05-.21-.1-.31,0-.41.31-.88.15-1.34.31-.31.1-.26-.15-.41-.26-.1-.05-.05-.1,0-.15.1-.15.26-.26.46-.1.1.05.26.1.31-.05.05-.15-.31-.83-.46-.83-.36.05-.52-.21-.67-.41-.36.31-.52.67-.26,1.14.05.05.05.1,0,.15-.31.46-.1.98-.31,1.45-.05.1.1.26-.15.26-.15,0-.31.15-.41-.05,0-.05.1-.26.21-.26.15-.05,0-.21.1-.26.41-.21.31-.57.15-.83-.21-.31-.41.1-.67.15,0-.26.15-.36.41-.41.15,0,.36-.1.31-.36,0-.1,0-.21-.15-.26-.52-.1-.98.05-1.39.26-.21.1-.72.1-.52.62.05.1-.21.1-.26.05-.36-.26-.83-.31-1.08-.67-.21-.26-.52-.15-.62.05-.15.36-.67.26-.72.72,0,.1-.15,0-.21-.05-.21-.52-.46-.31-.67,0-.1.1-.31.21-.21.41.1.21.31.21.46.1.21-.1.36,0,.41.21-.15-.1-.46-.1-.52,0-.15.31-.21,0-.31-.05-.31-.15-.26-.72-.67-.72-.15,0-.05-.36-.26-.15-.15.15-.1.31-.05.46.1.15.21.26.31.41.05.05.21.1.05.15-.31.15-.21.46-.21.67,0,.36-.1.52-.41.62-.05-.15,0-.21.15-.31.21-.1.15-.31.05-.52-.05-.1-.15-.15-.26-.05-.1.1-.1.31-.36.21-.21-.1-.21-.26-.1-.52.05-.15,0-.36-.15-.41-.15-.05-.26.15-.36.26-.21.36-.15.77-.31,1.14-.05.05.1.31-.15.21-.15-.05-.26.21-.41,0s.1-.21.15-.31c.05-.15.05-.26.1-.41-.15-.15-.41.05-.52-.15.05-.1.1-.1.21-.1.15.05.36.15.41-.1.05-.21.1-.41-.1-.52s-.36.05-.46.21c-.05.1-.1.15-.26.21s-.31.26-.1.46c.21.26.1.31-.15.41-.15.05-.62.21-.36.52.31.36.1.41-.15.52-.46.15-.52.41-.26.88-.31-.26-.36-.77-.1-.98.15-.15.26-.26,0-.41-.15-.05-.31-.05-.41-.26s-.93.15-1.03.36c0,.05-.05.21.1.1.1-.05.21-.26.31,0,.05.21-.15.21-.26.15-.46-.05-.46.41-.57.62-.15.36.26.1.36.21.05.05,0,.1,0,.21-.31-.05-.46-.05-.31.36.15.46.67.36.83.77.15-.31-.05-.46-.1-.62.21-.1.31,0,.41.05.21.21.1.41.05.62,0,.05-.1.31-.15.21-.31-.36-.52,0-.77,0-.15,0-.52.15-.46-.15.1-.67-.31-.62-.72-.57-.1,0-.26,0-.31-.21.21.1.41-.1.62,0,.1.05.26,0,.31-.15,0-.1-.1-.21-.26-.15-.21.1-.31,0-.26-.21.05-.15-.15-.21-.15-.31,0-.21-.15-.21-.21-.21-.1,0-.05.15-.05.26-.1.31,0,.72-.41.88,0,.05-.05.05-.05.1-.1.41.31.36.46.52-.21-.1-.46-.1-.72-.21-.15-.05-.31-.05-.41,0,0,.05-.05.15-.1.21,0,.15-.05.31,0,.46.05.26-.15.26-.31.36-.26.15-.1-.1-.15-.15-.1-.1-.26-.15-.41-.1-.15.05-.21.15-.21.31v.41c-.21-.31-.57-.36-.77-.67-.05-.1-.21-.05-.31,0-.15.1.05.15.05.21.05.1.1.26,0,.36-.1.05-.31.1-.31,0-.26-.57-.36-.15-.52.05s-.36.41-.62.52c-.1.05-.15.1-.21.26-.05.36.26.52.77.46-.1.15.05.41-.15.46-.15,0-.41,0-.52-.15-.31-.41-.41-.41-.62,0-.05.1-.05.36-.26.15-.15-.1-.31,0-.41-.15q-.21-.36-.41,0c-.05.1-.1.21-.15.26-.31.15-.21.46-.15.67.05.26.36.05.52.15.15.1.21-.26.36-.05.1.15.26.21.36,0,.05-.15.05-.31-.15-.31-.1,0-.1-.05-.1-.1s.05-.1.05-.1c.21.1.52.15.52.26,0,.52.46.36.72.52-.15.05-.41.05-.36.31,0,.1.05.26-.15.26s-.15-.15-.15-.26c0-.31-.15-.31-.46-.26-.36.05-.72.57-1.08-.05,0,.15-.05.21-.05.31.05.52-.46.67-.67.98-.15.21-.36,0-.57-.1-.15-.1-.26,0-.26.15.15,0,.21.05.21.21-.1.41.15.62.52.67-.41.26-1.03-.31-1.39.41-.05.05-.41.1-.41.41,0,.15-.21.1-.31.1,0-.41.05-.83-.52-.88-.1,0-.15-.1,0-.26.36-.26.72-.05,1.08-.15q-.15-.31-1.14-.41c-.57-.05-.1.57-.41.62-.15-.1.05-.46-.31-.41-.15,0-.36-.05-.31.21.1,0,.31-.05.31.15.05.41-.26.52-.57.67.15.15.31.26.46.41.05.05.15.21,0,.26-.52.15-.57.67-.77,1.03-.1.15-.15.36-.05.41.21.15.15-.26.36-.21,0,.15.1.36-.1.41-.26.1-.52.05-.67-.26-.31.41-.46.83-.1,1.19.21.26.21.46.21.77,0,.21-.05.41.05.62q.21-.1.21.1c0,.1.1.05.15.1.26.36.57.1.88-.05-.21.41-.62.62-.52,1.03.1,0,.21-.05.26-.05.1-.05.26-.1.31.05.05.15-.05.26-.15.26-.26.1-.52.36-.72-.1-.05-.15-.26-.21-.26.05,0,.1-.1.1-.15.15-.21.05-.26.21-.1.36.05.05.15.1.21.15.15.21.05.41,0,.57-.05.21-.21.21-.41.05-.26-.21-.31-.05-.36.21-.05.31.26.31.41.46-.31,0-.31.52-.62.31-.46-.31-.46,0-.52.36.21.21.62-.21.72.26-.26,0-.46.15-.46.36-.05.41-.36.46-.67.62.1-.36.05-.67-.26-.72-.15-.05-.36.21-.31.46.05.21-.21.15-.21.36.41-.05.67.21.88.57-.31-.1-.57,0-.88-.1-.36-.1-.31.31-.36.52-.05.15.1.15.31.15.36,0,.77-.1,1.14.21.1.1.26.15.26.26,0,.15-.1.36-.26.41-.1.1-.31.1-.41-.05-.1-.1-.1-.26-.31-.21-.1.05-.15.15-.15.26.05.21.26.1.36.15.05,0,.05.1.1.15-.36,0-.67.05-.93.26-.1.1-.21.15-.15.31.05.15.15.1.26.1.21,0,.36.05.36.31-.21-.1-.41-.41-.67,0-.1.1-.36.05-.31-.15.05-.26-.1-.62.26-.83s.21-.77-.15-.98c-.15-.05-.26-.15-.41-.26-.52-.41-.88-.36-1.29.15-.1.15-.15.41-.52.15-.26-.21-.52.1-.67.26-.1.1-.1.41.1.57.26.15.41.05.62-.15.05-.1.15-.21.31-.21.1.1.1.26,0,.41-.1.1-.26.26-.1.41.15.1.41.1.57,0,.1-.1.21-.26.31-.1.1.1.05.21-.05.36-.21.26-.21.46.15.62.57.26,1.29.15,1.7.72-.41.1-.46.41-.1,1.19-.21-.1-.26-.15-.31-.26-.21-.41-.36-.46-.67-.15-.15.15-.36.31-.62.41-.21.05-.62.21-.46.67.05.1.05.26-.05.31-.1,0-.21-.05-.31-.15-.05-.05-.05-.15-.26-.1,0,.36-.15.77.36.98.1-.15.1-.31,0-.36-.26-.21.05-.26.1-.26.31.31.88.1,1.08.62-.62.15-.67.77-.05,1.75-.31-.05-.31,0-.57.26-.05.05-.15,0-.26.05,0,.31.36.36.52.41.36.05.15.26.15.41.05.26-.15.1-.26.1-.15.05-.36-.05-.41.1-.1.21.21.21.31.36.46.31,0,.52-.15.62-.46.31-.41.83-.72,1.19-.05.05-.05.15-.05.21.41.21-.21.26-.05.41s.41-.26.57.15c.1.31.1.57-.1.77-.05.1-.36.15-.36.15.05-.41-.46-.41-.57-.72-.1.1.05.31-.05.41-.26-.15-.31-.41-.46-.67-.21.26-.26.46-.1.77.21.41.62.1.83.41-.57.26-.1.77-.21,1.19-.05.15.41.1.62.1s.41.05.36.31c0,.05,0,.21-.05.15-.52-.26-.46.21-.67.46-.1.15-.41.21-.31.52.05.26.31.26.46.41-.21.1-.31.31-.52.26-.15-.05-.31,0-.26.21,0,.15-.1.41.15.41.15,0,.26.05.26.21-.05.31.15.52.15.77-.26-.1.05.31-.15.26-.36-.1-.36.15-.31.36.05.21.15.41.41.31.41-.1.46.15.52.52-.21-.15-.26-.46-.57-.41-.05.15-.05.31,0,.46-.1.05-.26.05-.21.15.26.31-.1.67,0,.83.36.36-.05.62,0,.93l.05.05c.21,0,.05-.31.26-.26.1,0,.15.1.21.21,0,.15,0,.36-.21.41-.26.05-.21.15-.26.31-.05.41.05.72.31,1.14.05.1.05.26-.15.26-.46.05-.26.52-.21.57.31.15.05.36,0,.52-.05.21-.21.36-.36.52-.21.26-.21.93.05,1.14.21.15.41-.1.62.1-.05-.26-.1-.46-.21-.67-.05-.26.1-.31.31-.36.21-.05.21.26.15.31-.15.46,0,.98,0,1.45,0,.21-.41.31-.1.52.1.1.15.26-.05.36s-.26-.05-.36-.1c-.21-.15-.52-.36-.77-.36-.15,0-.31.31-.21.62.15-.26.36-.15.62-.1-.15.21-.31.36-.57.41.31.21.62.26.83.1.41-.36.93-.36,1.34-.62.1-.05.26-.21.36-.05.1.1-.21.15-.15.31-.72.05-.72.36-.52.72.1.21.15.36.1.57-.05.15.1.26.21.36.1.1.15,0,.21-.05.1-.36.46-.31.67-.26.26.05-.05.31,0,.46.1.26.21.52-.1.77-.41.31-.1.83.05.88.46.15.15.41.1.52-.15.36-.05.88.31,1.03.31.15.57.21.52-.31.1,0,.41-.05.26.15-.31.31.21.67-.15.98-.05.05.05.21.15.1.26-.15.67-.1.77-.52.1.1,0,.26.1.36.36.26.36.36-.05.52-.15.05-.15.21-.21.26-.05.15.1.21.21.26.36.26.46-.15.72-.26.05.1.05.26,0,.31-.26.21-.57.41.05.52.1,0,.21.1.21.21s-.1.1-.21.1c-.1.15,0,.36-.1.52h0c0,.21.1.57.21.52.31-.15.88.15.93-.52.36.36.46.88.98,1.03-.46.15-.62-.1-.83-.36-.05-.1-.1-.21-.31-.15-.1.05-.21.1-.21.26s-.05.31.15.36c.15.05.26.1.57.21-.62-.1-.41.46-.67.57-.15.05-.21.21-.1.36s.26,0,.36-.1c.21-.26.36-.26.52.1.05.21.41.26.46.05.15-.52.46-.15.67-.15.21-.05.21.26.26.46-.21,0-.26-.21-.46-.21s-.31.1-.21.31c.21.31.31.67.46.98.05.1.15.21.1.36-.1.15-.21.05-.26,0-.05-.1-.41,0-.15-.31.1-.15-.1-.36-.21-.36-.46-.05.05-.26-.1-.36-.21,0-.41-.05-.62.05.1.21.41.21.36.62-.15-.21-.31-.26-.52-.26-.15,0-.31,0-.31.21,0,.15.05.36.21.31.57-.1.52.31.62.62.26.05.52.05.72-.15.1-.1.36-.15.46.05.05.05.1.1.1.1.1.05.36-.1.26.21-.05.21-.05.46.26.41.1,0,.21-.15.21.05,0,.1.15.21.05.31-.1.1-.21.05-.31-.05-.1-.1-.15-.21-.36-.15-.21.1-.21.36-.15.41.1.15-.15.88.46.41.05-.05.1,0,.1,0,.15.36.62.21.83.52-.1.1-.21.21-.26.31-.05.1,0,.26.1.31s.15.21.26.1c.36-.41.46.21.77.15-.36.1-.67.15-.41.62.05.05.1.1.1.1.15.1.05.26.15.41.15,0,.41.15.46-.15,0-.31.26-.21.41-.26v.1c-.41.57-.36.72.26.88.1.05.26-.1.31.05.05.26.31.26.46.36,2.63-4.03,5.88-9.39,6.45-11.77.93-4.08,1.5-20.95,1.19-24.05-.26-3.2-3.35-13.88-.98-14.45s4.18,7.43,5.06,10.94c.83,3.51,2.27,5.21,3.56,4.7,1.39-.57,3.25-19.04,3.35-20.44.15-1.39.36-2.48,1.81-2.99,1.19-.41,2.58.46,2.53,1.7-.05,1.91-.77,15.07-.88,15.95-.15.83-.72,6.61,1.14,6.45,1.86-.15,5.21-20.44,6.66-23.48,1.86-3.97,4.95-2.27,4.54.83-.21,1.5-3.56,17.34-4.34,21.37-.62,3.3-.26,4.13.88,3.97s8.36-14.09,9.08-15.33c.72-1.29,1.7-3.82,4.39-2.94,2.22.72-1.86,8.62-1.86,8.62,0,0-6.25,13.47-8.21,16.83-1.96,3.35.57,5.37,1.81,4.9,1.55-.52,3.35-2.53,5.21-4.23s4.85-4.9,6.81-4.49,1.65,3.05-1.14,5.63c-1.75,1.6-16.52,19.3-21.32,22.09-1.6.93-4.13,4.34-6.86,8.41h.15c.31.05.26-.15.31-.41.05.21.15.36.15.52,0,.21.1.31.31.31s.36-.05.36-.31c0-.1,0-.26.15-.26.46.05.41-.26.36-.52-.05-.21,0-.21.15-.21.26,0,.62-.1.57.36,0,.21.15.31.31.36.21.05.36,0,.26-.26,0-.05.1-.05.21-.05-.05.15.1.36-.1.52-.15.1-.15.36-.46.26-.1-.05-.15-.26-.31-.1-.1.1-.1.26-.05.31.26.21.36.52.57.72.05.05.26.05.41.05.1,0,.1-.15.05-.21-.41-.52.1-.52.36-.67-.05-.15,0-.31-.1-.52.57.26.93-.36,1.45-.26.05,0,.1-.1.1-.21.05-.36.05-.67-.57-.67.67-.21.72-.21.67.21-.1.57.15.77.67.77h0c.26.1.46.1.72-.05.21-.1.46-.31.72-.1-.1.15-.26-.1-.31.1s.36.88.57.88c.46,0,.88.31,1.34.41h.26c.31-.15.67-.21,1.03-.21.41,0,.67-.1.57-.62.15-.05.31-.1.46.05.05.05.1.15.21,0,.15-.21.21-.15.36.05.1.1.21.15.21,0,0-.1.15-.26,0-.36.26.15.67.21.26.62,0,0-.15.15,0,.26.21-.1.46-.15.72,0,.05-.15-.05-.21-.1-.26-.05-.1-.26-.26-.1-.41.21-.21.21.1.31.1.1.05.21,0,.31-.1.21-.31.62-.46.77-.98.1.46.62.26.67.62,0,.15.05.26.21.31.15.05.26-.05.31-.15.1-.15.05-.26-.05-.41-.31-.31-.21-.57.15-.67.15-.05.26-.15.31-.31,0,.15.26.31-.1.41-.21.05-.15.31-.15.52,0,.05.1.15.15.15.26-.05.05-.31.26-.46-.05.26.21.52-.21.67-.21.1-.05.31.05.41.1.1.26.15.41-.05.15-.31.36-.1.52,0,.05,0-.1.36.15.31.21-.05,0-.31.05-.46.05-.31-.26-.52-.26-.83,0-.1.05-.21.15-.21.15,0,.05.1.05.15-.05.31.26.41.41.41.36.1.46.26.41.62-.05.31.26.52.41.36.21-.26.57-.21.72-.57.1-.26.21-.41-.1-.57.26-.1.31.1.46.15.1,0,.26.1.31-.05s-.05-.15-.15-.26c-.26-.21-.41-.46-.88-.52.46-.31,1.03.15,1.29-.36.1.41.57.1.72.41.15.26.62-.15.77.26.05-.05.15-.1.21-.15.1-.15.26-.21.41-.26.31-.21.72-.31.93-.57.31-.41.77-.52,1.19-.67.21-.05.31-.1.36-.36.05-.31-.15-.31-.41-.31.15-.1.26-.21.31-.15.21.05.31-.26.41-.1.05.15.46.41.05.67-.1.05-.1.31.05.36.26.1.41-.05.52-.26.05-.21.1-.46,0-.67-.1-.21-.05-.36,0-.62.15.15.15.36.26.52s.15.36.41.31c.26-.05.26-.26.31-.41,0-.1.05-.26.21-.31.41-.15.88-.31,1.34-.21.1-.36-.36-.15-.36-.46.26.15.52-.52.83.05,0,.05.26,0,.31-.21.1-.31.26-.36.57-.21.1.05.31.1.36-.05,0-.1.15-.26,0-.31-.15-.1-.26-.36-.46-.31-.52.1-.62.05-.62-.57.26.15.67.1.77.26.26.36.62.26.93.36-.05-.1.15-.26-.15-.36-.21-.05-.62-.1-.77-.46-.1-.31-.31-.36-.62-.31.46-.15.1-.41.21-.77.36.62.77.57,1.24.36-.05.57,0,.72.57.52.41-.15.26.21.41.26.26.05-.05.1-.1.15-.1.21.05.26.1.36s.15.26.36.15c.05-.05.1-.05.05-.15-.1-.52-.05-1.08-.83-1.14-.05,0-.15-.05-.1-.1.26,0,.52,0,.72-.1.26-.05.31-.26.15-.46-.1-.1-.36-.05-.31-.31.1-.26.31-.26.52-.31.41-.1.57-.36.31-.72.21-.1.52,0,.52-.31,0-.15.15-.15.21-.15.26,0,.31-.1.31-.31.05-.36.26-.62.67-.52-.05.1-.26.1-.21.31.21.05.36-.05.46-.26.1-.1.21-.1.31,0,0,0,.1.05,0,.1-.26.26-.46.57-.88.41-.15-.05-.26,0-.26.1-.05.21.15.15.26.15.31-.1.52-.05.52.31,0,.05.1.1.21.1-.26.77.57.62.83,1.03,0-.15.1-.31-.05-.41-.31-.15-.15-.41-.05-.62.1-.26.26-.41.57-.31.1,0,.21.15.26,0,.05-.1.05-.26-.1-.36q-.36-.31-.41-.62c.26.15.46.31.72.26.05-.21-.21-.15-.21-.31,0-.52-.31-.46-.67-.31-.1.05-.31.1-.36,0-.05-.1.05-.26-.05-.36.1-.05.26-.1.36-.1.41.15.62.05.67-.41.05.05.1.1.1.1,0,.31.26.41.52.41.31,0,.1-.26.15-.41.05-.1.1-.21.21-.26.31-.05.52-.15.62-.52.05-.15.31-.26.26-.46-.05-.36-.41-.05-.46-.21.15-.46.62-.57.93-.57.67.05.36-.52.57-.72.21-.21-.26-.15-.26-.26.21-.26.52-.15.62-.46.05-.31-.36-.05-.41-.31.1-.1.21-.21.31-.31.21.15.26.52.46.52.31-.1.05-.41.15-.67.26,0,.46-.05.67-.26.05-.05,0-.26.1-.15.31.21.41-.1.41-.26,0-.31-.26-.31-.46-.26-.15.05-.36,0-.36-.1-.05-.52-.62-.62-.83-.98.41-.05.57.36.77.57.21.15.31.21.52.1v-.36c.05-.1-.21-.26.05-.26.1,0,.36-.1.36.15,0,.1.05.15.15.26.15-.1.15-.57.52-.21.05.05.26.05.26-.05.05-.1.1-.31-.1-.36-.31-.1-.41-.41-.57-.62-.05-.1-.21-.21-.1-.36.15.15.31-.26.52-.05.15.21.36,0,.31-.15-.05-.21-.1-.46-.36-.52-.1,0-.26.05-.26-.1,0-.1.1-.21.21-.21.21.05.15-.26.31-.21.05.1-.1.26.05.41.31.31.62.57.83.93.05.15.26.15.36.1.15-.1.1-.21-.05-.31-.1-.05-.1-.26-.05-.36s.15-.05.26,0c.15.05.46.15.52-.05.1-.31.46-.57.15-.93-.05-.05-.21-.1-.1-.15.1-.1.31-.21.1-.36-.15-.1-.52,0-.52.15-.05.46-.77.62-.26,1.29-.62-.36-.62-.41-.36-.72.05-.05.1-.15.15-.21.26-.15.21-.57.31-.62.57-.1.05-.77.52-.93-.05-.05-.1-.1-.1-.1,0-.1-.31-.1-.21-.15.21-.1.15-.41.41-.36.15.05.21.21.21.36,0,.1-.05.15.05.26.36-.1.41-.31.26-.62-.05-.05-.31.21-.15-.05.05-.1.05-.72.57-.41.1.05.46,0,.41-.21,0-.41.26-.52.46-.72.15-.15.21-.31.15-.52s-.26-.1-.36-.1c-.21,0-.31-.05-.26-.26.15-.41.52.15.72-.15.05-.05.1.05.1.1-.05.31.15.31.36.26.1,0,.21.05.26-.1.1-.26-.15-.31-.26-.46-.62-.52-.57-.83.05-1.29h.05c.26,0,.21-.26.21-.36,0-.26-.21-.05-.31-.05-.41,0-.83.15-.88-.52,0-.21.05-.26.1-.26.26-.1.31-.1.31-.52.15.36.36.52.52.72.26.41.52.41.77,0-.05-.1-.1-.26-.1-.36-.1,0-.21,0-.26.05-.21.15-.31,0-.41-.1-.1-.15,0-.31.05-.36.15-.26.15.21.36.1.1-.52-.41-.67-.62-1.03.26-.05.36.05.46.21.26.31.26-.15.41-.15,0,0,.05,0,.05.05.05.26.21.21.41.1.15-.1.1-.26.05-.31-.1-.21-.31-.15-.41-.1-.46.21-.67-.26-1.03-.41-.1-.05.46-.36.21-.72h.15c.31,0,.15.21.15.31,0,.52.41.62.72.62s.57-.31.67-.67c.05-.26,0-.41-.31-.36-.26.05-.41-.15-.57-.26.31-.41.57-.21.83.05.26-.72-.46-.52-.67-.77.1-.26.31-.52.46-.72.21-.31.15-.72.52-.93.21-.1.41,0,.62-.21-.41-.1-.83.1-1.08-.31.41-.31,1.14-.15,1.29-.83-.26-.1-.41-.05-.57.15-.26.31-.05.05-.1.05-.41,0-.77-.05-1.14-.21-.26-.1-.1-.36-.1-.62.21.1.36.1.52.21.15.1.36.1.46-.05.15-.31.36-.57.62-.83.15-.1.15-.31,0-.41-.1-.1-.26,0-.36.15-.21.21-.41.36-.67.62.21-.72.72-1.14.83-1.86.15.21.31.31.31.41,0,.57.57.21.77.52.1-.05.05-.21,0-.21-.46-.05-.1-.21,0-.26.26-.1.15-.26.15-.41,0-.26-.21-.21-.31-.15-.15.05-.21,0-.26-.1-.26-.26-.62-.41-.62-.88,0-.1-.41-.1-.15-.41.1-.1.15-.15.36-.15.41.05.52-.46.83-.62.1.15.1.31.05.41-.05.41.31,0,.36.21,0,.05.15.15.15,0s.26-.26.05-.41c-.1-.05-.15-.1-.26-.21-.41-.31-.41-.67,0-.93.1-.05.15-.1.1-.21,0-.1-.1-.15-.21-.1-.26.05-.46.15-.52.36-.26.72-.46.88-1.29.93-.1-.15.41-.15.1-.41-.05-.05.21-.21.26-.36.05-.1.05.15.15.21.15.05.31.05.41-.05.1-.1.26-.15.21-.31-.05-.15-.21-.15-.36-.15s-.21-.1-.26-.21c-.21-.31-.05-.52.1-.77.15-.1.31-.21.26.1,0,.21-.1.52.31.46.31,0,.67.1.88-.26.15-.31-.26-.41-.41-.67.46-.21.77-.41.67-1.03-.05-.41,0-.83-.41-1.03-.21-.1-.26-.15-.15-.36.1-.21.15-.41-.21-.26-.1.05-.31,0-.41.15-.05-.1-.05-.15,0-.26.1-.15.05-.26-.05-.36s-.31-.1-.41,0c-.21.36-.26-.05-.41-.1-.05,0-.1-.26-.1-.26-.77,0-.26-.41-.26-.77.21.41.67.36.72.77,0,.1.15.1.26.05s.21-.21.15-.31c-.15-.31.05-.52.1-.77-.15-.15-.46.05-.52-.21,0-.31.31-.15.46-.15.1-.05.21-.05.21-.15s0-.21-.15-.26c-.1,0-.21.15-.36.05.21-.15.52-.26.31-.57s-.41.05-.62.05c-.36.05-.77.36-1.08-.21.26,0,.52.46.72.1.21-.36.46-.21.72-.21.31,0,.21-.36.41-.46,0,0,0-.21-.05-.26-.15-.1-.31-.05-.41.1-.15.15-.26-.05-.36-.15-.21-.21.1-.15.1-.21.05-.15.36-.26.26-.36-.31-.26-.62-.46-.52-.88-.52.1-.46-.46-.83-.62-.15-.05-.36-.21-.15-.31.21-.1.52-.21.72.1.1.1.41.21,0,.31-.15.05-.1.21-.1.31.1.21.21,0,.31,0,.15,0,.52-.41.46.15.15-.05.26.26.52,0s.15-.52.1-.77c-.1-.41.31-.83.72-.83.21,0,.31.21.41.26.15.1-.15.15-.21.26,0,.1-.1.15-.21.21.36.26-.05.62.15.93.26-.36.26-.93.98-.83-.21-.21-.36-.36-.41-.57.26-.05.57.05.77-.1q.26-.21.36.1c.05.1,0,.15.15.15.36,0,.36.31.41.57.05.41.21.62.62.46.26-.1.31,0,.31.26,0,.15-.1.41.15.52.1-.26-.05-.52.21-.67.46.16.46-.15.36-.21Zm-79.9,31.53c.15.1.26.31.41.36-.21,0-.26-.21-.41-.36Zm32.36-59.1q.05,0,.1.05s.05.05.05.1h0c-.05-.1-.1-.15-.15-.15Zm2.32,78.45h0s.05,0,0,0q.05,0,0,0t0,0c.05,0,0,0,0,0Zm.62-.36c-.1,0-.21.05-.36.15h-.05c.15-.1.26-.15.41-.15.1-.05.21,0,.31.1l.05.05c-.15-.1-.26-.15-.36-.15Zm.72.31s.05,0,0,0c.15,0,.31,0,.46.05h0c-.1-.05-.31-.05-.46-.05Zm23.74-70.66c-.05,0-.1.05-.15.05s-.1.05-.1.05c-.05,0-.1.05-.15.05.1,0,.26-.1.41-.15Zm-4.23-1.86h0c0,.05-.05.1-.05.15,0-.05.05-.1.05-.15Zm-.62.52h0c-.15.05-.21.05-.31.05h0c.1,0,.21-.05.31-.05Zm5.63,62.4h0q.05,0,0,0c.05,0,0,0,0,0Zm9.39-36.44v.1c-.05.57-.1,1.08-.21,1.65-.05.52-.21,1.03-.46,1.5-.36.62-.77,1.19-1.29,1.7-.93.93-2.06,1.5-3.3,1.91h0c-.05,0-.1.05-.21.05-.05,0-.1,0-.15.05-.1,0-.26.05-.36.05-.26,0-.41-.15-.26-.41.1-.26.26-.46.52-.57.1-.05.15-.1.26-.1.72-.36,1.45-.67,2.06-1.14.36-.26.72-.57.93-.98.31-.57.57-1.14.88-1.7.36-.67.46-1.34.41-2.12-.05-.72-.15-1.45-.21-2.17-.05-.57-.21-1.08-.46-1.6-.36-.77-.83-1.5-1.34-2.17-.36-.46-.77-.98-1.24-1.34-.88-.67-1.91-1.03-3.05-1.03-.72,0-1.45.1-2.17.21-.31.05-.62.1-.93.21-.93.21-1.75.57-2.58,1.08-.77.46-1.39,1.03-1.91,1.75-.26.41-.57.77-.88,1.19-.41.52-.57,1.08-.52,1.7,0,.31.05.67.1.98.26,1.19.62,2.43.98,3.56.26.83.77,1.5,1.5,1.96.62.46,1.34.77,2.06,1.08.31.1.57.15.88.15.77-.05,1.55-.15,2.27-.31.36-.1.67-.15,1.03-.26.31-.1.67-.26.98-.41.93-.46,1.7-1.14,2.32-2.01.52-.67.83-1.45.83-2.32.05-1.14-.21-2.22-.72-3.25-.41-.77-.93-1.45-1.55-2.06s-1.39-.93-2.27-.98h-1.45c-.36,0-.77.05-1.14.15-.15.05-.31.05-.46.1-.46.15-.88.41-1.24.77-.52.41-.93.88-1.34,1.39-.46.57-.72,1.19-.83,1.91-.1.88.1,1.7.41,2.48.36.83.88,1.5,1.6,2.01.67.52,1.45.77,2.32.77.41,0,.83-.05,1.19-.15.05,0,.15-.05.21-.05.1-.05.21-.05.36-.1.21-.05.36-.15.57-.26.46-.21.83-.46,1.19-.83.77-.88,1.19-1.91,1.08-3.1-.05-.88-.31-1.65-.88-2.37-.77-.98-1.81-1.29-2.99-1.08-.21.05-.41.1-.62.15-.21.05-.41.15-.62.21-.57.21-.93.62-1.19,1.14-.1.26-.21.52-.26.77-.26.98-.1,1.91.46,2.74.26.41.62.67,1.08.77.41.1.77,0,1.14-.1,1.08-.41,1.5-1.29,1.45-2.27,0-.31-.1-.57-.31-.77-.41-.46-.93-.62-1.55-.52-.1,0-.15.05-.21.05-.21.1-.36.26-.46.52-.05.15-.1.26-.1.41-.05.31.05.57.31.72.15.1.26.31.26.52,0,.15-.1.26-.26.31h-.26c-.52-.1-.83-.36-.98-.88-.15-.52-.1-1.03.1-1.55.26-.62.67-1.08,1.19-1.29.21-.05.41-.15.62-.15.93-.1,1.75.21,2.37.88.77.83.93,1.81.72,2.89-.1.41-.31.72-.67.98-.21.15-.41.31-.67.41-.72.41-1.45.77-2.22,1.03h0c-.26.1-.57.1-.83,0-.21-.1-.41-.15-.57-.26-.67-.36-1.19-.88-1.55-1.55-.26-.46-.36-.98-.41-1.5-.05-.88.1-1.75.62-2.48.31-.52.72-.93,1.24-1.24.52-.36,1.08-.67,1.65-.83.57-.15,1.19-.21,1.86-.05.72.15,1.39.36,2.06.77.31.21.57.46.72.83,0,.05.05.15.1.21.41.88.77,1.81,1.08,2.74.1.41.21.88.21,1.29,0,.26-.1.52-.26.67-.1.1-.21.26-.31.36-.93.88-2.01,1.6-3.1,2.22-.31.15-.67.36-1.03.46-.36.15-.72.21-1.08.26-.83.1-1.6,0-2.32-.31-.77-.31-1.45-.83-2.06-1.5-.52-.62-.93-1.29-1.19-2.01-.36-1.08-.36-2.22-.1-3.35.21-.93.57-1.75,1.24-2.48.57-.57,1.19-1.03,1.91-1.39.46-.26.98-.46,1.45-.62.52-.15,1.03-.26,1.55-.31.72-.05,1.45,0,2.12.21,1.24.41,2.32,1.14,3.25,2.06.52.52.93,1.14,1.24,1.81.62,1.45.77,2.99.46,4.54-.15.72-.41,1.39-.77,1.96-.46.72-1.14,1.24-1.81,1.7-.46.31-.98.57-1.5.77-1.08.52-2.22.83-3.46,1.03-.62.1-1.29.1-1.91.05-1.03-.1-1.91-.52-2.74-1.19-.88-.72-1.6-1.65-2.12-2.68-.88-1.7-1.14-3.51-.88-5.42.15-1.03.46-1.96.98-2.84.72-1.19,1.65-2.17,2.89-2.89.77-.46,1.65-.77,2.53-.98.52-.1,1.03-.21,1.6-.26.15,0,.31,0,.41-.05h1.14c1.08.05,2.12.31,3.15.72,1.08.46,2.01,1.14,2.74,2.12.62.83,1.03,1.7,1.34,2.68h0c.26.77.46,1.6.57,2.43,0,.15.05.31.05.46v1.24h-.05Z"/>
    </g>
  </g>
  <g class="cls-1">
    <path class="cls-3" d="m176.79,248.12c-2.06,0-2.12.05-2.12,1.45v7.23c0,4.65.31,5.11,2.58,5.42l1.6.21c.41.31.41,1.45,0,1.75-2.84-.1-5.37-.15-7.64-.15-2.43,0-4.9.05-7.48.15-.41-.31-.41-1.45,0-1.75l1.19-.15c2.32-.31,2.58-.83,2.58-5.47v-18.68c0-4.65-.26-5.16-2.58-5.47l-1.19-.15c-.41-.31-.41-1.45,0-1.75,2.48.1,5.06.15,7.48.15,2.27,0,4.75-.05,6.97-.15.41.31.41,1.45,0,1.75l-1.03.15c-2.17.31-2.48.83-2.48,5.47v5.83c0,1.45.05,1.5,2.12,1.5h10.43c2.12,0,2.12-.05,2.12-1.5v-5.83c0-4.65-.26-5.06-2.58-5.42l-1.34-.21c-.41-.31-.41-1.45,0-1.75,2.79.1,5.21.15,7.64.15s4.75-.05,7.07-.15c.41.31.41,1.45,0,1.75l-.98.15c-2.32.36-2.63.83-2.63,5.47v18.68c0,4.65.31,5.01,2.63,5.42l1.19.21c.41.31.41,1.45,0,1.75-2.53-.1-4.95-.15-7.28-.15-2.53,0-4.95.05-7.38.15-.41-.31-.41-1.45,0-1.75l1.08-.15c2.32-.31,2.58-.83,2.58-5.47v-7.23c0-1.39,0-1.45-2.12-1.45h-10.43Z"/>
    <path class="cls-3" d="m207.71,238.16c0-4.65-.31-4.95-2.58-5.42l-1.24-.26c-.41-.31-.46-1.39.1-1.7,2.43.1,4.9.15,7.33.15s4.9-.05,7.33-.15c.41.31.41,1.39,0,1.7l-1.19.21c-2.27.41-2.58.83-2.58,5.47v11.61c0,5.88.67,12.34,8.31,12.34,6.45,0,8.36-5.63,8.36-12.49v-6.09c0-4.08-.21-7.9-.77-9.19-.46-1.03-1.55-1.34-2.89-1.6l-1.34-.26c-.41-.41-.31-1.39,0-1.7,2.74.1,4.65.15,6.71.15,1.86,0,3.72-.05,5.63-.15.31.31.41,1.29,0,1.7l-.93.21c-1.29.31-2.27.62-2.74,1.65-.57,1.29-.77,5.11-.77,9.19v5.63c0,4.7-.46,9.03-3.2,12.13-2.22,2.37-5.88,3.61-9.96,3.61-3.82,0-7.23-.62-9.96-2.79-2.63-2.17-3.72-5.88-3.72-11.35v-12.59h.1Z"/>
    <path class="cls-3" d="m241.1,232.54c-.41-.41-.41-1.6.15-1.75,1.7.1,3.87.15,6.35.15,1.65,0,3.1,0,4.9-.15,0,3.1,1.75,6.19,3.97,10.89l3.3,7.07c.46.98,2.27,4.18,2.94,5.42.67-1.19,1.45-2.79,2.79-5.73l2.58-5.52c2.43-5.16,3.66-7.85,4.75-12.13,2.32.21,3.46.15,4.95.15,1.65,0,3.97-.05,5.78-.15.57.31.57,1.24.15,1.75l-1.45.26c-2.06.36-3.05.93-3.05,3.61,0,10.32.1,15.79.41,22.09.1,2.32.31,3.51,2.27,3.77l1.6.21c.41.41.41,1.55-.1,1.75-2.32-.1-4.49-.15-6.92-.15-2.27,0-5.01.05-7.43.15-.62-.26-.67-1.39-.15-1.75l1.5-.21c2.32-.31,2.32-.93,2.32-3.97l-.1-13.06v-5.73h-.1c-3.72,8.05-7.74,16.41-11.04,24.93-.26.21-.62.36-.98.36-.46,0-.98-.1-1.29-.31-1.96-6.25-8.15-18.68-10.94-25.19h-.1c-.21,3.25-.26,5.47-.31,8.1-.05,3.25-.1,8.31-.1,11.3,0,2.53.31,3.2,2.32,3.51l1.96.31c.41.36.31,1.5-.1,1.75-1.86-.1-4.03-.15-5.94-.15-1.6,0-3.51.05-5.52.15-.67-.21-.67-1.5-.21-1.75l.93-.15c2.58-.46,2.84-.77,3.15-3.87.26-2.48.41-6.81.72-11.61.21-3.35.31-7.43.31-10.17s-1.08-3.61-3.1-3.97l-1.19-.21Z"/>
    <path class="cls-3" d="m295.3,252.72c-1.19,0-1.34.05-1.65.98l-1.96,5.83c-.31.98-.36,1.39-.36,1.81,0,.31.67.62,2.06.88l1.5.26c.31.36.41,1.5-.1,1.75-1.75-.1-3.56-.1-5.68-.15-1.7,0-2.84.15-5.16.15-.57-.31-.52-1.34-.15-1.75l1.34-.15c1.19-.15,2.22-.57,3.05-2.53.88-2.01,1.81-4.44,3.15-8.05l4.59-12.23c1.14-3.15,2.01-4.9,1.86-6.4,2.43-.57,4.28-2.99,4.39-2.99.67,0,.93.26,1.14.98.41,1.45.98,3.3,2.27,6.86l6.81,19.66c1.03,2.99,1.5,4.18,3.35,4.49l1.91.31c.31.26.41,1.45-.05,1.75-2.43-.1-5.11-.15-7.74-.15s-4.49.05-6.76.15c-.57-.31-.67-1.34-.1-1.75l1.6-.26c1.14-.21,1.34-.57,1.34-.88,0-.36-.36-1.55-.93-3.41l-1.34-4.34c-.26-.83-.67-.93-2.43-.93h-5.94v.1Zm5.73-2.68c1.14,0,1.39-.15.98-1.45l-1.29-4.08c-.72-2.17-1.6-4.85-2.06-5.94-.41,1.14-1.39,3.87-2.17,6.19l-1.24,3.77c-.46,1.34-.21,1.5,1.03,1.5h4.75Z"/>
    <path class="cls-3" d="m349.07,255.5c0,3.25,0,6.45.1,8.1-.36.62-1.75,1.14-2.94,1.14-.05,0-1.7-2.58-4.08-5.47l-11.61-14.35c-2.89-3.56-4.59-5.68-5.47-6.45-.26.52-.26,1.34-.26,3.2v9.75c0,4.08.21,7.85.77,9.19.46,1.03,1.6,1.39,2.89,1.6l1.39.21c.41.41.31,1.45,0,1.75-2.74-.1-4.7-.15-6.71-.15-1.86,0-3.72.05-5.63.15-.31-.31-.41-1.34,0-1.75l.88-.15c1.34-.26,2.37-.62,2.79-1.65.57-1.34.72-5.11.72-9.19v-12.75c0-2.79-.05-3.56-.36-4.28-.41-.88-1.08-1.45-2.84-1.7l-1.39-.21c-.36-.41-.31-1.6.21-1.75,2.37.1,4.85.15,6.92.15,1.7,0,3.15-.05,4.23-.15.52,2.27,3.77,6.09,8.31,11.46l4.23,4.95c2.22,2.63,3.66,4.39,4.8,5.52.21-.52.21-1.34.21-2.27v-6.92c0-4.08-.21-7.85-.77-9.19-.46-1.03-1.55-1.39-2.89-1.6l-1.34-.21c-.41-.41-.31-1.45,0-1.75,2.74.1,4.65.15,6.71.15,1.86,0,3.66-.05,5.63-.15.31.31.41,1.34,0,1.75l-.93.15c-1.29.21-2.27.62-2.74,1.65-.57,1.34-.77,5.11-.77,9.19v12.03h-.05Z"/>
    <path class="cls-3" d="m366.83,256.74c0,4.7.31,5.06,2.63,5.47l1.39.26c.41.31.36,1.45-.05,1.75-2.74-.1-5.16-.15-7.54-.15s-4.9.05-7.64.15c-.41-.31-.41-1.45,0-1.75l1.39-.26c2.32-.41,2.63-.77,2.63-5.47v-18.48c0-4.7-.31-5.06-2.63-5.47l-1.39-.26c-.41-.31-.41-1.45,0-1.75,2.74.1,5.21.15,7.64.15s4.85-.05,7.59-.15c.41.31.41,1.45,0,1.75l-1.39.26c-2.32.41-2.63.77-2.63,5.47v18.48h0Z"/>
  </g>
  <g class="cls-1">
    <path class="cls-3" d="m385.36,234.65c0-1.19,0-1.45-1.19-1.45h-3.1c-3.66,0-4.7,2.01-6.25,5.68-.62.31-1.55.21-1.86-.46,1.03-3.46,1.29-6.55,1.65-8.52.21-.15.46-.26.72-.26s.52.05.72.21c.26.88.41,1.03,4.23,1.03h18.68c3.3,0,4.08-.05,4.54-1.08.21-.1.36-.15.67-.15s.67.21.77.36c-.52,1.7-.88,5.78-.77,8.62-.26.46-1.6.57-1.86.15-.88-3.2-1.55-5.57-5.32-5.57h-3.15c-1.19,0-1.34.15-1.34,1.45v22.14c0,4.65.31,5.06,2.58,5.37l2.01.26c.36.31.36,1.45,0,1.75-3.25-.1-5.78-.15-8.05-.15-2.43,0-5.01.05-8.52.15-.41-.31-.41-1.45,0-1.75l2.27-.26c2.27-.26,2.58-.72,2.58-5.37v-22.14h-.05Z"/>
  </g>
  <g class="cls-1">
    <path class="cls-3" d="m411.37,252.72c-1.19,0-1.34.05-1.65.98l-1.96,5.83c-.31.98-.36,1.39-.36,1.81,0,.31.67.62,2.06.88l1.5.26c.31.36.41,1.5-.1,1.75-1.75-.1-3.56-.1-5.68-.15-1.7,0-2.84.15-5.16.15-.57-.31-.52-1.34-.15-1.75l1.34-.15c1.19-.15,2.22-.57,3.05-2.53.88-2.01,1.81-4.44,3.15-8.05l4.59-12.23c1.14-3.15,2.01-4.9,1.86-6.4,2.43-.57,4.28-2.99,4.39-2.99.67,0,.93.26,1.14.98.41,1.45.98,3.3,2.27,6.86l6.81,19.66c1.03,2.99,1.5,4.18,3.35,4.49l1.91.31c.31.26.41,1.45-.05,1.75-2.43-.1-5.11-.15-7.74-.15s-4.49.05-6.76.15c-.57-.31-.67-1.34-.1-1.75l1.6-.26c1.14-.21,1.34-.57,1.34-.88,0-.36-.36-1.55-.93-3.41l-1.34-4.34c-.26-.83-.67-.93-2.43-.93h-5.94v.1Zm5.73-2.68c1.14,0,1.39-.15.98-1.45l-1.29-4.08c-.72-2.17-1.6-4.85-2.06-5.94-.41,1.14-1.39,3.87-2.17,6.19l-1.24,3.77c-.46,1.34-.21,1.5,1.03,1.5h4.75Z"/>
    <path class="cls-3" d="m443.73,264.84c-4.65,0-7.48-1.29-8.52-1.91-.93-1.08-1.6-4.7-1.6-8.15.36-.67,1.5-.72,1.91-.15.98,3.25,4.39,7.9,8.62,7.9,3.72,0,5.42-2.58,5.42-5.06,0-4.08-3.82-6.5-6.81-8-3.61-1.81-7.59-4.8-7.59-9.81-.05-5.68,4.39-9.6,11.66-9.6,1.65,0,3.72.21,5.73.83.67.21,1.08.31,1.7.41.41,1.08.93,3.82.93,7.17-.26.62-1.5.67-1.96.15-.88-2.58-2.99-6.25-6.61-6.25-3.3,0-5.11,2.17-5.11,4.65,0,2.32,2.06,4.44,4.59,5.73l3.3,1.75c3.1,1.65,7.07,4.59,7.07,10.12-.1,6.19-5.21,10.22-12.75,10.22Z"/>
  </g>
  <g class="cls-1">
    <path class="cls-3" d="m174.42,282.44c1.6,0,2.22,1.03,2.22,2.68v4.9c0,.41.57.57,1.19.67.1,0,.21.1.21.26,0,.1,0,.21-.05.31-.67-.05-1.34-.1-2.12-.1-.72,0-1.45.05-2.12.1,0-.1-.05-.26-.05-.31,0-.15.1-.21.21-.26.46-.1,1.08-.26,1.08-.67v-4.13c0-1.65-.36-2.12-1.29-2.12-1.39,0-2.63.93-2.63,2.58v3.66c0,.41.57.57,1.08.67.1,0,.21.1.21.26,0,.1,0,.21-.05.31-.72-.05-1.34-.1-2.06-.1s-1.45.05-2.12.1c0-.1-.05-.26-.05-.31,0-.15.1-.21.21-.26.46-.1,1.08-.26,1.08-.67v-4.13c0-1.65-.36-2.12-1.29-2.12-1.39,0-2.63.93-2.63,2.58v3.66c0,.41.57.57,1.08.67.1,0,.21.1.21.26,0,.1,0,.21-.05.31-.72-.05-1.34-.1-2.12-.1s-1.45.05-2.12.1c0-.1-.05-.26-.05-.31,0-.15.1-.21.21-.26.57-.1,1.19-.26,1.19-.72v-5.47c0-.83-.21-1.08-1.14-1.19-.15,0-.26-.1-.26-.26,0-.1,0-.21.05-.26.36,0,1.08-.05,1.5-.1.62-.1,1.14-.26,1.34-.26s.26.1.26.31c0,.36-.1.88-.1,1.7.21-.15,1.55-2.01,3.41-2.01,1.39,0,2.01.77,2.17,2.01.21-.1,1.6-2.01,3.41-2.01Z"/>
  </g>
  <g class="cls-1">
    <path class="cls-3" d="m194.24,284.56c0-.88-.15-1.08-1.08-1.19-.15,0-.26-.1-.26-.26,0-.1,0-.21.05-.26.36,0,1.03-.05,1.45-.1.57-.1,1.08-.26,1.29-.26s.26.1.26.31v5.06c0,1.34.26,2.32,1.5,2.32,1.34,0,2.63-.93,2.63-2.63v-2.94c0-.83-.15-1.08-1.08-1.19-.15,0-.26-.1-.26-.26,0-.1,0-.21.05-.26.36,0,1.03-.05,1.45-.1.57-.1,1.03-.26,1.24-.26s.26.1.26.31v6.55c0,.88.15,1.08,1.08,1.19.15,0,.26.1.26.26,0,.1,0,.21-.05.26-1.03,0-2.37.36-2.68.36-.21,0-.26-.1-.26-.31v-1.65c-.21.15-1.55,2.01-3.41,2.01-1.65,0-2.48-.98-2.48-2.68v-4.28h.05Z"/>
    <path class="cls-3" d="m223.92,284.92c-.21,0-.31-.1-.31-.21-.21-1.08-.93-1.55-1.91-1.55-.77,0-1.5.46-1.5,1.24,0,.72.46,1.08,1.91,1.55,1.55.46,2.68,1.08,2.68,2.79,0,1.39-.98,2.63-3.2,2.63-.83,0-2.01-.21-2.89-.67-.05-.67-.1-1.45-.1-2.27h.21c.26,0,.46.1.52.31.1,1.14.93,1.86,2.27,1.86,1.08,0,1.7-.57,1.7-1.39,0-.88-.67-1.29-1.91-1.65-1.6-.46-2.53-1.14-2.53-2.68,0-1.39,1.08-2.53,2.84-2.53,1.08,0,2.12.36,2.63.67.05.41.1,1.29.1,1.86l-.52.05Z"/>
    <path class="cls-3" d="m247.97,289.21c.15,0,.26.15.36.36-.67.98-1.81,1.91-3.87,1.91s-4.03-1.39-4.03-4.28c0-2.74,2.37-4.7,4.23-4.7,2.48,0,3.56,1.6,3.56,3.92q0,.1-.1.1l-5.83.26c0,2.12,1.19,3.61,3.1,3.61.83,0,1.7-.46,2.22-1.08.1-.05.21-.1.36-.1Zm-5.73-3.15l3.82-.21c.21,0,.31-.1.31-.26,0-1.03-.62-2.37-1.96-2.37s-2.17,1.14-2.17,2.84Z"/>
    <path class="cls-3" d="m264.95,284.56c0-.88-.15-1.08-1.08-1.19-.15,0-.26-.1-.26-.26,0-.1,0-.21.05-.26.36,0,1.03-.05,1.45-.1.57-.1,1.08-.26,1.29-.26s.26.1.26.31v5.06c0,1.34.26,2.32,1.5,2.32,1.34,0,2.68-.93,2.68-2.63v-2.94c0-.83-.15-1.08-1.08-1.19-.15,0-.26-.1-.26-.26,0-.1,0-.21.05-.26.36,0,1.03-.05,1.45-.1.57-.1,1.03-.26,1.24-.26s.26.1.26.31v6.55c0,.88.15,1.08,1.08,1.19.15,0,.26.1.26.26,0,.1,0,.21-.05.26-1.03,0-2.37.36-2.68.36-.21,0-.26-.1-.26-.31v-1.65c-.21.15-1.55,2.01-3.41,2.01-1.65,0-2.48-.98-2.48-2.68v-4.28h0Z"/>
    <path class="cls-3" d="m301.13,282.44c1.6,0,2.22,1.03,2.22,2.68v4.9c0,.41.57.57,1.19.67.1,0,.21.1.21.26,0,.1,0,.21-.05.31-.67-.05-1.34-.1-2.12-.1-.72,0-1.45.05-2.12.1,0-.1-.05-.26-.05-.31,0-.15.1-.21.21-.26.46-.1,1.08-.26,1.08-.67v-4.13c0-1.65-.36-2.12-1.29-2.12-1.39,0-2.63.93-2.63,2.58v3.66c0,.41.57.57,1.08.67.1,0,.21.1.21.26,0,.1,0,.21-.05.31-.72-.05-1.34-.1-2.06-.1s-1.45.05-2.12.1c0-.1-.05-.26-.05-.31,0-.15.1-.21.21-.26.46-.1,1.08-.26,1.08-.67v-4.13c0-1.65-.36-2.12-1.29-2.12-1.39,0-2.63.93-2.63,2.58v3.66c0,.41.57.57,1.08.67.1,0,.21.1.21.26,0,.1,0,.21-.05.31-.72-.05-1.34-.1-2.12-.1s-1.45.05-2.12.1c0-.1-.05-.26-.05-.31,0-.15.1-.21.21-.26.57-.1,1.19-.26,1.19-.72v-5.47c0-.83-.21-1.08-1.14-1.19-.15,0-.26-.1-.26-.26,0-.1,0-.21.05-.26.36,0,1.08-.05,1.5-.1.62-.1,1.14-.26,1.34-.26s.26.1.26.31c0,.36-.1.88-.1,1.7.21-.15,1.55-2.01,3.41-2.01,1.39,0,2.01.77,2.17,2.01.21-.1,1.6-2.01,3.41-2.01Z"/>
  </g>
</svg>