<?xml version="1.0" encoding="UTF-8"?>
<svg id="Capa_1" data-name="Capa 1" xmlns="http://www.w3.org/2000/svg" viewBox="0 0 510.13 510.13">
  <defs>
    <style>
      .cls-1 {
        fill: none;
      }

      .cls-1, .cls-2 {
        stroke-width: 0px;
      }

      .cls-2 {
        fill: #fff;
      }
    </style>
  </defs>
  <path class="cls-2" d="m193.66,278.58h7.78v.69c-1.07.09-1.87.32-2.38.71-.51.39-1.31,1.57-2.4,3.53-1.09,1.96-2.32,3.8-3.69,5.5,1.11,1.29,2.1,2.18,2.96,2.7.86.51,1.73.77,2.59.77s1.58-.23,2.18-.69c.6-.46,1.02-1.15,1.27-2.05l.69.5c-.46,1.74-1.19,3.03-2.2,3.85-1.01.83-2.19,1.24-3.54,1.24-1.03,0-2.06-.27-3.1-.82-1.04-.55-2.18-1.48-3.4-2.79-1.53,1.35-2.91,2.29-4.14,2.82-1.23.53-2.54.8-3.94.8-2.05,0-3.67-.54-4.86-1.63-1.19-1.09-1.79-2.39-1.79-3.91s.54-2.97,1.61-4.46c1.07-1.49,3.09-3.03,6.06-4.62-.58-1.28-.98-2.34-1.19-3.16-.21-.82-.32-1.6-.32-2.34,0-2.12.78-3.75,2.35-4.87,1.21-.85,2.58-1.28,4.11-1.28s2.67.43,3.59,1.31c.93.87,1.39,1.94,1.39,3.21s-.51,2.53-1.52,3.65c-.79.85-2.32,1.86-4.58,3.04,1.57,2.79,3.2,5.35,4.91,7.67,2.17-2.59,3.26-4.77,3.26-6.52,0-.59-.19-1.12-.57-1.57-.26-.32-.64-.51-1.15-.57v-.69Zm-4.21,12.06c-1.63-2.22-2.76-3.85-3.4-4.87-.64-1.02-1.32-2.3-2.07-3.82-2.98,1.7-4.46,3.75-4.46,6.15,0,1.31.42,2.47,1.27,3.47.85,1.01,2,1.51,3.47,1.51.77,0,1.51-.15,2.23-.46s1.71-.97,2.95-1.98Zm-2.87-11.58c3.05-1.45,4.58-3.29,4.58-5.54,0-.91-.27-1.66-.82-2.24-.55-.58-1.24-.87-2.07-.87-.9,0-1.67.33-2.3.99s-.94,1.46-.94,2.4c0,.57.1,1.23.32,1.99.21.76.62,1.85,1.24,3.27Z"/>
  <g>
    <path class="cls-1" d="m219.51,231.86c-1.95-1.58-4.77-2.7-8.47-3.38-1.48-.27-2.7-.55-3.66-.86-.96-.3-1.73-.65-2.32-1.03-.59-.39-1-.82-1.24-1.31-.24-.49-.35-1.03-.35-1.64,0-1.18.49-2.11,1.46-2.8.97-.69,2.3-1.03,3.98-1.03,1.98,0,3.52.52,4.61,1.56,1.09,1.04,1.64,2.27,1.64,3.68v1.21h6.66v-1.81c0-1.44-.28-2.82-.83-4.13-.55-1.31-1.38-2.47-2.47-3.48-1.09-1.01-2.45-1.81-4.06-2.39-1.61-.59-3.46-.88-5.55-.88-1.85,0-3.52.25-5.02.76-1.5.5-2.77,1.21-3.83,2.12s-1.88,1.97-2.47,3.2c-.59,1.23-.88,2.56-.88,4.01v.3c0,1.75.3,3.23.91,4.44.6,1.21,1.45,2.22,2.55,3.03,1.09.81,2.38,1.45,3.86,1.94,1.48.49,3.11.88,4.89,1.18,1.34.24,2.45.52,3.33.86.87.34,1.56.71,2.07,1.13.5.42.86.89,1.06,1.41.2.52.3,1.07.3,1.64,0,1.21-.49,2.25-1.46,3.13-.98.87-2.47,1.31-4.49,1.31-2.59,0-4.5-.63-5.72-1.89-1.23-1.26-1.84-2.95-1.84-5.07v-1.21h-6.66v1.51c0,1.85.3,3.55.91,5.12.6,1.56,1.5,2.92,2.67,4.08,1.18,1.16,2.65,2.07,4.41,2.72,1.76.66,3.81.98,6.13.98,1.98,0,3.76-.25,5.34-.76,1.58-.5,2.92-1.23,4.03-2.17,1.11-.94,1.96-2.08,2.55-3.4.59-1.33.88-2.81.88-4.46v-.6c0-3.09-.98-5.43-2.92-7.01Z"/>
    <path class="cls-1" d="m270.84,262.42c-4.07,0-7.25,1.26-9.55,3.78-2.3,2.52-3.45,6.07-3.45,10.64v7.87c0,4.71,1.15,8.29,3.45,10.74,2.3,2.45,5.49,3.68,9.55,3.68s7.25-1.23,9.55-3.68c2.3-2.45,3.45-6.03,3.45-10.74v-7.87c0-4.57-1.15-8.12-3.45-10.64-2.3-2.52-5.49-3.78-9.55-3.78Zm6.35,22.69c0,1.18-.1,2.25-.3,3.23-.2.98-.55,1.82-1.06,2.52-.5.71-1.16,1.25-1.97,1.64-.81.39-1.81.58-3.03.58s-2.22-.19-3.02-.58c-.81-.39-1.46-.93-1.97-1.64s-.86-1.55-1.06-2.52c-.2-.97-.3-2.05-.3-3.23v-8.67c0-1.11.12-2.15.35-3.13.23-.97.6-1.82,1.11-2.52s1.16-1.27,1.97-1.69c.81-.42,1.78-.63,2.92-.63s2.12.21,2.92.63c.81.42,1.46.98,1.97,1.69s.87,1.55,1.11,2.52c.24.98.35,2.02.35,3.13v8.67Z"/>
    <path class="cls-1" d="m249.69,265.95c-1.09-1.14-2.45-2.02-4.06-2.62-1.61-.6-3.46-.91-5.55-.91s-3.83.33-5.44.98c-1.61.66-2.99,1.6-4.13,2.82-1.14,1.23-2.02,2.74-2.62,4.54-.6,1.8-.91,3.82-.91,6.08v7.87c0,4.71,1.18,8.29,3.53,10.74,2.35,2.45,5.55,3.68,9.58,3.68s7.4-1.13,9.6-3.4c2.2-2.27,3.3-5.5,3.3-9.71v-.91h-6.65v.91c0,.91-.08,1.79-.25,2.65-.17.86-.48,1.61-.93,2.27s-1.09,1.18-1.92,1.56c-.82.39-1.87.58-3.15.58-1.18,0-2.18-.19-3-.58-.82-.39-1.49-.93-1.99-1.64s-.87-1.54-1.11-2.5c-.24-.96-.35-2.01-.35-3.15v-8.87c0-1.04.13-2.04.38-3,.25-.96.65-1.8,1.19-2.52.54-.72,1.21-1.29,2.02-1.71.81-.42,1.76-.63,2.87-.63,1.21,0,2.22.21,3.02.63.81.42,1.44.97,1.92,1.64.47.67.81,1.43,1.01,2.27.2.84.3,1.68.3,2.52v.91h6.65v-.91c0-2.02-.28-3.83-.83-5.44-.55-1.61-1.38-2.99-2.47-4.13Z"/>
    <polygon class="cls-1" points="277.59 252.54 270.84 252.54 268.21 259.4 273.36 259.4 277.59 252.54"/>
    <polygon class="cls-1" points="246.84 203.67 240.08 203.67 237.46 210.53 242.6 210.53 246.84 203.67"/>
    <polygon class="cls-1" points="251.78 243.2 243.31 243.2 243.31 220.61 251.78 220.61 251.78 214.26 228.18 214.26 228.18 220.61 236.65 220.61 236.65 243.2 228.18 243.2 228.18 249.55 251.78 249.55 251.78 243.2"/>
    <path class="cls-1" d="m126.67,217.46c-.89-.96-2.01-1.73-3.35-2.32-1.34-.59-2.92-.88-4.74-.88h-13.81v35.29h6.65v-13.31h7.16c1.81,0,3.39-.3,4.74-.91,1.34-.6,2.46-1.4,3.35-2.39.89-.99,1.56-2.12,2.02-3.38.45-1.26.68-2.55.68-3.86v-1.21c0-1.28-.23-2.53-.68-3.76-.45-1.23-1.13-2.32-2.02-3.28Zm-3.96,8.09c0,1.28-.43,2.32-1.29,3.13-.86.81-2.03,1.21-3.5,1.21h-6.5v-9.28h6.5c1.48,0,2.65.4,3.5,1.21.86.81,1.29,1.85,1.29,3.13v.6Z"/>
    <polygon class="cls-1" points="173.63 235.03 188.66 235.03 188.66 228.68 173.63 228.68 173.63 220.61 189.26 220.61 189.26 214.26 166.98 214.26 166.98 249.55 189.87 249.55 189.87 243.2 173.63 243.2 173.63 235.03"/>
    <path class="cls-1" d="m147.42,213.55c-4.07,0-7.25,1.26-9.55,3.78-2.3,2.52-3.45,6.07-3.45,10.64v7.87c0,4.71,1.15,8.29,3.45,10.74,2.3,2.45,5.49,3.68,9.55,3.68s7.25-1.23,9.55-3.68c2.3-2.45,3.45-6.03,3.45-10.74v-7.87c0-4.57-1.15-8.12-3.45-10.64-2.3-2.52-5.49-3.78-9.55-3.78Zm6.35,22.69c0,1.18-.1,2.25-.3,3.23-.2.98-.55,1.82-1.06,2.52-.5.71-1.16,1.25-1.97,1.64-.81.39-1.81.58-3.03.58s-2.22-.19-3.02-.58c-.81-.39-1.46-.93-1.97-1.64-.5-.71-.86-1.55-1.06-2.52-.2-.97-.3-2.05-.3-3.23v-8.67c0-1.11.12-2.15.35-3.13.23-.97.6-1.82,1.11-2.52s1.16-1.27,1.97-1.69c.81-.42,1.78-.63,2.92-.63s2.12.21,2.92.63c.81.42,1.46.98,1.97,1.69s.87,1.55,1.11,2.52c.24.98.35,2.02.35,3.13v8.67Z"/>
    <path class="cls-1" d="m372.83,266.13c-1.11-1.16-2.45-2.07-4.03-2.72-1.58-.66-3.38-.98-5.39-.98s-3.73.31-5.34.93c-1.61.62-3,1.54-4.16,2.75-1.16,1.21-2.07,2.7-2.72,4.46-.66,1.76-.98,3.79-.98,6.08v8.27c0,2.35.3,4.41.91,6.18.6,1.76,1.43,3.24,2.47,4.44,1.04,1.19,2.27,2.09,3.68,2.7s2.92.91,4.54.91c2.29,0,4-.45,5.14-1.34,1.14-.89,1.92-1.99,2.32-3.3h.91v3.93h6.05v-17.85h-15.12v6.35h8.47c0,1.78-.51,3.2-1.54,4.26-1.03,1.06-2.53,1.59-4.51,1.59-4.44,0-6.66-2.72-6.66-8.17v-7.46c0-3.06.6-5.22,1.82-6.48,1.21-1.26,2.76-1.89,4.64-1.89,1.98,0,3.52.55,4.61,1.64,1.09,1.09,1.64,2.7,1.64,4.81v.6h6.65v-.6c0-1.78-.29-3.45-.86-5.02-.57-1.56-1.41-2.92-2.52-4.08Z"/>
    <path class="cls-1" d="m264.58,214.26l-8.42,35.29h6.96l1.71-7.56h12l1.71,7.56h6.96l-8.42-35.29h-12.5Zm1.66,21.38l4.13-18.05h.91l4.08,18.05h-9.13Z"/>
    <polygon class="cls-1" points="320.75 269.48 329.22 269.48 329.22 292.07 320.75 292.07 320.75 298.42 344.34 298.42 344.34 292.07 335.87 292.07 335.87 269.48 344.34 269.48 344.34 263.13 320.75 263.13 320.75 269.48"/>
    <path class="cls-1" d="m394.25,262.42c-4.07,0-7.25,1.26-9.55,3.78-2.3,2.52-3.45,6.07-3.45,10.64v7.87c0,4.71,1.15,8.29,3.45,10.74,2.3,2.45,5.49,3.68,9.55,3.68s7.25-1.23,9.55-3.68c2.3-2.45,3.45-6.03,3.45-10.74v-7.87c0-4.57-1.15-8.12-3.45-10.64-2.3-2.52-5.49-3.78-9.55-3.78Zm6.35,22.69c0,1.18-.1,2.25-.3,3.23-.2.98-.55,1.82-1.06,2.52-.5.71-1.16,1.25-1.97,1.64-.81.39-1.81.58-3.03.58s-2.22-.19-3.02-.58c-.81-.39-1.46-.93-1.97-1.64s-.86-1.55-1.06-2.52c-.2-.97-.3-2.05-.3-3.23v-8.67c0-1.11.12-2.15.35-3.13.23-.97.6-1.82,1.11-2.52s1.16-1.27,1.97-1.69c.81-.42,1.78-.63,2.92-.63s2.12.21,2.92.63c.81.42,1.46.98,1.97,1.69s.87,1.55,1.11,2.52c.24.98.35,2.02.35,3.13v8.67Z"/>
    <path class="cls-1" d="m301.39,263.13h-12.81v6.35h3.33v22.54h-3.33v6.4h12.81c4.37,0,7.61-1.02,9.73-3.05,2.12-2.03,3.18-5.18,3.18-9.45v-10.28c0-4.27-1.06-7.42-3.18-9.45-2.12-2.03-5.36-3.05-9.73-3.05Zm6.25,22.18c0,2.32-.46,4.03-1.39,5.12-.92,1.09-2.55,1.64-4.87,1.64h-2.82v-22.59h2.82c2.32,0,3.94.52,4.87,1.56.92,1.04,1.39,2.57,1.39,4.59v9.68Z"/>
    <path class="cls-2" d="m275.73,270.79c-.5-.71-1.16-1.27-1.97-1.69-.81-.42-1.78-.63-2.92-.63s-2.12.21-2.92.63c-.81.42-1.46.98-1.97,1.69s-.87,1.55-1.11,2.52c-.24.98-.35,2.02-.35,3.13v8.67c0,1.18.1,2.25.3,3.23.2.98.55,1.82,1.06,2.52s1.16,1.25,1.97,1.64c.81.39,1.81.58,3.02.58s2.22-.19,3.03-.58c.81-.39,1.46-.93,1.97-1.64.5-.71.86-1.55,1.06-2.52.2-.97.3-2.05.3-3.23v-8.67c0-1.11-.12-2.15-.35-3.13-.24-.97-.6-1.82-1.11-2.52Z"/>
    <path class="cls-2" d="m117.92,220.61h-6.5v9.28h6.5c1.48,0,2.65-.4,3.5-1.21.86-.81,1.29-1.85,1.29-3.13v-.6c0-1.28-.43-2.32-1.29-3.13-.86-.81-2.03-1.21-3.5-1.21Z"/>
    <polygon class="cls-2" points="270.38 217.59 266.25 235.64 275.37 235.64 271.29 217.59 270.38 217.59"/>
    <path class="cls-2" d="m152.31,221.92c-.5-.71-1.16-1.27-1.97-1.69-.81-.42-1.78-.63-2.92-.63s-2.12.21-2.92.63c-.81.42-1.46.98-1.97,1.69s-.87,1.55-1.11,2.52c-.24.98-.35,2.02-.35,3.13v8.67c0,1.18.1,2.25.3,3.23.2.98.55,1.82,1.06,2.52.5.71,1.16,1.25,1.97,1.64.81.39,1.81.58,3.02.58s2.22-.19,3.03-.58c.81-.39,1.46-.93,1.97-1.64.5-.71.86-1.55,1.06-2.52.2-.97.3-2.05.3-3.23v-8.67c0-1.11-.12-2.15-.35-3.13-.24-.97-.6-1.82-1.11-2.52Z"/>
    <path class="cls-2" d="m400.76,166.79H51.98v113.41h110.6c1.04-13.74,12.51-24.57,26.52-24.57,14.69,0,26.61,11.91,26.61,26.61s-11.91,26.61-26.61,26.61-25.48-10.83-26.52-24.57H51.98v59.07h406.16v-119.17c0-31.69-25.69-57.39-57.39-57.39Zm-160.68,36.88h6.76l-4.24,6.86h-5.14l2.62-6.86Zm-11.9,39.53h8.47v-22.59h-8.47v-6.35h23.59v6.35h-8.47v22.59h8.47v6.35h-23.59v-6.35Zm-98.82-17.49c0,1.31-.23,2.6-.68,3.86-.45,1.26-1.13,2.39-2.02,3.38-.89.99-2.01,1.79-3.35,2.39-1.34.6-2.92.91-4.74.91h-7.16v13.31h-6.65v-35.29h13.81c1.81,0,3.39.29,4.74.88,1.34.59,2.46,1.36,3.35,2.32.89.96,1.56,2.05,2.02,3.28.45,1.23.68,2.48.68,3.76v1.21Zm31.06,10.13c0,4.71-1.15,8.29-3.45,10.74-2.3,2.45-5.49,3.68-9.55,3.68s-7.25-1.23-9.55-3.68c-2.3-2.45-3.45-6.03-3.45-10.74v-7.87c0-4.57,1.15-8.12,3.45-10.64,2.3-2.52,5.49-3.78,9.55-3.78s7.25,1.26,9.55,3.78c2.3,2.52,3.45,6.07,3.45,10.64v7.87Zm29.44,13.71h-22.89v-35.29h22.28v6.35h-15.63v8.07h15.02v6.35h-15.02v8.17h16.23v6.35Zm32.57-10.08c0,1.65-.29,3.13-.88,4.46-.59,1.33-1.44,2.46-2.55,3.4-1.11.94-2.45,1.66-4.03,2.17-1.58.5-3.36.76-5.34.76-2.32,0-4.36-.33-6.13-.98-1.76-.66-3.24-1.56-4.41-2.72-1.18-1.16-2.07-2.52-2.67-4.08-.6-1.56-.91-3.27-.91-5.12v-1.51h6.66v1.21c0,2.12.61,3.81,1.84,5.07,1.23,1.26,3.13,1.89,5.72,1.89,2.02,0,3.51-.44,4.49-1.31.97-.87,1.46-1.92,1.46-3.13,0-.57-.1-1.12-.3-1.64-.2-.52-.55-.99-1.06-1.41-.5-.42-1.19-.8-2.07-1.13-.87-.34-1.98-.62-3.33-.86-1.78-.3-3.41-.7-4.89-1.18-1.48-.49-2.76-1.13-3.86-1.94-1.09-.81-1.94-1.82-2.55-3.03-.6-1.21-.91-2.69-.91-4.44v-.3c0-1.44.29-2.78.88-4.01.59-1.23,1.41-2.29,2.47-3.2s2.34-1.61,3.83-2.12c1.5-.5,3.17-.76,5.02-.76,2.08,0,3.93.29,5.55.88,1.61.59,2.97,1.39,4.06,2.39,1.09,1.01,1.92,2.17,2.47,3.48.55,1.31.83,2.69.83,4.13v1.81h-6.66v-1.21c0-1.41-.55-2.64-1.64-3.68-1.09-1.04-2.63-1.56-4.61-1.56-1.68,0-3.01.35-3.98,1.03-.98.69-1.46,1.62-1.46,2.8,0,.6.12,1.15.35,1.64.23.49.65.92,1.24,1.31.59.39,1.36.73,2.32,1.03.96.3,2.18.59,3.66.86,3.7.67,6.52,1.8,8.47,3.38,1.95,1.58,2.92,3.92,2.92,7.01v.6Zm30.55,36.97h-6.65v-.91c0-.84-.1-1.68-.3-2.52-.2-.84-.54-1.6-1.01-2.27-.47-.67-1.11-1.22-1.92-1.64-.81-.42-1.81-.63-3.02-.63-1.11,0-2.07.21-2.87.63-.81.42-1.48.99-2.02,1.71-.54.72-.93,1.56-1.19,2.52-.25.96-.38,1.96-.38,3v8.87c0,1.14.12,2.19.35,3.15.23.96.6,1.79,1.11,2.5s1.17,1.25,1.99,1.64c.82.39,1.82.58,3,.58,1.28,0,2.33-.19,3.15-.58.82-.39,1.46-.91,1.92-1.56s.76-1.41.93-2.27c.17-.86.25-1.74.25-2.65v-.91h6.65v.91c0,4.2-1.1,7.44-3.3,9.71-2.2,2.27-5.4,3.4-9.6,3.4s-7.23-1.23-9.58-3.68c-2.35-2.45-3.53-6.03-3.53-10.74v-7.87c0-2.25.3-4.28.91-6.08.6-1.8,1.48-3.31,2.62-4.54,1.14-1.23,2.52-2.17,4.13-2.82,1.61-.66,3.43-.98,5.44-.98s3.93.3,5.55.91c1.61.61,2.97,1.48,4.06,2.62,1.09,1.14,1.92,2.52,2.47,4.13.55,1.61.83,3.43.83,5.44v.91Zm30.85,8.27c0,4.71-1.15,8.29-3.45,10.74-2.3,2.45-5.49,3.68-9.55,3.68s-7.25-1.23-9.55-3.68c-2.3-2.45-3.45-6.03-3.45-10.74v-7.87c0-4.57,1.15-8.12,3.45-10.64,2.3-2.52,5.49-3.78,9.55-3.78s7.25,1.26,9.55,3.78c2.3,2.52,3.45,6.07,3.45,10.64v7.87Zm-15.63-25.31l2.62-6.86h6.76l-4.24,6.86h-5.14Zm10.34-9.84l-1.71-7.56h-12l-1.71,7.56h-6.96l8.42-35.29h12.5l8.42,35.29h-6.96Zm35.75,36.36c0,4.27-1.06,7.42-3.18,9.45-2.12,2.03-5.36,3.05-9.73,3.05h-12.81v-6.4h3.33v-22.54h-3.33v-6.35h12.81c4.37,0,7.61,1.02,9.73,3.05,2.12,2.03,3.18,5.19,3.18,9.45v10.28Zm30.05-16.44h-8.47v22.59h8.47v6.35h-23.59v-6.35h8.47v-22.59h-8.47v-6.35h23.59v6.35Zm31.86,6.35h-6.65v-.6c0-2.12-.55-3.72-1.64-4.81-1.09-1.09-2.63-1.64-4.61-1.64s-3.43.63-4.64,1.89c-1.21,1.26-1.82,3.42-1.82,6.48v7.46c0,5.44,2.22,8.17,6.66,8.17,1.98,0,3.49-.53,4.51-1.59,1.02-1.06,1.54-2.48,1.54-4.26h-8.47v-6.35h15.12v17.85h-6.05v-3.93h-.91c-.4,1.31-1.18,2.41-2.32,3.3-1.14.89-2.86,1.34-5.14,1.34-1.61,0-3.13-.3-4.54-.91s-2.64-1.5-3.68-2.7c-1.04-1.19-1.87-2.67-2.47-4.44-.6-1.76-.91-3.82-.91-6.18v-8.27c0-2.29.33-4.31.98-6.08.66-1.76,1.56-3.25,2.72-4.46,1.16-1.21,2.55-2.13,4.16-2.75,1.61-.62,3.39-.93,5.34-.93s3.81.33,5.39.98c1.58.66,2.92,1.56,4.03,2.72,1.11,1.16,1.95,2.52,2.52,4.08.57,1.56.86,3.24.86,5.02v.6Zm31.06,8.87c0,4.71-1.15,8.29-3.45,10.74-2.3,2.45-5.49,3.68-9.55,3.68s-7.25-1.23-9.55-3.68c-2.3-2.45-3.45-6.03-3.45-10.74v-7.87c0-4.57,1.15-8.12,3.45-10.64,2.3-2.52,5.49-3.78,9.55-3.78s7.25,1.26,9.55,3.78c2.3,2.52,3.45,6.07,3.45,10.64v7.87Z"/>
    <path class="cls-2" d="m399.14,270.79c-.5-.71-1.16-1.27-1.97-1.69-.81-.42-1.78-.63-2.92-.63s-2.12.21-2.92.63c-.81.42-1.46.98-1.97,1.69s-.87,1.55-1.11,2.52c-.24.98-.35,2.02-.35,3.13v8.67c0,1.18.1,2.25.3,3.23.2.98.55,1.82,1.06,2.52s1.16,1.25,1.97,1.64c.81.39,1.81.58,3.02.58s2.22-.19,3.03-.58c.81-.39,1.46-.93,1.97-1.64.5-.71.86-1.55,1.06-2.52.2-.97.3-2.05.3-3.23v-8.67c0-1.11-.12-2.15-.35-3.13-.24-.97-.6-1.82-1.11-2.52Z"/>
    <path class="cls-2" d="m301.39,269.48h-2.82v22.59h2.82c2.32,0,3.94-.55,4.87-1.64.92-1.09,1.39-2.8,1.39-5.12v-9.68c0-2.02-.46-3.55-1.39-4.59-.92-1.04-2.55-1.56-4.87-1.56Z"/>
  </g>
</svg>