<?xml version="1.0" encoding="UTF-8"?>
<svg id="Capa_2" data-name="Capa 2" xmlns="http://www.w3.org/2000/svg" viewBox="0 0 524.13 87.41">
  <defs>
    <style>
      .cls-1 {
        fill: #fff;
        stroke-width: 0px;
      }
    </style>
  </defs>
  <g id="Capa_1-2" data-name="Capa 1">
    <g>
      <path class="cls-1" d="m483.19,4.34c7.11.24,12.71,2.76,16.86,8.19.4.52.77.77,1.45.79,10.47.31,18.94,7.37,21.04,17.55.81,3.93.33,7.77-1.19,11.46-.32.78-.32,1.36.06,2.11,3.96,7.87,3.62,15.58-1.32,22.89-3.38,5.01-8.27,7.82-14.27,8.6-.76.1-1.1.45-1.46,1-4.46,6.93-10.85,10.53-19.05,10.46-6.41-.05-11.75-2.72-15.74-7.81-.62-.79-1.24-1.05-2.21-1.09-10.63-.48-19.58-8.64-20.73-18.8-.42-3.69.05-7.19,1.55-10.55.35-.79-.01-1.28-.31-1.87-3.38-6.7-3.53-13.47-.17-20.18,3.23-6.45,8.6-10.13,15.71-11.2.84-.13,1.24-.48,1.65-1.12,4.3-6.75,10.59-10.01,18.11-10.45Zm34.35,34.71c0-1.18.12-2.2-.02-3.17-1.37-9.47-10.04-15.96-19.23-14.15-8.8,1.73-13.84,9.52-13.54,17.84.01.37.05.8.5.94.48.15.9.06,1.25-.36.52-.62,1.03-1.25,1.62-1.79,6.57-5.95,15.58-7.19,23.58-3.33,2.11,1.02,3.91,2.48,5.84,4.02Zm-65.63,13.75c-.09.28-.13.36-.13.44-.44,10.38,9,18.66,18.89,16.96,8.7-1.5,14.26-9.17,13.98-17.85-.01-.41-.02-.88-.56-1.02-.5-.13-.89.01-1.23.43-.48.59-.97,1.19-1.53,1.7-6.49,5.95-15.63,7.25-23.57,3.39-2.12-1.03-3.94-2.45-5.84-4.04Zm22.13,25.06c4.04,2.4,8.07,3.26,12.43,2.48,7.67-1.36,13.32-7.99,13.25-15.77-.06-6.96-3.47-11.96-9.45-15.32-.35-.2-.74-.49-1.17-.13-.46.4-.42.88-.23,1.4.66,1.76,1.06,3.59,1.14,5.45.35,7.61-2.69,13.64-8.67,18.28-2.11,1.64-4.56,2.56-7.31,3.6Zm21.1-63.81c-.11-.16-.15-.25-.21-.3-.13-.1-.28-.19-.43-.27-3.62-1.97-7.44-2.7-11.54-1.98-7.67,1.36-13.33,7.98-13.29,15.73.04,6.98,3.47,11.95,9.41,15.33.35.2.74.52,1.16.16.43-.38.49-.85.28-1.39-.66-1.71-1.02-3.5-1.15-5.32-.64-9.04,4.84-17.65,13.3-21,.81-.32,1.62-.65,2.46-.98Zm12.05,56.73c.27.13.45,0,.63-.1,7.73-4.55,10.49-13.8,7.08-21.26-4.24-9.26-15.73-12.25-24.56-6.63-.31.2-.84.29-.66.92.18.63.6.83,1.2.94,10.97,2.1,18.3,12.66,16.59,23.79-.12.77-.48,1.55-.26,2.33Zm-45.03-49.85c-2.08.9-3.6,2.41-5.06,4-5.49,5.98-5.36,16,.27,21.82,5.68,5.88,14.85,6.86,21.7,2.3.3-.2.84-.28.65-.92-.19-.63-.6-.82-1.2-.93-10.95-2.08-18.29-12.66-16.58-23.8.12-.77.49-1.54.22-2.47Z"/>
      <g>
        <path class="cls-1" d="m288.48,19.61c-2.21,8.19-4.16,15.69-6.27,23.16-2.47,8.77-5.13,17.5-7.59,26.28-.57,2.02-1.35,2.95-3.66,2.76-3.2-.26-6.45-.15-9.67-.04-1.78.06-2.47-.61-2.85-2.34-2.91-13.09-5.91-26.16-8.95-39.22-.21-.91-.97-1.7-1.48-2.55-.58.87-1.47,1.66-1.71,2.62-3.32,12.99-6.59,25.99-9.78,39.01-.49,2.02-1.41,2.78-3.5,2.67-3.13-.16-6.27.06-9.4-.11-.84-.05-2.19-.76-2.38-1.42-4.61-16.7-9.09-33.43-13.76-50.79,3.61,0,6.6-.11,9.57.11.5.04,1.12,1.4,1.31,2.24,3.01,13.06,5.97,26.14,8.93,39.22.1.44.09.95.33,1.29.41.58.97,1.05,1.47,1.57.48-.54,1.26-1.01,1.41-1.63,1.37-5.55,2.67-11.13,3.93-16.71,1.79-7.93,3.58-15.87,5.25-23.83.36-1.72,1.01-2.4,2.82-2.34,3.58.13,7.17.11,10.74,0,1.71-.05,2.27.63,2.63,2.23,2.93,13.27,5.93,26.52,9,39.75.21.92,1.17,1.68,1.78,2.51.56-.81,1.4-1.54,1.62-2.43,3.28-13.18,6.52-26.38,9.64-39.6.43-1.84,1.11-2.58,3.01-2.46,2.29.14,4.59.03,7.53.03Z"/>
        <path class="cls-1" d="m131.81,18.87c.05-.71.16-1.66.16-2.6.02-4.65.06-9.3-.02-13.95-.03-1.76.6-2.27,2.34-2.29,7.22-.09,7.22-.14,7.22,7.04,0,20.13-.04,40.25.05,60.38,0,2.28-.58,3.24-2.94,3.73-7.97,1.66-15.94,2.22-23.99.86-7.92-1.34-12.86-5.95-14.47-13.84-1.52-7.43-1.74-14.94-.36-22.41,1.95-10.57,8.37-16.23,19.17-16.86,4.16-.24,8.35-.04,12.84-.04Zm.29,27.09c0-5.45-.09-10.91.04-16.36.05-2.29-.85-3.36-3.04-3.43-3.21-.11-6.45-.45-9.63-.19-5.84.47-9.18,3.13-9.64,8.93-.58,7.25-.51,14.62.03,21.88.39,5.21,3.3,7.69,8.59,8.4,3.51.47,7.12.28,10.69.27,2.15,0,3.08-1.07,3.01-3.4-.16-5.36-.05-10.73-.05-16.09Z"/>
        <path class="cls-1" d="m63.56,72.85c-1.81-.11-3.7-.14-5.56-.37-5.88-.73-10.41-3.32-13.04-8.97-5.47-11.76-5.26-23.56-.46-35.37,2.03-5,5.93-8.29,11.35-8.72,5.4-.43,10.89-.39,16.28.09,4.41.39,7.72,3.01,9.78,7.1,6.36,12.59,5.59,25.24.14,37.8-2.4,5.53-7.51,7.36-13.07,8.08-1.77.23-3.57.24-5.43.36Zm-12.92-28.43c.37,4.19.52,7.49.99,10.75,1.22,8.43,3.66,10.47,12.2,10.45,1.34,0,2.68-.09,4.01-.21,3.52-.34,5.79-2.32,6.71-5.65,2.56-9.23,2.69-18.51.19-27.77-1.04-3.88-3.67-6.04-7.78-6.14-2.05-.05-4.12-.12-6.16,0-4.99.3-7.4,2.09-8.49,6.99-.9,4.07-1.21,8.27-1.66,11.58Z"/>
        <path class="cls-1" d="m165.7,48.74c.46,3.04.59,5.55,1.24,7.92,1.56,5.66,5.73,8.49,12.58,8.93,5.16.33,10.2-.26,15.05-2.05,1.89-.7,2.74-.53,2.86,1.77.24,4.95,1.43,4.27-4.13,5.91-6.37,1.87-12.89,2-19.41.88-8.87-1.52-14.48-6.69-16.5-15.47-1.81-7.88-1.86-15.81.56-23.59,2.77-8.94,9.04-13.76,18.37-14.23,2.58-.13,5.22-.14,7.77.24,8.51,1.27,13.16,6.03,14.56,15.14.54,3.51.53,7.13.47,10.7-.06,3.34-.75,3.84-4.06,3.84-8.6.01-17.19,0-25.79,0-.96,0-1.92,0-3.55,0Zm-.05-6.76h17.93c7.44,0,7.7-.36,6.41-7.94-.69-4.06-2.51-7.29-6.83-7.91-2.95-.42-6.08-.32-9.03.16-3.42.56-5.79,2.95-6.74,6.26-.82,2.87-1.11,5.9-1.74,9.43Z"/>
        <path class="cls-1" d="m335.08,50.52c0,5.91-.04,11.82.03,17.72.02,1.67-.4,2.69-2.2,3.05-9.15,1.81-18.34,2.15-27.48.31-7.05-1.42-9.66-4.9-9.83-12-.26-10.75,2.96-14.75,13.63-16.55,4.67-.78,9.41-1.25,14.13-1.72,1.98-.19,2.9-.88,2.65-2.99-.19-1.59-.02-3.22-.13-4.83-.28-4.26-2.3-6.88-6.56-7.13-5.24-.31-10.53.09-15.8.24-1.31.04-3.03.72-2.84-1.5.15-1.8-2.42-4.5,1.66-5.25,7.19-1.33,14.38-2.05,21.6-.53,7.15,1.5,10.81,5.82,11.03,13.17.18,5.99.04,11.99.04,17.99.02,0,.05,0,.07,0Zm-9.37,15.4c.07-1.32.13-1.93.13-2.55.02-4.56-.02-9.11.05-13.67.02-1.49-.71-1.82-1.99-1.8-2.59.04-5.19,0-7.78.01-9.04.06-11.27,2.44-10.75,11.45.03.53.11,1.07.17,1.6.3,2.9,1.96,4.76,4.79,4.89,5.05.23,10.12.06,15.39.06Z"/>
        <path class="cls-1" d="m412.37,26.62c-1.64-.19-2.96-.41-4.28-.47-3.39-.15-6.79-.34-10.18-.28-2.24.04-4.6.33-5.5,2.95-.94,2.72-.79,5.42,1.3,7.5,1.69,1.69,3.73,3.04,5.68,4.45,3.04,2.2,6.24,4.19,9.18,6.51,7.08,5.59,6.06,13.99,3.67,19.25-1.84,4.03-5.65,5.63-9.65,5.8-6.05.27-12.13-.12-18.2-.38-.59-.03-1.55-1.1-1.61-1.74-.14-1.75.11-3.53.23-5.6,2.09.23,3.91.52,5.73.62,3.21.17,6.43.38,9.64.29,2.3-.07,4.88-.21,5.83-2.92,1.02-2.89,1.17-5.89-1.05-8.35-1.42-1.58-3.12-2.94-4.82-4.24-3.41-2.61-7-4.98-10.33-7.69-5.23-4.26-6.56-11.79-3.32-17.69,2.13-3.89,5.89-5.3,9.88-5.54,5.34-.32,10.71.02,16.07.07,1.7.01,2.4.76,2.13,2.52-.23,1.49-.26,3.01-.41,4.94Z"/>
        <path class="cls-1" d="m31.69,26.36c-3.79-.23-7.26-.66-10.72-.61-5.12.07-8.28,2.5-9.48,7.5-1.97,8.2-2.01,16.5-.07,24.71,1.18,4.99,4.49,7.51,9.73,7.6,3.38.06,6.76-.4,10.35-.64-.09-.09.12.02.15.15,1.25,7.82,1.48,6.62-5.41,7.34-4.19.44-8.61.15-12.73-.71-5.3-1.11-9.04-4.76-10.8-9.91-3.62-10.58-3.62-21.28.15-31.8,2.07-5.77,6.36-9.73,12.52-10.53,4.72-.61,9.58-.14,14.38-.06,2.03.03,2.79,1.17,2.38,3.2-.26,1.3-.31,2.64-.43,3.77Z"/>
        <path class="cls-1" d="m377.88,26.39c-1.85-.18-3.42-.42-5-.47-2.32-.07-4.66-.16-6.97.02-4.56.35-4.67.55-4.67,5.15,0,12.43,0,24.86,0,37.29,0,.97,0,1.94,0,3.29-2.9,0-5.65.12-8.37-.11-.47-.04-1.16-1.56-1.16-2.41-.08-8.94-.05-17.89-.05-26.83,0-6.44.04-12.88-.03-19.32-.01-1.5.38-2.18,1.97-2.52,7.5-1.62,15.06-1.99,22.69-1.57,1.54.09,2.33.55,2.08,2.26-.25,1.66-.32,3.34-.49,5.21Z"/>
      </g>
    </g>
  </g>
</svg>