<?xml version="1.0" encoding="UTF-8"?>
<svg id="Capa_2" data-name="Capa 2" xmlns="http://www.w3.org/2000/svg" viewBox="0 0 878.44 121.56">
  <defs>
    <style>
      .cls-1 {
        fill: #fff;
        stroke-width: 0px;
      }
    </style>
  </defs>
  <g id="Capa_1-2" data-name="Capa 1">
    <g>
      <path class="cls-1" d="m555.75,113.23c-5.58-5.19-10.97-10.59-16.25-16.08-3.19-3.32-5.83-2.93-8.8.2-3.65,3.84-7.78,7.27-11.19,11.29-2.88,3.4-4.7,2.78-7.33-.16-3.41-3.82-7.24-7.28-10.91-10.88-4.14-4.05-5.17-4.05-9.4.1-4.03,3.94-8.12,7.82-11.98,11.92-1.97,2.1-3.25,2.02-5.19-.03-4.1-4.33-8.51-8.36-12.65-12.65-2.78-2.88-5.25-2.91-8.04-.03-4.03,4.16-8.3,8.11-12.28,12.32-2.12,2.24-3.62,2.63-5.91.08-3.53-3.94-7.46-7.53-11.24-11.25-4.61-4.55-5.66-4.55-10.16-.12-3.66,3.61-7.46,7.09-10.89,10.9-2.38,2.64-4.05,3.15-6.65.18-3.38-3.85-7.23-7.29-10.88-10.9-4.75-4.69-5.55-4.67-10.46.15-3.66,3.6-7.52,7.04-10.9,10.88-2.45,2.78-4.02,2.32-6.29-.11-3.83-4.12-8.02-7.91-11.92-11.97-2.95-3.07-5.52-2.96-8.44.08-4.12,4.31-8.53,8.35-12.66,12.65-1.82,1.89-3.04,1.81-4.83-.05-4.24-4.43-8.72-8.63-13.01-13-2.66-2.7-5.08-2.6-7.68.05-4.3,4.37-8.75,8.59-13,13.01-1.78,1.85-3.03,1.88-4.83,0-4.12-4.31-8.52-8.35-12.65-12.66-2.89-3.02-5.44-3.22-8.4-.09-3.76,3.97-7.92,7.57-11.56,11.63-2.54,2.83-4.28,3.23-6.99.16-3.61-4.09-7.8-7.67-11.56-11.63-3.11-3.27-5.77-3.12-8.8.13-3.5,3.76-7.44,7.11-10.85,10.94-2.71,3.04-4.64,3.9-7.71.23-3.49-4.17-7.79-7.67-11.57-11.61-2.83-2.96-5.27-2.74-8.03.07-5.23,5.32-10.44,10.66-15.93,15.7-3.13,2.87-3.81,5.55-1.14,8.91h3c5.02-4.97,10.16-9.84,15.02-14.96,2.28-2.4,3.68-2.68,6.21-.08,5.05,5.19,9.87,10.66,15.72,15.04h1c6.03-4.64,10.87-10.49,16.43-15.61.98-.9,1.9-2.78,3.56-1.03,5.28,5.59,11.56,10.24,15.97,16.64h3c5.3-5.13,10.69-10.16,15.84-15.43,1.91-1.96,3.08-2.3,5.06-.12,4.85,5.33,10.57,9.85,15.05,15.55h3c5.25-5.21,10.57-10.35,15.71-15.67,1.82-1.88,2.92-1.8,4.77,0,5.43,5.28,10.3,11.16,16.47,15.67h1c5.35-5.11,10.84-10.08,15.97-15.38,2.2-2.27,3.48-2.14,5.43.08,4.65,5.28,10.5,9.45,14.54,15.3h3c5.28-5.15,10.67-10.19,15.78-15.49,1.98-2.06,3.15-2.06,5.07,0,4.92,5.27,10.05,10.35,15.1,15.5h3c5.12-5.1,10.35-10.1,15.3-15.36,2.18-2.33,3.37-1.93,5.51.12,5.34,5.13,9.99,10.98,16.15,15.25h1c5.34-5.11,10.8-10.11,15.96-15.39,2.17-2.22,3.41-2.15,5.41.11,4.67,5.26,10.47,9.47,14.58,15.28h3c4.58-4.49,9.43-8.75,13.67-13.54,3.31-3.75,5.5-4.24,9.06-.18,4.32,4.93,9.44,9.18,14.22,13.72h1c6.17-4.49,10.89-10.48,16.5-15.54,1-.91,1.95-2.85,3.58-1.12,5.27,5.57,11.63,10.13,15.87,16.66h3c3.56-2.58,3.96-5.11.5-8.33Z"/>
      <path class="cls-1" d="m74.67,102.72c-31.93-1.67-56.67-20.47-66.22-50.31-1.84-5.75-3.22-6.27-8.45-3.15v4.95c1.63.44,1.6,1.97,2.01,3.15,3.41,9.77,8.44,18.6,15.41,26.3,15.34,16.94,34.53,25.73,57.45,26.55,2.08.07,4.02-.06,5.13-2.18.79-1.52.44-2.89-.66-4.07-1.27-1.36-3.02-1.15-4.67-1.24Z"/>
      <path class="cls-1" d="m638.09,14.8c0-5.88-1.23-6.83-6.99-5.92-2.41.38-3.16,2.2-4.2,3.82-4.68,7.27-9.32,14.57-14.23,22.25-1.05-1.42-1.68-2.18-2.2-3-4.35-6.83-8.78-13.6-12.97-20.53-2.17-3.6-5.5-2.71-8.44-2.36-3.27.39-1.87,3.41-1.88,5.26-.1,18.13-.02,36.27-.1,54.4-.01,3.26-.06,5.61,4.56,5.49,4.16-.11,4.47-2,4.44-5.23-.11-12.86-.07-25.72,0-38.58,0-1.31-.76-2.94,1.16-4.16,3.24,5.26,6.8,10.27,9.52,15.69,3.47,6.89,8.4,6.23,11.4.2,2.76-5.55,6.47-10.62,9.77-15.91l1.21.39c0,14.14.07,28.28-.05,42.43-.03,3.27.31,5.17,4.46,5.15,3.95-.02,4.64-1.53,4.61-4.99-.14-18.13-.06-36.27-.07-54.4Z"/>
      <path class="cls-1" d="m537.15,71.87c1.94-1.16,2.19-1.13,3.32,1.02,1.33,2.52,4.51,1.1,6.83.96,2.02-.13,1.68-2.14,1.69-3.57.02-19.14-.05-38.27.08-57.41.02-3.51-1.62-4.02-4.58-4.06-3.02-.04-4.64.56-4.49,4.05.24,5.56.06,11.14.06,17.46-14.37-9.35-26.85-1.45-29.53,8.38-2.17,7.97-2.39,16.03.41,23.87,4.09,11.48,15.71,15.57,26.2,9.29Zm-16.24-33.41c2.11-3.43,5.22-4.96,9.21-4.71,3.68.23,6.32,2.17,7.64,5.48,2.93,7.33,2.98,14.81.09,22.15-1.45,3.67-4.48,5.7-8.56,5.67-4.16-.03-7.32-1.81-9.14-5.67-1.66-3.52-2.13-7.24-1.99-10.76-.12-4.48.51-8.5,2.75-12.15Z"/>
      <path class="cls-1" d="m671.75,26.12c-9.33.61-15.95,6.27-17.58,15.29-1.07,5.89-1.09,11.85.27,17.68,1.71,7.38,5.74,12.98,13.56,14.92,8.14,2.02,15.53.59,21.51-5.55,1.43-1.47,4.12-3.16,1.41-5.68-2.38-2.22-4.33-2.44-6.85.62-3.34,4.07-8.32,4.48-13.28,3.16-4.62-1.23-7.06-4.38-8.07-9.05-.73-3.37.54-4.07,3.51-3.97,3.98.13,7.97.03,11.95.03,1.16,0,2.32,0,3.49,0,13.77,0,14.86-1.55,10.44-14.72-3.16-9.42-9.58-13.44-20.37-12.73Zm10.41,20.5c-2.81.05-5.63.01-8.44.01v.02c-1.82,0-3.64,0-5.46,0-6.1-.01-6.84-1.15-4.45-6.84,2.03-4.84,7.2-7.19,12.76-5.79,4.66,1.17,8.38,6.1,8.21,10.55-.08,1.98-1.29,2.03-2.63,2.05Z"/>
      <path class="cls-1" d="m418.77,74.25c7.9,1.6,14.88-.03,20.52-5.89,1.42-1.48,3.97-3.28,1.09-5.73-2.27-1.93-4.01-2.51-6.45.54-3.42,4.29-8.53,4.76-13.68,3.33-4.42-1.23-6.92-4.26-7.83-8.72-.57-2.83,0-4.41,3.38-4.25,3.98.19,7.98.04,11.97.04,1,0,2.01.1,2.99-.02,4.18-.53,10.15,2.17,12.15-1.32,2.28-3.97.25-9.63-1.48-14.34-3.06-8.33-8.85-11.98-18.6-11.83-9.08.14-15.88,4.6-18.25,12.59-2.2,7.42-2.05,15.01.11,22.44,2.04,7.03,6.61,11.65,14.07,13.16Zm-5.83-32.98c1.58-5.32,5.58-7.98,11.34-7.54,5.35.41,9.13,4.15,9.94,9.47.41,2.7-.56,3.59-3.15,3.47-2.66-.12-5.32-.03-7.99-.02-2,0-3.99.02-5.99,0-5.09-.05-5.56-.66-4.15-5.38Z"/>
      <path class="cls-1" d="m175.83,74.16c3.35-.03,4.84-.9,4.72-4.47-.21-6.42.26-12.88-.16-19.28-.3-4.58,1.41-5.66,5.65-5.37,4.96.34,9.97-.02,14.95.11,2.95.07,3.63-1.37,3.65-3.96.02-2.69-.89-3.92-3.74-3.86-5.65.12-11.3-.06-16.95.06-2.59.06-3.56-.89-3.48-3.44.13-4.12.25-8.26-.04-12.36-.26-3.76.81-5.21,4.9-5.06,8.46.32,16.95.02,25.42.13,2.83.04,4.27-.62,4.24-3.83-.02-3.03-1.12-4.03-4.1-4-11.8.11-23.6.13-35.4-.01-3.33-.04-4.31,1.25-4.26,4.37.13,9.39.05,18.79.05,28.19s.1,18.79-.05,28.19c-.06,3.4,1.08,4.62,4.6,4.59Z"/>
      <path class="cls-1" d="m815.92,26.05c-9.68.27-16.55,5.5-19.06,14.43-.9,3.21-1.11,6.48-.91,9.78,0,1.65-.14,3.31.02,4.94,1.17,11.9,8.96,19.41,20.31,19.68,11.27.27,19.33-7.03,20.85-19.02.68-5.43.63-10.84-1.1-16.13-2.96-9.02-10.18-13.95-20.11-13.67Zm11.89,31.15c-1.08,5.9-5.3,9.68-10.81,9.86-5.8.19-10.2-3.38-11.51-9.56-.51-2.41-.59-4.9-.74-6.21.13-3.97.17-6.77,1.08-9.48,1.84-5.53,6.04-8.46,11.65-8.1,5.25.34,9.23,3.81,10.26,9.22.91,4.73.94,9.53.06,14.28Z"/>
      <path class="cls-1" d="m279.91,74.88c10.37.15,18.15-6.21,20.29-16.75.52-2.57.62-5.22.93-8.08-.34-2.73-.44-5.73-1.13-8.59-2.41-10.09-10.22-15.79-20.78-15.4-10.56.39-17.85,6.68-19.5,16.97-.76,4.74-.75,9.53.02,14.27,1.74,10.75,9.44,17.42,20.15,17.57Zm-10.73-32.58c1.33-5.48,5.45-8.56,10.75-8.61,5.61-.05,9.71,3.05,11.1,8.77.61,2.54.62,5.21.91,7.83-.18,3.33-.2,6.64-1.52,9.76-1.93,4.59-5.45,7.06-10.46,6.97-4.95-.09-8.67-2.38-10.31-7.15-1.98-5.77-1.89-11.73-.47-17.58Z"/>
      <path class="cls-1" d="m461.87,74.16c3.39-.03,4.75-.94,4.66-4.49-.21-8.24-.11-16.5-.05-24.75.05-7.07,3.67-11.08,9.87-11.14,6.24-.06,9.98,3.94,10.04,10.93.08,8.41.15,16.83-.04,25.24-.08,3.39,1.35,4.16,4.45,4.18,3.23.02,4.88-.61,4.78-4.33-.23-8.74-.02-17.49-.08-26.23-.11-14.96-13.23-22.3-26.33-14.73-1.36.79-1.97,1.89-3.01-.61-1.2-2.91-4.38-1.49-6.67-1.41-2.77.1-2.06,2.51-2.08,4.19-.06,6.43-.02,12.87-.02,19.3,0,6.43.18,12.88-.07,19.3-.13,3.5,1.06,4.56,4.54,4.53Z"/>
      <path class="cls-1" d="m745.92,55.97c0-4.12-.02-8.25,0-12.37.04-6.49-1.62-12.27-7.86-15.41-6.16-3.11-12.48-3.1-18.52.63-1.18.73-1.9,2.22-2.92-.54-1.1-3-4.35-1.51-6.64-1.48-2.72.04-2.19,2.44-2.2,4.15-.04,12.87.07,25.74-.08,38.6-.04,3.4,1.01,4.66,4.56,4.6,3.32-.05,4.79-.83,4.7-4.45-.21-8.74-.08-17.49-.06-26.23.02-4.94,2.52-8.11,7.29-9.35,6.89-1.79,12.41,2.51,12.59,10.05.21,8.74.18,17.49.02,26.23-.07,3.82,2.23,3.62,4.88,3.69,2.78.08,4.41-.51,4.28-3.78-.19-4.78-.05-9.57-.05-14.35Z"/>
      <path class="cls-1" d="m315.1,69.35c-.03,3.14.53,4.83,4.32,4.82,3.67,0,5-1.06,4.91-4.78-.21-8.57-.06-17.14-.06-25.71,0-4.65,2.11-7.9,6.6-9.39,6.92-2.29,13.01,2,13.23,9.65.26,8.73.19,17.47.04,26.2-.06,3.53,1.73,3.98,4.66,3.98,2.94,0,4.68-.49,4.61-4.02-.18-9.39.1-18.79-.13-28.18-.19-7.89-4.41-13.51-11.21-15.13-6.05-1.45-11.91-1.05-17.32,3.68-.53-5.36-4.34-3.89-7.19-3.67-3.64.29-2.34,3.45-2.35,5.47-.11,12.36,0,24.72-.1,37.08Z"/>
      <path class="cls-1" d="m780.54,34.06c4.29.15,4.81-2.11,4.16-5.24-.71-3.46-3.78-2.22-5.76-2.05-4.52.38-6.55-1.07-5.8-5.73.21-1.29,0-2.63,0-3.95.03-1.89-.97-2.45-2.77-2.65-4.05-.45-6.34.44-5.75,5.21.46,3.7,1.07,7.81-5.24,7.28-2.25-.19-1.65,2.4-1.76,3.94-.14,1.96.65,3.31,2.83,3.08,3.74-.4,4.46,1.52,4.29,4.72-.2,3.95-.05,7.92-.05,11.88,0,2.97,0,5.94,0,8.91.01,11.4,3.48,14.76,14.89,14.56,2.46-.04,4.61,0,4.65-3.5.03-3.06-.69-4.56-4.13-4.45-4.78.15-6.88-2.68-6.91-7.19-.04-5.77-.03-11.55-.02-17.32.03-8.55-.63-7.74,7.35-7.46Z"/>
      <path class="cls-1" d="m368.9,34c2.85-.23,3.21,1.53,3.18,3.77-.06,4.28-.02,8.57-.02,12.85,0,2.97,0,5.93,0,8.9.03,11.34,3.53,14.71,14.95,14.47,2.45-.05,4.62.02,4.67-3.48.04-3.05-.72-4.56-4.14-4.47-5.08.14-7-2.86-6.94-7.6.08-5.93,0-11.86.02-17.79.02-7.33-.57-6.67,6.69-6.65,2.64,0,4.93.13,4.92-3.68-.01-3.79-2.29-3.69-4.93-3.68-7.29.02-6.64.8-6.69-6.62,0-.66-.07-1.33,0-1.98.39-3.41-1.71-3.59-4.34-3.63-2.76-.04-4.56.44-4.24,3.73.16,1.63-.05,3.3.03,4.94.12,2.36-.56,3.88-3.32,3.58-2.83-.31-3.74,1.03-3.79,3.75-.05,2.93,1.31,3.8,3.93,3.59Z"/>
      <path class="cls-1" d="m228.42,74.17c3.42-.03,4.73-.97,4.62-4.49-.22-7.07-.09-14.16-.06-21.24.04-9.5,3.86-13.45,13.36-12.79,4.71.33,3.38-3.06,4.12-5.12,1.04-2.91-.99-3.78-3.38-4.11-5.36-.76-9.69,1.25-13.73,5.22.51-4.88-2.24-5.03-5.64-5.05-3.81-.02-3.75,2.23-3.75,4.88.04,12.68.09,25.36-.03,38.04-.03,3.3.88,4.7,4.49,4.67Z"/>
      <path class="cls-1" d="m875.1,26.49c-5.54-.95-10.05,1.02-14.33,6.36.84-6.11-2.11-6.4-5.83-6.24-4.51.19-3.22,3.41-3.24,5.74-.09,12.51.07,25.02-.11,37.53-.05,3.76,1.71,4.25,4.86,4.26,3.15.02,4.48-.85,4.39-4.19-.2-7.07-.07-14.15-.06-21.23,0-10.05,3.33-13.5,13.41-13.07,4.66.2,3.08-3.31,3.93-5.35,1.15-2.79-.93-3.44-3.02-3.8Z"/>
      <path class="cls-1" d="m124.47,23.72c-1.36-2.9-3.83-2.45-6.39-1.3-9.69,4.35-19.42,8.61-29.14,12.89-2.01.88-4.14,1.68-4.02,4.4.12,2.63,2.26,3.4,4.26,4.28,9.41,4.16,18.83,8.31,28.22,12.51,2.69,1.2,5.59,2.59,7.13-1.14,1.4-3.38-1.47-4.62-3.94-5.72-7.11-3.18-14.24-6.31-22.67-10.04,8.53-3.75,15.92-7.01,23.32-10.26,2.48-1.09,4.64-2.61,3.23-5.6Z"/>
      <path class="cls-1" d="m59.89,39.4c0,11.2,0,22.4,0,33.6,0,2.7-.11,5.79,3.63,5.83,3.74.05,3.73-2.98,3.73-5.72-.01-22.4-.01-44.8,0-67.2,0-2.75-.06-5.88-3.59-5.91-3.46-.03-3.79,2.97-3.78,5.8.04,11.2.01,22.4.01,33.6Z"/>
    </g>
  </g>
</svg>