<?xml version="1.0" encoding="UTF-8"?>
<svg id="Capa_2" data-name="Capa 2" xmlns="http://www.w3.org/2000/svg" viewBox="0 0 405.8 44.57">
  <defs>
    <style>
      .cls-1 {
        fill: #fff;
        stroke-width: 0px;
      }
    </style>
  </defs>
  <g id="Capa_1-2" data-name="Capa 1">
    <g>
      <path class="cls-1" d="m31.14.02h-9.49c-.18,0-.34.07-.47.2-.12.13-.19.29-.2.47v15.63h-10.16V.69c0-.18-.07-.35-.2-.47-.12-.13-.29-.2-.47-.2H.66c-.18,0-.34.07-.47.2C.07.34,0,.51,0,.69v42.39c0,.18.07.35.2.47.12.13.29.2.47.2h9.47c.18,0,.34-.07.47-.2.12-.12.19-.29.2-.47v-17.01h10.16v17.01c0,.18.07.35.2.47.12.13.29.2.47.2h9.51c.18,0,.34-.07.47-.2.12-.12.19-.29.2-.47V.69c0-.18-.07-.35-.2-.47-.12-.13-.29-.2-.47-.2Z"/>
      <path class="cls-1" d="m54.11,9.38c-2.76,0-5.5.42-8.12,1.27-2.5.81-4.91,1.88-7.2,3.17-.15.09-.27.23-.31.4-.05.17-.03.35.06.51l3.36,6.23c.08.16.22.27.39.33.17.05.35.04.51-.05,1.61-.83,3.28-1.54,4.99-2.13,1.43-.5,2.94-.77,4.46-.78,2.04,0,3.56.37,4.54,1.1.75.55,1.29,1.35,1.5,2.26-3.04.18-6.06.56-9.04,1.16-2.72.6-4.99,1.4-6.75,2.37-1.8,1.01-3.13,2.26-3.96,3.73-.84,1.47-1.24,3.19-1.24,5.11,0,1.4.26,2.8.79,4.1.53,1.24,1.29,2.36,2.25,3.3,1.01.98,2.21,1.74,3.54,2.22,1.48.54,3.05.81,4.63.8,2.16,0,4.3-.46,6.28-1.32,1.71-.74,3.34-1.67,4.86-2.76l.54,2.76c.03.15.11.29.24.39.12.1.27.15.43.15h7.76c.18,0,.34-.07.47-.2.12-.13.19-.29.2-.47v-18.46c0-5.11-1.37-8.97-4.09-11.49-2.72-2.46-6.43-3.71-11.06-3.71Zm4.31,23.67c-.99.74-2.05,1.38-3.17,1.9-1.17.54-2.44.82-3.73.82-1.24,0-2.23-.22-2.91-.65-.6-.37-.88-.93-.88-1.72,0-.56.16-1.12.45-1.6.3-.5.86-.95,1.63-1.34,1.12-.52,2.3-.88,3.51-1.08,1.68-.3,3.38-.5,5.08-.6v4.27h.02Z"/>
      <path class="cls-1" d="m103.52,32.71c-.11-.15-.27-.26-.45-.3-.09-.02-.18-.02-.27,0-.09.02-.17.06-.25.11-1.14.83-2.38,1.53-3.69,2.07-1.39.58-2.89.87-4.39.86-2.51,0-4.48-.75-6.02-2.26-1.54-1.51-2.29-3.56-2.29-6.21s.77-4.68,2.38-6.21c1.61-1.53,3.69-2.29,6.26-2.29,2.21,0,4.48.82,6.71,2.41.07.05.15.09.23.11.08.02.17.02.26,0,.09-.01.17-.05.24-.09.07-.05.14-.11.19-.18l4.39-5.91c.1-.13.15-.3.13-.47-.02-.17-.09-.32-.22-.44-1.58-1.38-3.39-2.48-5.34-3.26-4.16-1.68-9.71-1.7-14.38-.11-2.24.73-4.32,1.89-6.13,3.41-1.79,1.52-3.23,3.4-4.24,5.52-1.05,2.18-1.59,4.7-1.59,7.48s.47,5.28,1.41,7.46c.9,2.12,2.24,4.01,3.94,5.54,1.72,1.51,3.71,2.67,5.87,3.41,2.34.8,4.79,1.2,7.26,1.19,2.39-.02,4.76-.41,7.03-1.16,2.44-.8,4.7-2.07,6.66-3.73.13-.11.21-.25.23-.42.02-.16-.01-.33-.1-.47l-3.86-6.08Z"/>
      <path class="cls-1" d="m134.02,24.15l11.79-12.85c.09-.1.15-.22.17-.35.02-.13,0-.27-.05-.39-.05-.12-.14-.23-.25-.3-.11-.07-.24-.11-.37-.11h-10.39c-.09,0-.18.02-.27.06-.08.04-.16.09-.23.16l-10.84,11.69V.67c0-.18-.07-.35-.2-.47C123.26.07,123.09,0,122.92,0h-9.49c-.18,0-.34.07-.47.2-.12.13-.19.29-.2.47v42.39c0,.18.07.35.2.47s.29.2.47.2h9.49c.18,0,.34-.07.47-.2.12-.13.19-.29.2-.47v-7.72l3.99-3.9,7.89,11.99c.06.09.14.17.24.22.1.05.21.08.32.08h10.26c.12,0,.24-.04.35-.1.11-.06.19-.16.25-.26.06-.11.08-.23.08-.35,0-.12-.05-.24-.12-.34l-12.81-18.52Z"/>
      <path class="cls-1" d="m176.47,14.01c-1.37-1.5-3.06-2.68-4.95-3.43-1.97-.82-4.24-1.23-6.77-1.23-2.21,0-4.41.41-6.47,1.21-2.09.8-3.99,2.01-5.61,3.55-1.62,1.55-2.91,3.4-3.81,5.46-.96,2.16-1.46,4.64-1.46,7.35s.49,5.26,1.46,7.42c.92,2.09,2.26,3.97,3.94,5.52,1.7,1.54,3.69,2.71,5.85,3.45,2.32.8,4.75,1.2,7.2,1.19,2.3-.01,4.58-.36,6.77-1.03,2.2-.64,4.3-1.6,6.24-2.85.14-.09.24-.23.28-.4.04-.16.03-.34-.05-.49l-3.09-5.69c-.08-.16-.22-.27-.39-.33-.17-.05-.35-.04-.51.05-1.27.67-2.61,1.21-3.99,1.62-1.3.35-2.64.53-3.99.52-2.23,0-4.14-.52-5.7-1.55-1.35-.88-2.25-2.24-2.76-4.12h20.74c.15,0,.3-.05.43-.15.12-.1.21-.23.24-.39.09-.41.17-.97.28-1.72.09-.82.13-1.64.13-2.46.02-2.16-.32-4.31-1.01-6.36-.65-1.89-1.67-3.64-3-5.13Zm-17.94,8.95c.41-1.57,1.13-2.78,2.19-3.56,1.22-.92,2.7-1.42,4.22-1.4,1.97,0,3.41.52,4.26,1.51.78.98,1.24,2.18,1.31,3.43h-11.98v.02Z"/>
      <path class="cls-1" d="m216.69,10.74c-2.02-.98-4.25-1.44-6.49-1.36-2.65-.01-5.26.68-7.56,2.01-1.93,1.1-3.64,2.72-5.12,4.79l-.6-5.41c-.02-.17-.09-.32-.22-.43-.12-.11-.28-.17-.45-.17h-7.76c-.18,0-.34.07-.47.2-.12.13-.19.29-.2.47v32.23c0,.18.07.35.2.47.12.13.29.2.47.2h9.49c.18,0,.34-.07.47-.2.12-.13.19-.29.2-.47v-16.62c1.31-2.69,2.85-4.61,4.61-5.69,1.8-1.1,3.64-1.66,5.51-1.66.96-.02,1.92.05,2.87.22.88.17,1.76.4,2.61.67.09.03.18.03.27.02.09-.01.18-.04.26-.09.08-.05.15-.11.21-.18.05-.07.09-.16.12-.25l1.93-8c.05-.14.04-.3-.02-.44-.06-.14-.18-.24-.32-.3Z"/>
      <path class="cls-1" d="m246.84,26.41c2.03-1.02,3.76-2.55,5.04-4.44,1.46-2.11,2.19-4.83,2.19-8.08,0-2.61-.45-4.83-1.37-6.62-.87-1.73-2.16-3.22-3.75-4.31-1.64-1.1-3.47-1.88-5.4-2.29C241.42.22,239.25,0,237.09,0h-14.91c-.18,0-.34.07-.47.2-.12.13-.19.29-.2.47v42.39c0,.18.07.35.2.47.12.13.29.2.47.2h9.49c.18,0,.34-.07.47-.2.12-.13.19-.29.2-.47v-14.6h3.9l7.89,14.92c.06.11.14.2.25.27.11.06.23.1.35.1h10.65c.12,0,.23-.03.34-.09.1-.06.19-.15.24-.25.06-.1.1-.22.1-.33s-.03-.23-.1-.33l-9.11-16.32Zm-10.5-6.9h-3.99v-10.54h3.99c2.4,0,4.22.39,5.38,1.12,1.09.69,1.63,1.94,1.63,3.77,0,3.86-2.23,5.65-7.01,5.65Z"/>
      <path class="cls-1" d="m274.74,9.38c-2.76,0-5.5.42-8.12,1.27-2.5.81-4.91,1.88-7.2,3.17-.15.09-.27.23-.32.4-.05.17-.03.35.06.51l3.36,6.23c.08.16.23.27.39.33.17.05.35.04.51-.05,1.61-.83,3.28-1.54,4.99-2.13,1.43-.5,2.94-.77,4.46-.78,2.03,0,3.56.37,4.54,1.1.75.55,1.29,1.35,1.5,2.26-3.04.18-6.06.56-9.04,1.16-2.72.6-4.99,1.4-6.75,2.37-1.8,1.01-3.13,2.26-3.96,3.73-.84,1.47-1.24,3.19-1.24,5.11,0,1.4.26,2.8.79,4.1.53,1.24,1.29,2.36,2.25,3.3,1.01.98,2.21,1.74,3.54,2.22,1.48.54,3.05.81,4.63.8,2.16,0,4.3-.46,6.28-1.32,1.72-.74,3.35-1.67,4.87-2.76l.53,2.76c.03.15.11.29.24.39.12.1.27.15.43.15h7.76c.18,0,.34-.07.47-.2.12-.13.19-.29.19-.47v-18.46c0-5.11-1.37-8.97-4.09-11.49-2.7-2.46-6.41-3.71-11.06-3.71Zm4.31,23.67c-.99.74-2.05,1.38-3.17,1.9-1.17.54-2.44.82-3.73.82-1.24,0-2.23-.22-2.91-.65-.6-.37-.88-.93-.88-1.72,0-.56.16-1.12.45-1.6.3-.5.86-.95,1.63-1.34,1.12-.52,2.3-.88,3.51-1.08,1.68-.3,3.38-.5,5.08-.6v4.27h.02Z"/>
      <path class="cls-1" d="m317.3,9.38c-2.51,0-4.74.54-6.62,1.57-1.51.84-2.92,1.86-4.2,3.02l-.54-3.23c-.03-.16-.11-.3-.23-.4-.12-.1-.27-.16-.43-.16h-7.76c-.18,0-.34.07-.47.2s-.19.29-.2.47v32.23c0,.18.07.35.2.47s.29.2.47.2h9.49c.18,0,.34-.07.47-.2.13-.13.19-.29.2-.47v-21.24c.84-.86,1.78-1.61,2.81-2.24.94-.52,2-.78,3.06-.75,1.52,0,2.57.41,3.13,1.21.6.88.92,2.35.92,4.36v18.65c0,.18.07.35.2.47.12.13.29.2.47.2h9.49c.18,0,.34-.07.47-.2.12-.13.19-.29.19-.47v-19.88c0-4.2-.9-7.57-2.66-10.03-1.76-2.5-4.63-3.77-8.47-3.77Z"/>
      <path class="cls-1" d="m369.54,42.69l-12.81-18.54,11.79-12.85c.09-.1.15-.22.17-.35.02-.13,0-.27-.04-.39-.05-.12-.14-.23-.25-.3-.11-.07-.24-.11-.37-.11h-10.39c-.09,0-.18.02-.27.06-.08.04-.16.09-.22.16l-10.84,11.69V.67c0-.18-.07-.35-.2-.47C345.97.07,345.8,0,345.63,0h-9.49c-.18,0-.34.07-.47.2-.12.13-.19.29-.19.47v42.39c0,.18.07.35.19.47.13.13.29.2.47.2h9.49c.18,0,.34-.07.47-.2.13-.13.2-.29.2-.47v-7.72l3.99-3.9,7.86,12.01c.06.09.15.17.24.22.1.05.21.08.31.08h10.27c.12,0,.24-.04.35-.1.11-.06.19-.16.25-.26.06-.11.09-.23.08-.35,0-.12-.04-.24-.11-.34Z"/>
      <path class="cls-1" d="m405.14,43.74c.18,0,.34-.07.47-.2.13-.12.2-.29.2-.47V.69c0-.18-.07-.35-.2-.47-.12-.13-.29-.2-.47-.2h-30.49c-.18,0-.34.07-.47.2-.12.13-.19.29-.2.47v42.39c0,.18.07.35.2.47.12.13.29.2.47.2h30.49Z"/>
    </g>
  </g>
</svg>