<?xml version="1.0" encoding="UTF-8"?>
<svg id="Capa_2" data-name="Capa 2" xmlns="http://www.w3.org/2000/svg" viewBox="0 0 582.13 104.28">
  <defs>
    <style>
      .cls-1 {
        fill: #fefefd;
        stroke-width: 0px;
      }
    </style>
  </defs>
  <g id="Capa_1-2" data-name="Capa 1">
    <path class="cls-1" d="m91.29,52.17c0,7.96-.01,15.93.01,23.89,0,1.71-.71,2.9-2.17,3.74-8.73,5.03-17.46,10.08-26.18,15.13-4.98,2.88-9.97,5.74-14.94,8.64-1.6.94-3.12.94-4.71.01-5.56-3.23-11.14-6.44-16.71-9.66-8.11-4.69-16.21-9.38-24.33-14.06-1.11-.64-1.95-1.46-2.2-2.77-.05-.25-.07-.5-.07-.76C0,60.18,0,44.01,0,27.85c0-1.48.72-2.55,1.97-3.28,4.29-2.49,8.58-4.96,12.87-7.44C24.32,11.66,33.8,6.19,43.27.7c1.61-.94,3.13-.92,4.75.02,13.7,7.94,27.42,15.85,41.13,23.76,1.41.81,2.15,1.99,2.14,3.66-.02,8.01,0,16.03,0,24.04ZM15.44,27.98c0,.78.39,1.28,1.05,1.67,9.32,5.38,18.63,10.76,27.94,16.15.84.49,1.6.48,2.43-.01,5.02-2.92,10.05-5.81,15.07-8.71,4.29-2.48,8.58-4.97,12.87-7.44.53-.31.91-.71,1-1.33.14-.88-.19-1.5-1.06-2-9.27-5.36-18.55-10.71-27.81-16.09-.94-.54-1.73-.54-2.66,0-4.47,2.61-8.96,5.18-13.44,7.78-4.8,2.78-9.6,5.56-14.41,8.34-.65.37-1,.89-1.01,1.64Zm67.08,28.09c0-5.35,0-10.69,0-16.04,0-.17,0-.34,0-.51-.08-1.24-1.41-2.03-2.53-1.5-.38.18-.75.39-1.12.61-9.02,5.21-18.04,10.43-27.07,15.63-.88.51-1.27,1.19-1.27,2.19,0,10.69,0,21.39,0,32.08,0,.8.25,1.43.96,1.83.69.39,1.34.27,2.02-.12,9.28-5.37,18.57-10.74,27.86-16.09.78-.45,1.16-1.07,1.16-1.99-.02-5.36,0-10.73,0-16.09Zm-41.8,16.43c0-5.33,0-10.66,0-15.99,0-1.04-.37-1.76-1.3-2.28-2.8-1.57-5.56-3.2-8.34-4.8-6.48-3.75-12.96-7.49-19.44-11.23-1.49-.86-2.9-.05-2.9,1.67,0,10.78,0,21.56,0,32.34,0,.85.36,1.46,1.08,1.88,9.35,5.4,18.69,10.8,28.04,16.19.22.13.44.25.7.29,1.2.2,2.15-.69,2.16-2.02,0-5.35,0-10.7,0-16.05Z"/>
    <g>
      <g>
        <path class="cls-1" d="m134.04,73.62V31.4c1.79-.62,3.6-.9,5.42-.83,1.82.07,3.64.35,5.45.83v14.98h14.77v-14.98c3.61-.92,7.24-.92,10.87,0v42.22c-3.89.97-7.51.97-10.87,0v-17.78h-14.77v17.78c-3.64.97-7.26.97-10.87,0Z"/>
        <path class="cls-1" d="m191.12,32.68c3.73-2.78,7.47-2.78,11.22,0,2.35,6.7,4.7,13.38,7.06,20.06,2.36,6.67,4.71,13.35,7.06,20.02-1.84.92-3.68,1.45-5.52,1.59-1.84.14-3.67-.39-5.49-1.59l-2.45-7.35h-13.36c-.41,1.24-.81,2.47-1.19,3.69-.38,1.22-.75,2.44-1.12,3.66-3.54,1.86-7.09,1.86-10.63,0l14.43-40.08Zm.93,24.44h8.77l-4.45-13.84-4.31,13.84Z"/>
        <path class="cls-1" d="m261.38,58.6c-.74,5.02-2.7,8.88-5.9,11.6-3.18,2.76-7.32,4.14-12.43,4.14-6.1,0-11-1.99-14.71-5.97-3.73-3.96-5.59-9.18-5.59-15.67s1.9-12.07,5.7-16.12c3.8-4,8.87-6.01,15.22-6.01,5.06,0,9.18,1.32,12.36,3.97,3.15,2.65,4.98,6.27,5.49,10.87-3.77,1.13-7.11,1.13-10.01,0-.48-1.98-1.42-3.47-2.8-4.49-1.38-1.01-3.16-1.52-5.35-1.52-2.99,0-5.35,1.17-7.08,3.52-1.73,2.39-2.59,5.62-2.59,9.67s.82,7.26,2.45,9.49c1.63,2.23,3.94,3.35,6.9,3.35,2.39,0,4.31-.59,5.76-1.76,1.43-1.13,2.32-2.82,2.69-5.07,1.63-.71,3.27-1.03,4.92-.95s3.3.4,4.95.95Z"/>
        <path class="cls-1" d="m267.79,73.62V31.44c2.35-.69,4.4-.97,6.14-.83,1.75.14,3.25.41,4.49.83v16.09c2.49-2.67,4.98-5.34,7.49-8.03,2.51-2.68,5.02-5.37,7.53-8.06,2.76-.53,5.2-.77,7.3-.71,2.11.06,4,.29,5.68.71l-17.09,17.71c2.9,4.1,5.81,8.18,8.73,12.25,2.92,4.07,5.85,8.15,8.77,12.22-4.3.97-8.61.97-12.91,0l-11.84-16.92-3.66,3.66v13.26c-3.54.81-7.09.81-10.63,0Z"/>
      </g>
      <g>
        <path class="cls-1" d="m451.68,74.34V30.57h21.26c5.11,0,8.86.92,11.25,2.76,2.21,1.68,3.31,4.5,3.31,8.46,0,2.33-.54,4.27-1.62,5.83-1.22,1.68-2.75,2.87-4.59,3.56,2.21.6,4.03,1.77,5.45,3.52,1.36,1.73,2.04,3.83,2.04,6.32,0,2.83-.45,5.04-1.35,6.63-1.08,1.96-2.65,3.5-4.69,4.63-1.36.76-3.02,1.29-4.97,1.59-2.03.32-5.02.48-8.98.48h-17.12Zm10.74-26.65h9.01c1.91,0,3.33-.36,4.25-1.07.92-.67,1.38-1.73,1.38-3.18,0-1.33-.44-2.35-1.31-3.04-.9-.67-2.17-1-3.83-1h-9.49v8.29Zm0,17.95h8.46c2.65,0,4.52-.37,5.63-1.1,1.06-.74,1.59-1.99,1.59-3.76,0-1.61-.51-2.81-1.52-3.59-1.04-.81-2.55-1.21-4.56-1.21h-9.6v9.67Z"/>
        <path class="cls-1" d="m494.95,52.46c0-6.74,1.86-12.08,5.59-16.02,3.73-3.91,8.79-5.87,15.19-5.87s11.5,1.97,15.29,5.9c3.75,3.94,5.63,9.26,5.63,15.98s-1.88,12.07-5.63,15.98c-3.8,3.94-8.9,5.9-15.29,5.9s-11.46-1.96-15.19-5.87c-3.73-3.94-5.59-9.27-5.59-16.02Zm13.39,9.73c1.73,2.26,4.19,3.38,7.39,3.38s5.71-1.13,7.46-3.38c1.56-2.02,2.35-5.26,2.35-9.72s-.78-7.69-2.35-9.72c-1.73-2.28-4.21-3.42-7.46-3.42s-5.66,1.13-7.39,3.38c-1.54,2-2.31,5.25-2.31,9.73s.77,7.73,2.31,9.73Z"/>
        <path class="cls-1" d="m543.05,73.55l13.6-21.68c-2.14-3.41-4.28-6.82-6.42-10.24s-4.28-6.85-6.42-10.3c4.4-.94,8.5-.94,12.32,0l6.46,11.29c1.06-1.86,2.12-3.74,3.19-5.63,1.07-1.89,2.16-3.77,3.26-5.66,4.07-.97,8.17-.97,12.29,0l-12.95,20.54c2.28,3.61,4.56,7.23,6.85,10.84,2.29,3.61,4.59,7.23,6.89,10.84-3.43.88-7.58.88-12.46,0l-7.08-12.29c-1.2,2.07-2.39,4.12-3.59,6.16-1.2,2.04-2.38,4.08-3.56,6.13-4.4.85-8.53.85-12.39,0Z"/>
      </g>
      <g>
        <path class="cls-1" d="m332.48,74.03v-38.63h-13.93v-5.48h33.61v5.48h-13.93v38.63h-5.75Z"/>
        <path class="cls-1" d="m366.03,74.03h-5.8V29.91h5.8v44.12Zm23.86-19.66h-24.44v-5.48h24.44v5.48Zm-.52-24.45h5.81v44.12h-5.81V29.91Z"/>
        <path class="cls-1" d="m414.91,68.54h23.68v5.48h-29.49V29.91h28.68v5.48h-22.87v33.15Zm-.52-19.6h20.9v5.36h-20.9v-5.36Z"/>
      </g>
    </g>
  </g>
</svg>