<?xml version="1.0" encoding="UTF-8"?>
<svg id="Capa_2" data-name="Capa 2" xmlns="http://www.w3.org/2000/svg" viewBox="0 0 904.39 102.83">
  <defs>
    <style>
      .cls-1 {
        fill: #fff;
        stroke-width: 0px;
      }
    </style>
  </defs>
  <g id="Capa_1-2" data-name="Capa 1">
    <g>
      <path class="cls-1" d="m416.36,0h-2.47c-1.64,1.23-2.16,2.93-2.15,4.9.02,7.74,0,15.49,0,23.23,0,.61,0,1.22,0,2.04-.48-.29-.69-.39-.86-.53-8.58-6.98-18.29-7.44-28.39-4.58-7.74,2.2-12.33,8.19-12.42,15.68-.09,7.51-.14,15.02.02,22.53.12,5.62,2.36,10.49,7.39,13.23,9.79,5.33,19.89,5.96,29.98.58,1.63-.87,3.18-1.89,4.9-2.93.14,1.59.23,2.93.39,4.26.23,1.93,1.6,2.87,3.49,2.45,1.74-.39,2.58-1.51,2.58-3.67.01-24.17,0-48.35,0-72.52,0-1.97-.64-3.64-2.46-4.68Zm-5.28,67c-3.4,2.67-6.49,5.8-11.1,6.45-5.4.77-10.68.6-15.77-1.53-4-1.67-6.36-4.63-6.43-9.02-.1-6.92-.14-13.84,0-20.75.1-4.98,3.98-9.23,9.21-10.43,8.98-2.05,17.14-.38,24.4,5.4.72.57.78,1.21.78,1.99-.01,4.28,0,8.56,0,12.84s-.03,8.44.02,12.66c.01,1.04-.29,1.75-1.11,2.39Z"/>
      <path class="cls-1" d="m39.82,1.48c-1.81-.61-3.69-.99-5.53-1.48h-7.78c-.3.25-.67.15-1.01.18-2.86.25-5.67.61-8,2.56-2.99,2.5-4.92,5.59-5.69,9.43-.61,3.01-.68,6.03-.67,9.08,0,2.36-.53,2.85-2.94,2.89-1.35.02-2.7,0-4.05.01-2.89.04-3.33.36-4.14,2.97v2.47c1.13,1.68,2.78,2.15,4.71,2.11,2.12-.05,4.25.09,6.36-.04,1.54-.1,1.97.34,1.97,1.92-.07,13.91-.04,27.81-.03,41.72,0,.88-.02,1.77.12,2.63.26,1.67,1.33,2.55,3.02,2.67,1.88.13,3.29-.97,3.6-2.89.13-.8.1-1.64.1-2.46,0-13.97.02-27.93-.03-41.9,0-1.36.33-1.81,1.75-1.78,3.94.09,7.89.05,11.84.02.88,0,1.77-.07,2.63-.23,1.82-.33,2.71-1.39,2.74-3.12.03-1.68-.89-2.86-2.66-3.22-.97-.2-1.99-.26-2.98-.27-3.89-.03-7.78-.07-11.66.02-1.36.03-1.73-.4-1.65-1.7.11-1.99-.03-3.99.07-5.98.27-5.3,2.6-8.48,7.02-9.56,2.91-.71,5.83-.61,8.75.09,2.4.57,4.16,1.83,5.01,4.22.43,1.21.87,2.43,1.39,3.61.87,2,2.56,2.93,4.5,2.57,1.66-.31,2.5-1.57,2.58-3.87.21-5.78-3.33-10.65-9.3-12.66Z"/>
      <path class="cls-1" d="m897.07,18.83c-4.45-7.32-9.24-14.43-17-18.83h-2.12c-2.7,1.57-2.95,2.88-.91,5.29,1.1,1.3,2.26,2.55,3.47,3.74,9.14,9.04,14.72,19.84,15.88,32.68,1.76,19.32-3.16,36.36-17.68,50-.95.89-1.82,1.84-2.46,2.98-.81,1.45-.67,2.85.41,4.07,1.08,1.22,2.46,1.27,3.88.7,1.84-.74,3.33-1.98,4.71-3.36,4.51-4.51,8.37-9.52,11.46-15.1,5.24-9.46,7.2-19.74,7.61-30.41.43-11.23-1.33-22.01-7.25-31.76Z"/>
      <path class="cls-1" d="m782.71,5.53c2.22-2.55,2.08-3.62-.54-5.53h-2.12c-1.53.82-3.11,1.58-4.38,2.79-7.71,7.3-13.8,15.68-17.23,25.8-3.02,8.9-3.18,18.06-2.46,27.31,1.22,15.7,7.56,29,18.63,40.14,1.45,1.46,3.03,2.81,5,3.55,1.39.52,2.69.31,3.7-.84,1.03-1.17,1.25-2.47.47-3.9-.68-1.26-1.66-2.27-2.68-3.24-3.86-3.66-7.23-7.71-9.95-12.29-4.94-8.3-7.29-17.33-7.85-26.91-.78-13.52,2.23-25.95,10.45-36.94,2.69-3.59,6.03-6.58,8.96-9.95Z"/>
      <path class="cls-1" d="m849.6,45.04c-.82,1.55-1.74,3.06-2.7,4.53-.69,1.06-1.66,1.84-2.95,2.09-1.44.27-2.16-.36-2.01-1.81.1-.93.31-1.85.54-2.76,2.55-9.97,1.19-19.3-4.62-27.9-3.48-5.15-7.8-9.48-12.93-13.54.45,3.45.11,6.52-.58,9.55-2.06,9.05-6.37,17.09-11.23,24.9-2.45,3.94-5.38,7.56-7.64,11.62-3.21,5.78-5,11.9-4.01,18.57,1.3,8.74,6.42,15.07,13.11,20.46.25-.71-.2-1.08-.47-1.52-1.08-1.79-1.71-3.71-1.96-5.78-.68-5.63.98-10.78,3.14-15.84,4.12-9.66,11.52-17.4,15.73-27.09.83.76,1.05,1.63,1.33,2.45,1.4,4.01,1.63,8.14,1.24,12.33-.27,2.98-1.02,5.9-.85,8.92.29,5.29,3.07,8.52,7.88,9,1.7.17,3.43.26,5.1-.19,1.51-.41,2.32.16,2.86,1.5.68,1.68.88,3.38.54,5.17-.7,3.72-2.51,6.92-4.7,9.94-.34.47-.68.95-1.02,1.43,1.77-.66,2.98-1.93,4.24-3.11,13.21-12.35,14.59-28.6,3.7-42.99-.75-1-1.14-1.11-1.76.08Z"/>
      <path class="cls-1" d="m669.07,32.95c-.59-4.49-3.22-7.6-7.63-8.65-6.3-1.5-12.08-.79-16.48,4.59-.54.66-.88.77-1.42-.01-.99-1.4-2.23-2.57-3.67-3.51-4.52-2.96-10.4-2.35-14.17,1.48-.72.74-1.45,1.48-2.19,2.23-.48-.54-.32-1.03-.4-1.47-.5-2.47-1.8-3.83-3.53-3.68-1.8.15-2.44,1.24-2.44,4.15,0,15.78,0,31.57,0,47.35,0,.88.02,1.77.18,2.62.37,2,1.37,2.87,3.17,2.9,1.85.03,3.11-.91,3.51-2.81.21-1.02.22-2.1.22-3.15.01-12.26,0-24.53.02-36.79,0-.68-.19-1.41.32-2.03,1.51-1.81,3.09-3.55,5.28-4.58,4.44-2.1,8.67,0,9.7,4.78.26,1.22.23,2.45.23,3.68,0,11.68,0,23.35,0,35.03,0,1.06,0,2.11.29,3.14.49,1.78,1.58,2.66,3.27,2.62,1.67-.04,2.79-.98,3.11-2.8.19-1.09.26-2.22.26-3.33.02-12.26,0-24.53.02-36.79,0-.74-.18-1.52.35-2.21,1.83-2.4,4.03-4.3,7.05-4.98,4.26-.96,7.37,1.21,7.93,5.52.14,1.1.2,2.22.21,3.33.01,11.62,0,23.23.02,34.85,0,1.11,0,2.24.17,3.33.28,1.79,1.4,2.71,3.12,2.78,1.78.06,3.05-.86,3.5-2.6.3-1.14.32-2.32.32-3.5,0-12.5,0-24.99-.02-37.49,0-1.34-.1-2.7-.27-4.03Z"/>
      <path class="cls-1" d="m719.25,25.7c-5.23-2.21-10.72-2.64-16.28-1.85-4.7.67-9.05,2.49-13.32,4.47-2.25,1.04-2.24,1.05-3.07-1.33-.27-.77-.5-1.57-.9-2.27-.55-.97-1.41-1.61-2.61-1.45-1.11.15-1.7.92-2.07,1.93-.44,1.24-.5,2.52-.5,3.81,0,22.7,0,45.41,0,68.11,0,.93.07,1.88.25,2.79.37,1.86,1.46,2.85,3.03,2.9,1.65.05,2.8-.94,3.27-2.85.3-1.2.34-2.43.34-3.67-.01-7.15,0-14.29,0-21.72.5.28.71.38.9.51,8.4,5.53,17.56,6.78,27.21,4.49,8.03-1.9,13.04-7.63,13.42-15.8.36-7.78.29-15.61.03-23.4-.22-6.71-3.22-11.94-9.7-14.68Zm2.57,36.62c-.03,5.05-2.15,8.11-6.94,9.89-6.34,2.34-12.59,1.7-18.73-.9-2.88-1.22-5.57-2.77-8.31-4.25-.87-.47-.74-1.07-.74-1.73-.01-4.22,0-8.45,0-12.67s0-8.33,0-12.49c0-.7.03-1.31.58-1.92,6.71-7.44,19.24-9.95,28.16-5.66,3.89,1.87,5.95,4.84,5.97,9.15.02,6.86.05,13.72.01,20.59Z"/>
      <path class="cls-1" d="m607.1,73.23c-3.85-1.57-4.46-2.48-4.48-6.74-.01-4.28,0-8.57,0-12.85,0-4.28.11-8.57-.02-12.85-.31-10.22-4.53-15.42-14.01-17.1-5.67-1.01-11.37-1.02-17.05,0-3.2.57-6.35,1.45-8.94,3.52-3.95,3.17-6.41,7.15-6.29,12.39.05,2.25,1.32,3.57,3.42,3.72,2.26.17,3.13-.56,3.65-3.05.12-.57.26-1.14.35-1.72.56-3.56,2.65-5.82,6.03-6.88,5.83-1.81,11.74-1.86,17.59-.26,5.62,1.55,7.83,4.73,7.83,10.58,0,2-.06,3.99.02,5.99.05,1.24-.24,1.5-1.48,1.08-3.85-1.29-7.77-2.34-11.83-2.74-7.28-.72-14.07.47-19.93,5.22-7.95,6.44-7.5,20,1.32,25.13,8.72,5.07,17.98,5.34,27.1.54,1.5-.79,2.89-1.81,4.3-2.77.7-.48,1.05-.55,1.31.43.27,1.01.71,2.03,1.86,2.41,2.46.8,4.9,1.65,7.4,2.33,2.03.55,3.58-.13,4.05-1.51.72-2.13-.13-4.02-2.19-4.86Zm-15.87-3.57c-7.19,4.99-14.67,5.6-22.53,2.06-3.59-1.62-4.86-4.68-4.69-8.5.18-3.98,2.21-6.62,5.81-8.03,5.31-2.08,10.83-1.95,16.36-1.17,2.74.39,5.43,1.01,8.09,1.8.89.26,1.24.68,1.19,1.6-.07,1.35-.02,2.7-.02,4.05,1.21,4.08-1.21,6.1-4.22,8.19Z"/>
      <path class="cls-1" d="m231.73,65.42c-.89.43-1.7,1.06-2.45,1.7-8.59,7.28-18.49,7.83-28.8,5.19-5.64-1.45-8.14-5.16-8.32-11-.07-2.05.07-4.11-.05-6.16-.08-1.39.47-1.64,1.73-1.62,6.01.06,12.01.03,18.02.03,5.95,0,11.89,0,17.84,0,2.94,0,4.24-1.2,4.69-4.12.3-1.94.14-3.87-.06-5.79-.67-6.4-2.65-12.15-8.28-16.01-3.75-2.57-8.02-3.56-12.48-3.85-6.54-.42-13.01-.04-18.92,3.07-5.65,2.98-9.43,7.52-9.58,14.15-.17,7.44-.19,14.91.12,22.34.33,7.93,4.63,13.29,12.31,15.56,8.92,2.64,17.91,2.35,26.78-.39,3.83-1.18,7.16-3.26,9.73-6.4,1.09-1.33,1.63-2.83,1.43-4.57-.23-1.94-1.93-2.98-3.7-2.13Zm-30.26-33.71c6.45-2,12.89-1.84,19.03,1.21,4.9,2.43,6.72,7.86,6.76,12.67,0,1.08-.81.8-1.39.8-5.41.02-10.82.01-16.24.01-5.24,0-10.47-.04-15.71.03-1.32.02-1.83-.27-1.84-1.73-.03-7.19,2.42-10.84,9.37-12.99Z"/>
      <path class="cls-1" d="m172.2,65.45c-1.11-.56-2.17-.36-3.14.37-1.17.89-2.31,1.82-3.49,2.68-8.25,6.03-17.44,6.18-26.82,3.88-5.17-1.27-8.25-4.83-8.51-10.35-.11-2.34,0-4.69-.1-7.04-.05-1.19.39-1.47,1.52-1.46,6.07.05,12.13.02,18.2.02,5.95,0,11.9,0,17.84,0,3.03,0,4.49-1.23,4.77-4.22.16-1.74.14-3.53-.02-5.27-.59-6.46-2.52-12.3-8.13-16.28-3.77-2.68-8.09-3.69-12.61-3.99-6.54-.43-13.01-.07-18.92,3.04-5.51,2.9-9.35,7.28-9.58,13.78-.26,7.56-.42,15.15.08,22.7.56,8.45,4.92,13.59,13.11,15.88,6.39,1.79,12.91,1.81,19.44.89,5.2-.73,10.1-2.31,14.17-5.8,1.85-1.59,3.52-3.33,3.58-6,.03-1.18-.2-2.24-1.37-2.83Zm-32.86-33.69c6.4-1.95,12.78-1.93,18.91,1,5.4,2.59,6.92,7.8,7.14,12.81.05,1.23-.94.81-1.53.81-5.36.03-10.72.02-16.08.02-5.24,0-10.48-.04-15.72.03-1.39.02-1.85-.28-1.95-1.8-.45-7.08,3.7-11.18,9.23-12.87Z"/>
      <path class="cls-1" d="m481.45,65.48c-1.09-.6-2.16-.44-3.15.28-.57.42-1.17.8-1.7,1.26-8.54,7.39-18.46,7.91-28.77,5.33-5.8-1.45-8.43-5.46-8.48-11.46-.02-1.94.08-3.88-.03-5.81-.07-1.29.42-1.55,1.61-1.54,6.07.05,12.13.03,18.2.03v-.02c5.83,0,11.66,0,17.49,0,3.35,0,4.84-1.35,5.09-4.68.18-2.35.02-4.69-.33-7.02-1.2-7.98-5-14.06-13.02-16.6-8.1-2.57-16.31-2.3-24.27.61-6.69,2.45-12.3,8.36-11.89,17.49.28,6.27,0,12.56.08,18.83.12,8.41,4.48,14.28,12.52,16.75,7.3,2.24,14.74,2.14,22.19.78,4.96-.91,9.48-2.74,13.14-6.33,1.42-1.39,2.54-2.94,2.63-5.01.05-1.16-.19-2.26-1.31-2.87Zm-32.75-33.77c6.25-1.95,12.52-1.84,18.55.96,4.4,2.05,6.47,5.8,7.04,10.42.4,3.28.29,3.29-3,3.29-4.82,0-9.65,0-14.47,0-5.29,0-10.59-.03-15.88.02-1.18.01-1.56-.26-1.64-1.53-.48-7.31,2.96-11.16,9.4-13.17Z"/>
      <path class="cls-1" d="m503.37,23.06c1.06-7,4.63-11.01,10.98-12.35,3.2-.67,6.45-.75,9.67-.36,7.97.97,10.97,3.65,13.06,11.38.18.68.3,1.38.56,2.03.31.75.64,1.54,1.13,2.17,1.46,1.85,4.42,1.47,5.43-.65.33-.69.44-1.45.47-2.22.26-7.91-4.02-14.55-11.37-17.58-6.11-2.52-12.48-2.62-18.93-1.94-11.21,1.18-18.02,7.85-19.24,19-.72,6.55-.1,13.13-.29,18.09,0,7.24-.11,12.87.03,18.5.25,10.07,5.28,16.79,15.87,19.75,6.11,1.71,12.35,1.68,18.53.31,4.96-1.1,9.26-3.38,12.34-7.59,2.39-3.27,3.28-6.97,3.02-10.96-.14-2.19-1.45-3.42-3.47-3.49-1.81-.06-2.84.97-3.25,3.21-.17.92-.41,1.83-.57,2.75-.85,4.79-3.82,7.69-8.35,9.05-4.96,1.48-10,1.55-15,.25-5.27-1.37-8.66-4.75-10.08-10.04-.61-2.28-.95-4.6-.96-6.95-.01-9.15-.03-18.31,0-27.46,0-1.64.16-3.28.4-4.9Z"/>
      <path class="cls-1" d="m265.73,11.06c5.05-1.31,10.14-1.27,15.19.07,3.37.89,5.84,2.88,7.25,6.15.79,1.84,1.49,3.69,1.98,5.63.26,1.03.62,2.02,1.25,2.89.76,1.05,1.8,1.48,3.08,1.27,1.26-.2,2.2-.87,2.6-2.1.22-.66.36-1.38.35-2.07-.07-7.32-2.89-13.21-9.62-16.56-8.49-4.22-17.42-4.08-26.32-1.5-6.74,1.95-10.97,6.57-12.8,13.33-.57,2.1-.97,4.23-.98,6.41-.02,5.87,0,11.73,0,17.6,0,0,0,0-.02,0,0,5.98-.1,11.97.02,17.95.19,9.15,5.12,15.03,13.49,18.02,7.7,2.75,15.6,2.67,23.42.29,3.67-1.12,6.81-3.19,9.23-6.22,2.86-3.57,4-7.66,3.41-12.18-.25-1.89-1.54-2.88-3.42-2.9-1.68-.02-2.67.85-3.1,2.75-.21.91-.4,1.83-.54,2.76-.78,5-3.73,8.11-8.5,9.52-4.96,1.46-10,1.52-15,.22-5.36-1.39-8.71-4.87-10.12-10.21-.74-2.8-.97-5.66-.97-8.54-.02-8.1,0-16.19,0-24.29,0-2.41.15-4.81.65-7.17,1.15-5.39,3.74-9.65,9.47-11.13Z"/>
      <path class="cls-1" d="m358.39,52.02c0-3.81.07-7.63-.01-11.44-.15-7.09-4.1-12.65-10.84-14.93-8.84-2.99-17.85-3-26.75-.39-7.69,2.26-11.66,7.32-11.97,15.32-.31,8.08-.46,16.2.11,24.28.47,6.54,4.02,11.14,10.17,13.32,9.21,3.28,18.66,3.2,27.92.34,7.54-2.33,11.25-7.86,11.38-15.77.06-3.58,0-7.16,0-10.74h-.01Zm-7.3,0s-.05,0-.07,0c0,3.64.08,7.28-.02,10.91-.12,4.09-2.21,6.94-5.94,8.61-1.9.85-3.9,1.35-5.96,1.5-4.76.34-9.53.56-14.24-.55-6.19-1.45-9.04-5.03-9.06-11.38-.02-5.93.13-11.86-.04-17.78-.22-7.58,3.56-10.79,9.71-12.16,5.76-1.29,11.58-1.2,17.3.43,5.76,1.65,8.25,4.97,8.31,10.9.03,3.17,0,6.34,0,9.51Z"/>
      <path class="cls-1" d="m102.55,24.29c-5.22-1.69-10-.57-14.35,2.59-1.55,1.12-2.97,2.42-4.46,3.64-.43-.44-.26-.94-.31-1.38-.37-3.34-1.54-4.41-4.88-4.41-3.59,0-7.19,0-10.78,0-1.35,0-2.71-.06-4.05.23-1.61.35-2.44,1.36-2.52,2.95-.08,1.66.65,2.88,2.28,3.33.89.25,1.86.31,2.79.33,2.59.04,5.19.12,7.77-.02,1.66-.09,2.2.33,2.19,2.09-.08,12.38-.08,24.77,0,37.15.01,1.71-.44,2.2-2.15,2.13-3.17-.14-6.36-.09-9.54,0-2.44.06-3.7,1.29-3.7,3.35,0,1.97,1.23,3.15,3.53,3.37.53.05,1.06.08,1.59.08,10.01,0,20.03,0,30.04,0,.82,0,1.66-.03,2.46-.19,1.71-.32,2.63-1.46,2.72-3.2.12-2.39-1.27-3.67-4.28-3.72-3.95-.07-7.89-.07-11.84,0-1.26.02-1.58-.4-1.57-1.61.04-9.98.03-19.96.01-29.93,0-.79.11-1.48.64-2.12,1.31-1.59,2.6-3.2,4.12-4.59,2.84-2.6,6.04-4.29,10.05-3.8,2.38.29,4.04,1.51,4.75,3.85.44,1.46.82,2.94,1.31,4.38.49,1.45,1.41,2.47,3.11,2.34,1.7-.13,2.75-1.13,2.98-2.75.75-5.4-1.43-12.02-7.92-14.12Z"/>
    </g>
  </g>
</svg>