<?xml version="1.0" encoding="UTF-8"?>
<svg id="Capa_2" data-name="Capa 2" xmlns="http://www.w3.org/2000/svg" viewBox="0 0 452.38 73.68">
  <defs>
    <style>
      .cls-1 {
        fill: #fff;
        stroke-width: 0px;
      }
    </style>
  </defs>
  <g id="Capa_1-2" data-name="Capa 1">
    <g>
      <path class="cls-1" d="m32.25,7.74c-.53-1.13-1.38-1.7-2.54-1.7h-.32c-1.27,0-2.12.57-2.54,1.7L.23,69.99c-.53,1.34-.14,2.33,1.17,2.97,1.41.57,2.4.18,2.97-1.17l7.1-16.5,2.39-5.56h0L29.71,13.04l14.79,34.69h0l2.76,6.46h0l7.48,17.6c.57,1.34,1.52,1.73,2.86,1.17,1.38-.64,1.77-1.62,1.17-2.97L32.26,7.74h-.01Z"/>
      <path class="cls-1" d="m89.95,24.28h-2.97c-9.3,0-15.55,2.79-18.77,8.38v-6.15c0-1.49-.74-2.23-2.23-2.23s-2.23.74-2.23,2.23v44.43c0,1.48.74,2.23,2.23,2.23s2.23-.74,2.23-2.23v-29.9c.35-4.21,2.1-7.31,5.25-9.3,3.15-2,7.65-3,13.52-3h2.97c5.2,0,8.85,1.05,10.95,3.16,2.1,2.1,3.15,5.75,3.15,10.95v28.1c0,1.48.74,2.23,2.23,2.23s2.23-.74,2.23-2.23v-28.1c0-6.47-1.48-11.18-4.43-14.13s-7.66-4.43-14.13-4.43h0Z"/>
      <path class="cls-1" d="m158.12,0c-1.48,0-2.23.74-2.23,2.23v22.06h-22.8c-6.47,0-11.18,1.48-14.13,4.43-2.95,2.95-4.43,7.66-4.43,14.13v11.77c0,6.47,1.48,11.18,4.43,14.13s7.66,4.43,14.13,4.43h4.03c4.98,0,8.99-.68,12.01-2.04,3.02-1.36,5.28-3.37,6.76-6.02v5.83c0,1.48.74,2.23,2.23,2.23s2.23-.74,2.23-2.23V2.23C160.35.75,159.61,0,158.12,0h0Zm-2.23,57.16c0,3.85-1.68,6.74-5.04,8.67s-7.94,2.89-13.73,2.89h-4.03c-5.2,0-8.85-1.05-10.95-3.16-2.1-2.1-3.15-5.75-3.15-10.95v-11.77c0-5.2,1.05-8.85,3.15-10.95,2.1-2.1,5.75-3.16,10.95-3.16h22.8v28.42h0Z"/>
      <path class="cls-1" d="m197.46,26.51c0-1.49-.74-2.23-2.23-2.23-4.98,0-9.25,1.01-12.8,3.02-3.55,2.01-6.21,4.91-7.98,8.7v-9.49c0-1.49-.74-2.23-2.23-2.23s-2.23.74-2.23,2.23v44.43c0,1.48.74,2.23,2.23,2.23s2.23-.74,2.23-2.23v-24.39c.43-5.8,2.4-10.21,5.94-13.26,3.53-3.04,8.48-4.56,14.85-4.56,1.48,0,2.23-.74,2.23-2.23h-.01Z"/>
      <path class="cls-1" d="m220.47,17.39l9.54-11.24c.85-1.17.74-2.23-.32-3.18-1.13-1.02-2.19-.92-3.18.32l-9.54,11.24c-.85,1.17-.74,2.23.32,3.18,1.13,1.03,2.19.92,3.18-.32h0Z"/>
      <path class="cls-1" d="m223.76,24.28h-8.7c-6.47-.07-11.18,1.37-14.13,4.32-2.95,2.95-4.43,7.7-4.43,14.24v11.88c0,6.4,1.48,11.07,4.43,14.02,2.95,2.95,7.66,4.43,14.13,4.43h8.7c5.94,0,10.41-1.05,13.42-3.16,3-2.1,4.68-5.4,5.04-9.89.07-.74-.09-1.32-.48-1.72-.39-.41-.94-.61-1.64-.61-.74,0-1.3.19-1.67.56-.37.37-.59.93-.66,1.67-.32,3.18-1.54,5.43-3.66,6.73-2.12,1.31-5.57,1.96-10.34,1.96h-8.7c-5.2,0-8.85-1.05-10.95-3.16-2.1-2.1-3.16-5.72-3.16-10.84v-4.35h39.13c1.48,0,2.23-.74,2.23-2.23v-5.3c0-6.47-1.48-11.18-4.43-14.13s-7.66-4.43-14.13-4.43h0Zm14.1,21.63h-36.9v-3.08c0-5.27,1.05-8.95,3.16-11.06,2.1-2.1,5.75-3.12,10.95-3.05h8.7c5.2,0,8.85,1.05,10.95,3.16,2.1,2.1,3.15,5.75,3.15,10.95v3.08h-.01Z"/>
      <path class="cls-1" d="m279.65,45.7h-17.18c-3.22,0-5.45-.62-6.71-1.86-1.25-1.24-1.88-3.45-1.88-6.63s.63-5.5,1.88-6.73c1.25-1.24,3.49-1.86,6.71-1.86h16.65c2.83,0,4.88.46,6.15,1.38s2.01,2.54,2.23,4.88c.11.74.34,1.3.69,1.67s.9.56,1.64.56,1.31-.2,1.7-.61.53-.98.42-1.72c-.64-7.07-4.91-10.61-12.83-10.61h-16.65c-4.45,0-7.74,1.04-9.86,3.13s-3.18,5.39-3.18,9.91,1.06,7.72,3.18,9.81,5.41,3.13,9.86,3.13h17.18c3.5,0,5.91.67,7.24,2.01,1.33,1.34,1.99,3.75,1.99,7.21s-.66,5.82-1.99,7.18-3.74,2.04-7.24,2.04h-17.39c-3.01,0-5.21-.52-6.6-1.56-1.4-1.04-2.24-2.85-2.52-5.44-.04-.74-.24-1.3-.61-1.67-.37-.37-.91-.56-1.62-.56s-1.31.2-1.7.61-.57.98-.53,1.72c.39,3.85,1.68,6.71,3.87,8.56,2.19,1.86,5.43,2.78,9.7,2.78h17.39c4.74,0,8.2-1.1,10.39-3.31s3.29-5.66,3.29-10.37-1.1-8.2-3.29-10.39c-2.19-2.19-5.66-3.29-10.39-3.29v.03Z"/>
      <path class="cls-1" d="m347.3,44.64c4.7-.6,8.24-2.38,10.63-5.33s3.58-7.04,3.58-12.27v-3.18c0-5.9-1.49-10.35-4.48-13.34-2.99-2.99-7.43-4.48-13.34-4.48h-24.81c-1.48,0-2.23.74-2.23,2.23v62.67c0,1.48.74,2.23,2.23,2.23s2.23-.74,2.23-2.23v-26.09h21l17.71,27.78c.39.57.84.9,1.35,1.01s1.09-.02,1.72-.37c1.27-.74,1.49-1.77.64-3.08l-16.23-25.56h0Zm-26.19-4.24V10.5h22.59c4.63,0,8.02,1.07,10.15,3.21,2.14,2.14,3.21,5.52,3.21,10.15v3.18c0,4.59-1.07,7.97-3.21,10.13-2.14,2.16-5.52,3.24-10.15,3.24h-22.59Z"/>
      <path class="cls-1" d="m452.15,7.05c-.28-.67-.95-1.01-2.01-1.01-.53,0-.97.13-1.33.4s-.62.66-.8,1.19l-18.75,56.97-17.73-56.97c-.14-.6-.47-1.03-.98-1.3-.51-.27-1.07-.4-1.67-.4s-1.11.13-1.62.4-.86.7-1.03,1.3l-17.73,56.97-18.75-56.97c-.14-.53-.4-.93-.77-1.19-.37-.27-.82-.4-1.35-.4-.85,0-1.47.34-1.85,1.01-.39.67-.48,1.33-.27,1.96l20.57,62.57c.32,1.06,1.06,1.59,2.23,1.59.64,0,1.18-.08,1.64-.24s.8-.61,1.01-1.35l17.92-57.45,17.92,57.45c.32,1.06,1.1,1.59,2.33,1.59h.21c1.24,0,2.01-.53,2.33-1.59l20.57-62.57c.21-.64.18-1.29-.11-1.96h.02Z"/>
    </g>
  </g>
</svg>